G04 EAGLE Gerber RS-274X export*
G75*
%MOMM*%
%FSLAX34Y34*%
%LPD*%
%INBottom Copper*%
%IPPOS*%
%AMOC8*
5,1,8,0,0,1.08239X$1,22.5*%
G01*
%ADD10R,1.400000X1.600000*%
%ADD11C,1.800000*%
%ADD12R,0.700000X0.900000*%
%ADD13R,1.000000X1.100000*%
%ADD14R,1.778000X0.762000*%
%ADD15R,0.762000X1.778000*%
%ADD16R,1.800000X1.800000*%
%ADD17C,1.800000*%
%ADD18R,0.609600X2.209800*%
%ADD19P,1.732040X8X22.500000*%
%ADD20R,0.900000X0.700000*%
%ADD21P,1.649562X8X292.500000*%
%ADD22R,0.203200X0.812800*%
%ADD23R,1.295400X0.889000*%
%ADD24C,0.454000*%
%ADD25C,0.604000*%
%ADD26C,0.203200*%
%ADD27C,0.304800*%
%ADD28C,0.254000*%
%ADD29C,0.152400*%

G36*
X4126Y34750D02*
X4126Y34750D01*
X4176Y34749D01*
X4298Y34776D01*
X4421Y34794D01*
X4468Y34813D01*
X4517Y34824D01*
X4629Y34877D01*
X4745Y34923D01*
X4786Y34952D01*
X4832Y34973D01*
X4929Y35051D01*
X5031Y35122D01*
X5065Y35159D01*
X5104Y35191D01*
X5181Y35288D01*
X5264Y35381D01*
X5289Y35425D01*
X5320Y35464D01*
X5431Y35682D01*
X6318Y37822D01*
X9278Y40782D01*
X11221Y41587D01*
X11288Y41624D01*
X11359Y41652D01*
X11440Y41709D01*
X11526Y41756D01*
X11582Y41808D01*
X11645Y41851D01*
X11711Y41924D01*
X11784Y41991D01*
X11827Y42053D01*
X11878Y42110D01*
X11926Y42196D01*
X11982Y42277D01*
X12010Y42348D01*
X12047Y42415D01*
X12074Y42510D01*
X12110Y42601D01*
X12121Y42677D01*
X12142Y42751D01*
X12154Y42899D01*
X12161Y42946D01*
X12159Y42965D01*
X12161Y42994D01*
X12161Y46102D01*
X12158Y46128D01*
X12160Y46154D01*
X12138Y46301D01*
X12121Y46448D01*
X12113Y46473D01*
X12109Y46499D01*
X12054Y46637D01*
X12004Y46776D01*
X11990Y46798D01*
X11980Y46823D01*
X11895Y46944D01*
X11815Y47069D01*
X11796Y47087D01*
X11781Y47109D01*
X11671Y47208D01*
X11564Y47311D01*
X11542Y47325D01*
X11522Y47342D01*
X11393Y47414D01*
X11265Y47490D01*
X11240Y47498D01*
X11217Y47511D01*
X11074Y47551D01*
X10933Y47596D01*
X10907Y47598D01*
X10882Y47606D01*
X10638Y47625D01*
X7578Y47625D01*
X6685Y48518D01*
X6685Y65782D01*
X7578Y66675D01*
X16226Y66675D01*
X16252Y66678D01*
X16278Y66676D01*
X16425Y66698D01*
X16572Y66715D01*
X16597Y66723D01*
X16623Y66727D01*
X16761Y66782D01*
X16900Y66832D01*
X16922Y66846D01*
X16947Y66856D01*
X17068Y66941D01*
X17193Y67021D01*
X17211Y67040D01*
X17233Y67055D01*
X17332Y67165D01*
X17435Y67272D01*
X17449Y67294D01*
X17466Y67314D01*
X17538Y67444D01*
X17614Y67571D01*
X17622Y67596D01*
X17635Y67619D01*
X17675Y67762D01*
X17720Y67903D01*
X17722Y67929D01*
X17730Y67954D01*
X17749Y68198D01*
X17749Y72711D01*
X31661Y86623D01*
X31740Y86722D01*
X31824Y86816D01*
X31848Y86858D01*
X31878Y86896D01*
X31932Y87010D01*
X31993Y87121D01*
X32006Y87167D01*
X32027Y87211D01*
X32053Y87334D01*
X32088Y87456D01*
X32093Y87517D01*
X32100Y87552D01*
X32099Y87600D01*
X32107Y87700D01*
X32107Y91766D01*
X32104Y91792D01*
X32106Y91818D01*
X32084Y91965D01*
X32067Y92112D01*
X32059Y92137D01*
X32055Y92163D01*
X32000Y92301D01*
X31950Y92440D01*
X31936Y92462D01*
X31926Y92487D01*
X31841Y92608D01*
X31761Y92733D01*
X31742Y92751D01*
X31727Y92773D01*
X31617Y92872D01*
X31510Y92975D01*
X31488Y92989D01*
X31468Y93006D01*
X31339Y93078D01*
X31211Y93154D01*
X31186Y93162D01*
X31163Y93175D01*
X31020Y93215D01*
X30879Y93260D01*
X30853Y93262D01*
X30828Y93270D01*
X30787Y93273D01*
X29877Y94182D01*
X29877Y99296D01*
X29863Y99421D01*
X29856Y99548D01*
X29843Y99594D01*
X29837Y99642D01*
X29795Y99761D01*
X29760Y99882D01*
X29736Y99925D01*
X29720Y99970D01*
X29651Y100076D01*
X29590Y100187D01*
X29550Y100233D01*
X29531Y100263D01*
X29496Y100296D01*
X29431Y100373D01*
X16255Y113549D01*
X16255Y156457D01*
X31629Y171831D01*
X31708Y171930D01*
X31792Y172024D01*
X31816Y172066D01*
X31846Y172104D01*
X31900Y172218D01*
X31961Y172329D01*
X31974Y172375D01*
X31995Y172419D01*
X32021Y172542D01*
X32056Y172664D01*
X32061Y172725D01*
X32068Y172760D01*
X32067Y172808D01*
X32075Y172908D01*
X32075Y172938D01*
X32968Y173831D01*
X43232Y173831D01*
X43881Y173181D01*
X43901Y173165D01*
X43918Y173145D01*
X44037Y173057D01*
X44154Y172965D01*
X44178Y172954D01*
X44199Y172938D01*
X44335Y172879D01*
X44469Y172816D01*
X44495Y172810D01*
X44519Y172800D01*
X44665Y172774D01*
X44810Y172742D01*
X44836Y172743D01*
X44862Y172738D01*
X45010Y172746D01*
X45158Y172748D01*
X45184Y172755D01*
X45210Y172756D01*
X45352Y172797D01*
X45496Y172833D01*
X45519Y172845D01*
X45545Y172853D01*
X45674Y172925D01*
X45806Y172993D01*
X45826Y173010D01*
X45849Y173023D01*
X46035Y173181D01*
X46938Y174085D01*
X57202Y174085D01*
X58095Y173192D01*
X58095Y172961D01*
X58106Y172861D01*
X58108Y172760D01*
X58126Y172688D01*
X58135Y172614D01*
X58168Y172520D01*
X58193Y172422D01*
X58227Y172356D01*
X58252Y172286D01*
X58307Y172202D01*
X58353Y172113D01*
X58401Y172056D01*
X58441Y171993D01*
X58513Y171924D01*
X58578Y171847D01*
X58638Y171803D01*
X58692Y171751D01*
X58778Y171700D01*
X58859Y171640D01*
X58927Y171611D01*
X58991Y171572D01*
X59087Y171542D01*
X59179Y171502D01*
X59252Y171489D01*
X59323Y171466D01*
X59423Y171458D01*
X59522Y171440D01*
X59596Y171444D01*
X59670Y171438D01*
X59770Y171453D01*
X59870Y171458D01*
X59941Y171479D01*
X60015Y171490D01*
X60108Y171527D01*
X60205Y171555D01*
X60270Y171591D01*
X60339Y171619D01*
X60421Y171676D01*
X60509Y171725D01*
X60585Y171790D01*
X60625Y171818D01*
X60649Y171844D01*
X60695Y171883D01*
X65466Y176654D01*
X73041Y176654D01*
X78398Y171297D01*
X78398Y163721D01*
X77157Y162481D01*
X77095Y162403D01*
X77026Y162331D01*
X76987Y162266D01*
X76941Y162208D01*
X76898Y162117D01*
X76847Y162032D01*
X76824Y161960D01*
X76792Y161892D01*
X76771Y161795D01*
X76740Y161700D01*
X76734Y161625D01*
X76719Y161552D01*
X76720Y161452D01*
X76712Y161352D01*
X76723Y161278D01*
X76725Y161203D01*
X76749Y161107D01*
X76764Y161008D01*
X76791Y160938D01*
X76810Y160865D01*
X76855Y160776D01*
X76892Y160684D01*
X76935Y160622D01*
X76969Y160556D01*
X77034Y160479D01*
X77091Y160397D01*
X77146Y160347D01*
X77195Y160290D01*
X77275Y160231D01*
X77349Y160164D01*
X77415Y160127D01*
X77475Y160083D01*
X77567Y160043D01*
X77654Y159995D01*
X77726Y159975D01*
X77795Y159945D01*
X77894Y159927D01*
X77990Y159900D01*
X78091Y159892D01*
X78138Y159883D01*
X78174Y159885D01*
X78233Y159880D01*
X84239Y159876D01*
X84339Y159887D01*
X84440Y159889D01*
X84512Y159907D01*
X84585Y159915D01*
X84680Y159949D01*
X84778Y159974D01*
X84844Y160008D01*
X84914Y160033D01*
X84998Y160087D01*
X85088Y160134D01*
X85144Y160182D01*
X85206Y160222D01*
X85277Y160294D01*
X85354Y160360D01*
X85397Y160419D01*
X85449Y160472D01*
X85501Y160559D01*
X85561Y160640D01*
X85590Y160708D01*
X85628Y160771D01*
X85659Y160867D01*
X85699Y160960D01*
X85712Y161032D01*
X85734Y161103D01*
X85743Y161203D01*
X85760Y161303D01*
X85757Y161377D01*
X85763Y161450D01*
X85748Y161550D01*
X85743Y161651D01*
X85722Y161722D01*
X85711Y161795D01*
X85674Y161889D01*
X85646Y161986D01*
X85610Y162050D01*
X85583Y162119D01*
X85525Y162202D01*
X85476Y162290D01*
X85411Y162366D01*
X85384Y162405D01*
X85357Y162429D01*
X85317Y162476D01*
X84493Y163301D01*
X84493Y164970D01*
X93637Y164970D01*
X93664Y164973D01*
X93690Y164971D01*
X93836Y164993D01*
X93984Y165010D01*
X94008Y165019D01*
X94034Y165023D01*
X94172Y165077D01*
X94312Y165127D01*
X94334Y165142D01*
X94358Y165151D01*
X94480Y165236D01*
X94605Y165316D01*
X94623Y165335D01*
X94644Y165350D01*
X94743Y165460D01*
X94847Y165567D01*
X94860Y165590D01*
X94878Y165609D01*
X94949Y165739D01*
X95026Y165866D01*
X95034Y165891D01*
X95046Y165914D01*
X95087Y166057D01*
X95132Y166198D01*
X95134Y166224D01*
X95141Y166250D01*
X95161Y166493D01*
X95161Y167002D01*
X95670Y167002D01*
X95696Y167005D01*
X95722Y167003D01*
X95869Y167025D01*
X96016Y167042D01*
X96040Y167051D01*
X96066Y167055D01*
X96204Y167110D01*
X96344Y167160D01*
X96366Y167174D01*
X96390Y167184D01*
X96512Y167268D01*
X96637Y167349D01*
X96655Y167368D01*
X96676Y167383D01*
X96776Y167492D01*
X96879Y167599D01*
X96892Y167622D01*
X96910Y167641D01*
X96982Y167771D01*
X97058Y167898D01*
X97066Y167923D01*
X97078Y167946D01*
X97119Y168089D01*
X97164Y168230D01*
X97166Y168256D01*
X97173Y168282D01*
X97193Y168526D01*
X97193Y177670D01*
X98862Y177670D01*
X104913Y171620D01*
X104933Y171604D01*
X104950Y171584D01*
X105070Y171495D01*
X105186Y171403D01*
X105209Y171392D01*
X105230Y171376D01*
X105367Y171318D01*
X105501Y171254D01*
X105526Y171249D01*
X105550Y171238D01*
X105696Y171212D01*
X105841Y171181D01*
X105867Y171181D01*
X105893Y171177D01*
X106042Y171184D01*
X106190Y171187D01*
X106215Y171193D01*
X106241Y171195D01*
X106384Y171236D01*
X106528Y171272D01*
X106551Y171284D01*
X106576Y171291D01*
X106706Y171364D01*
X106838Y171432D01*
X106858Y171449D01*
X106880Y171461D01*
X107067Y171620D01*
X107519Y172072D01*
X107588Y172160D01*
X107607Y172179D01*
X107612Y172187D01*
X107682Y172265D01*
X107706Y172307D01*
X107736Y172345D01*
X107790Y172459D01*
X107851Y172570D01*
X107864Y172617D01*
X107885Y172660D01*
X107911Y172784D01*
X107946Y172906D01*
X107951Y172966D01*
X107958Y173001D01*
X107957Y173049D01*
X107965Y173149D01*
X107965Y174292D01*
X108773Y175100D01*
X108839Y175183D01*
X108880Y175225D01*
X108888Y175239D01*
X108936Y175293D01*
X108960Y175335D01*
X108990Y175373D01*
X109044Y175487D01*
X109105Y175598D01*
X109118Y175644D01*
X109139Y175688D01*
X109165Y175811D01*
X109200Y175933D01*
X109205Y175994D01*
X109212Y176029D01*
X109211Y176077D01*
X109219Y176177D01*
X109219Y181229D01*
X111764Y183774D01*
X111843Y183873D01*
X111928Y183968D01*
X111951Y184009D01*
X111980Y184047D01*
X112035Y184161D01*
X112096Y184273D01*
X112109Y184319D01*
X112129Y184362D01*
X112156Y184486D01*
X112191Y184608D01*
X112195Y184668D01*
X112203Y184702D01*
X112202Y184751D01*
X112210Y184852D01*
X112163Y234124D01*
X112149Y234249D01*
X112142Y234375D01*
X112129Y234422D01*
X112123Y234470D01*
X112080Y234589D01*
X112046Y234710D01*
X112022Y234752D01*
X112005Y234798D01*
X111937Y234904D01*
X111875Y235014D01*
X111835Y235061D01*
X111816Y235091D01*
X111781Y235124D01*
X111717Y235200D01*
X110906Y236011D01*
X110906Y238578D01*
X110903Y238603D01*
X110905Y238627D01*
X110883Y238775D01*
X110866Y238925D01*
X110858Y238948D01*
X110854Y238972D01*
X110799Y239111D01*
X110748Y239253D01*
X110735Y239273D01*
X110726Y239296D01*
X110641Y239420D01*
X110559Y239545D01*
X110542Y239562D01*
X110528Y239582D01*
X110417Y239683D01*
X110309Y239788D01*
X110288Y239800D01*
X110270Y239817D01*
X110139Y239889D01*
X110010Y239967D01*
X109986Y239974D01*
X109965Y239986D01*
X109821Y240027D01*
X109678Y240073D01*
X109653Y240075D01*
X109630Y240081D01*
X109433Y240098D01*
X109428Y240099D01*
X109424Y240099D01*
X109386Y240102D01*
X109335Y240102D01*
X109208Y240087D01*
X109079Y240081D01*
X109035Y240068D01*
X108989Y240063D01*
X108868Y240020D01*
X108745Y239984D01*
X108704Y239962D01*
X108660Y239946D01*
X108552Y239877D01*
X108440Y239814D01*
X108396Y239776D01*
X108367Y239758D01*
X108333Y239723D01*
X108254Y239656D01*
X108163Y239564D01*
X107958Y239564D01*
X107942Y239562D01*
X107926Y239564D01*
X107769Y239542D01*
X107612Y239524D01*
X107597Y239519D01*
X107580Y239516D01*
X107349Y239437D01*
X107162Y239355D01*
X106898Y239459D01*
X106742Y239500D01*
X106585Y239544D01*
X106571Y239546D01*
X106561Y239548D01*
X106526Y239549D01*
X106341Y239564D01*
X103737Y239564D01*
X103724Y239563D01*
X102050Y239564D01*
X102049Y239564D01*
X102048Y239564D01*
X100391Y239564D01*
X100372Y239566D01*
X99287Y239567D01*
X99161Y239552D01*
X99034Y239546D01*
X98988Y239532D01*
X98941Y239527D01*
X98822Y239484D01*
X98699Y239449D01*
X98657Y239426D01*
X98613Y239410D01*
X98506Y239341D01*
X98395Y239279D01*
X98349Y239240D01*
X98320Y239221D01*
X98286Y239186D01*
X98209Y239120D01*
X97401Y238313D01*
X94257Y238313D01*
X92034Y240536D01*
X92034Y243679D01*
X92090Y243735D01*
X92152Y243813D01*
X92222Y243885D01*
X92260Y243949D01*
X92306Y244008D01*
X92349Y244098D01*
X92401Y244185D01*
X92423Y244255D01*
X92455Y244323D01*
X92476Y244421D01*
X92507Y244516D01*
X92513Y244591D01*
X92529Y244663D01*
X92527Y244764D01*
X92535Y244864D01*
X92524Y244937D01*
X92523Y245012D01*
X92498Y245109D01*
X92483Y245208D01*
X92456Y245278D01*
X92438Y245350D01*
X92392Y245439D01*
X92355Y245532D01*
X92312Y245593D01*
X92278Y245660D01*
X92213Y245736D01*
X92156Y245819D01*
X92100Y245868D01*
X92052Y245925D01*
X91971Y245985D01*
X91897Y246052D01*
X91832Y246088D01*
X91772Y246132D01*
X91680Y246172D01*
X91592Y246220D01*
X91520Y246241D01*
X91452Y246270D01*
X91353Y246288D01*
X91256Y246315D01*
X91156Y246323D01*
X91109Y246332D01*
X91073Y246330D01*
X91013Y246335D01*
X88763Y246335D01*
X88638Y246320D01*
X88512Y246314D01*
X88465Y246301D01*
X88417Y246295D01*
X88298Y246252D01*
X88177Y246217D01*
X88135Y246194D01*
X88089Y246178D01*
X87983Y246109D01*
X87873Y246047D01*
X87826Y246008D01*
X87796Y245988D01*
X87763Y245954D01*
X87686Y245889D01*
X86968Y245171D01*
X83824Y245171D01*
X81602Y247393D01*
X81602Y250537D01*
X83824Y252760D01*
X86968Y252760D01*
X87866Y251863D01*
X87965Y251784D01*
X88059Y251699D01*
X88101Y251676D01*
X88139Y251646D01*
X88253Y251592D01*
X88364Y251531D01*
X88410Y251518D01*
X88454Y251497D01*
X88577Y251470D01*
X88699Y251436D01*
X88760Y251431D01*
X88794Y251424D01*
X88843Y251424D01*
X88943Y251416D01*
X96266Y251416D01*
X96292Y251419D01*
X96318Y251417D01*
X96465Y251439D01*
X96612Y251456D01*
X96637Y251465D01*
X96663Y251469D01*
X96801Y251524D01*
X96940Y251574D01*
X96962Y251588D01*
X96987Y251598D01*
X97108Y251682D01*
X97233Y251763D01*
X97251Y251782D01*
X97273Y251797D01*
X97372Y251906D01*
X97475Y252013D01*
X97489Y252036D01*
X97506Y252055D01*
X97578Y252185D01*
X97654Y252312D01*
X97662Y252337D01*
X97675Y252360D01*
X97715Y252503D01*
X97760Y252644D01*
X97762Y252671D01*
X97770Y252696D01*
X97789Y252940D01*
X97789Y257176D01*
X103759Y257176D01*
X103785Y257179D01*
X103811Y257177D01*
X103958Y257199D01*
X104105Y257216D01*
X104130Y257224D01*
X104156Y257228D01*
X104293Y257283D01*
X104433Y257333D01*
X104455Y257347D01*
X104480Y257357D01*
X104601Y257442D01*
X104726Y257522D01*
X104744Y257541D01*
X104766Y257556D01*
X104865Y257666D01*
X104968Y257773D01*
X104982Y257795D01*
X104999Y257815D01*
X105071Y257945D01*
X105147Y258072D01*
X105149Y258079D01*
X105195Y258095D01*
X105217Y258110D01*
X105242Y258119D01*
X105363Y258204D01*
X105488Y258284D01*
X105506Y258303D01*
X105528Y258318D01*
X105627Y258428D01*
X105730Y258535D01*
X105744Y258558D01*
X105761Y258577D01*
X105833Y258707D01*
X105909Y258834D01*
X105917Y258859D01*
X105930Y258882D01*
X105970Y259025D01*
X106015Y259166D01*
X106017Y259192D01*
X106025Y259217D01*
X106044Y259461D01*
X106044Y270511D01*
X108285Y270511D01*
X108931Y270338D01*
X109510Y270003D01*
X110088Y269425D01*
X110094Y269416D01*
X110110Y269404D01*
X110125Y269388D01*
X110138Y269377D01*
X110167Y269344D01*
X110266Y269271D01*
X110360Y269191D01*
X110406Y269167D01*
X110447Y269137D01*
X110560Y269088D01*
X110670Y269032D01*
X110720Y269019D01*
X110767Y268999D01*
X110889Y268977D01*
X111008Y268947D01*
X111060Y268946D01*
X111110Y268937D01*
X111233Y268943D01*
X111357Y268941D01*
X111407Y268952D01*
X111459Y268955D01*
X111577Y268989D01*
X111697Y269015D01*
X111744Y269037D01*
X111793Y269051D01*
X111901Y269112D01*
X112012Y269164D01*
X112052Y269196D01*
X112098Y269222D01*
X112284Y269380D01*
X112398Y269495D01*
X112776Y269495D01*
X112802Y269498D01*
X112828Y269496D01*
X112975Y269518D01*
X113122Y269535D01*
X113147Y269543D01*
X113173Y269547D01*
X113311Y269602D01*
X113450Y269652D01*
X113472Y269666D01*
X113497Y269676D01*
X113618Y269761D01*
X113743Y269841D01*
X113761Y269860D01*
X113783Y269875D01*
X113882Y269985D01*
X113985Y270092D01*
X113999Y270114D01*
X114016Y270134D01*
X114088Y270264D01*
X114164Y270391D01*
X114172Y270416D01*
X114185Y270439D01*
X114225Y270582D01*
X114270Y270723D01*
X114272Y270749D01*
X114280Y270774D01*
X114299Y271018D01*
X114299Y300010D01*
X135346Y321057D01*
X165776Y321057D01*
X165806Y321048D01*
X165866Y321043D01*
X165901Y321036D01*
X165949Y321037D01*
X166049Y321029D01*
X167237Y321029D01*
X169899Y318367D01*
X169899Y314601D01*
X167237Y311939D01*
X163471Y311939D01*
X160791Y314620D01*
X160786Y314651D01*
X160769Y314798D01*
X160761Y314823D01*
X160757Y314849D01*
X160702Y314987D01*
X160652Y315126D01*
X160638Y315148D01*
X160628Y315173D01*
X160543Y315294D01*
X160463Y315419D01*
X160444Y315437D01*
X160429Y315459D01*
X160319Y315558D01*
X160212Y315661D01*
X160190Y315675D01*
X160170Y315692D01*
X160040Y315764D01*
X159913Y315840D01*
X159888Y315848D01*
X159865Y315861D01*
X159722Y315901D01*
X159581Y315946D01*
X159555Y315948D01*
X159530Y315956D01*
X159286Y315975D01*
X138081Y315975D01*
X137956Y315961D01*
X137830Y315954D01*
X137783Y315941D01*
X137735Y315935D01*
X137616Y315893D01*
X137495Y315858D01*
X137453Y315834D01*
X137407Y315818D01*
X137301Y315749D01*
X137191Y315688D01*
X137144Y315648D01*
X137114Y315629D01*
X137081Y315594D01*
X137004Y315529D01*
X119827Y298352D01*
X119748Y298253D01*
X119664Y298159D01*
X119640Y298117D01*
X119610Y298079D01*
X119556Y297965D01*
X119495Y297854D01*
X119482Y297807D01*
X119461Y297764D01*
X119435Y297640D01*
X119400Y297518D01*
X119395Y297458D01*
X119388Y297423D01*
X119389Y297375D01*
X119381Y297275D01*
X119381Y271018D01*
X119384Y270992D01*
X119382Y270966D01*
X119404Y270819D01*
X119421Y270672D01*
X119429Y270647D01*
X119433Y270621D01*
X119488Y270483D01*
X119538Y270344D01*
X119552Y270322D01*
X119562Y270297D01*
X119647Y270176D01*
X119727Y270051D01*
X119746Y270033D01*
X119761Y270011D01*
X119871Y269912D01*
X119978Y269809D01*
X120000Y269795D01*
X120020Y269778D01*
X120150Y269706D01*
X120277Y269630D01*
X120302Y269622D01*
X120325Y269609D01*
X120468Y269569D01*
X120609Y269524D01*
X120635Y269522D01*
X120660Y269514D01*
X120904Y269495D01*
X121282Y269495D01*
X122113Y268663D01*
X122133Y268647D01*
X122150Y268627D01*
X122270Y268539D01*
X122386Y268447D01*
X122410Y268436D01*
X122431Y268420D01*
X122567Y268361D01*
X122701Y268298D01*
X122727Y268292D01*
X122751Y268282D01*
X122897Y268256D01*
X123042Y268224D01*
X123068Y268225D01*
X123094Y268220D01*
X123242Y268228D01*
X123390Y268230D01*
X123416Y268237D01*
X123442Y268238D01*
X123584Y268279D01*
X123728Y268315D01*
X123751Y268327D01*
X123777Y268335D01*
X123906Y268407D01*
X124038Y268475D01*
X124058Y268492D01*
X124081Y268505D01*
X124267Y268663D01*
X125098Y269495D01*
X125476Y269495D01*
X125502Y269498D01*
X125528Y269496D01*
X125675Y269518D01*
X125822Y269535D01*
X125847Y269543D01*
X125873Y269547D01*
X126011Y269602D01*
X126150Y269652D01*
X126172Y269666D01*
X126197Y269676D01*
X126318Y269761D01*
X126443Y269841D01*
X126461Y269860D01*
X126483Y269875D01*
X126582Y269985D01*
X126685Y270092D01*
X126699Y270114D01*
X126716Y270134D01*
X126788Y270264D01*
X126864Y270391D01*
X126872Y270416D01*
X126885Y270439D01*
X126925Y270582D01*
X126970Y270723D01*
X126972Y270749D01*
X126980Y270774D01*
X126999Y271018D01*
X126999Y285043D01*
X126985Y285168D01*
X126978Y285294D01*
X126965Y285341D01*
X126959Y285389D01*
X126917Y285508D01*
X126882Y285629D01*
X126858Y285671D01*
X126842Y285717D01*
X126773Y285823D01*
X126712Y285933D01*
X126672Y285980D01*
X126653Y286010D01*
X126618Y286043D01*
X126553Y286120D01*
X124995Y287677D01*
X124995Y291443D01*
X127657Y294105D01*
X131423Y294105D01*
X134085Y291443D01*
X134085Y287677D01*
X132527Y286120D01*
X132448Y286021D01*
X132364Y285927D01*
X132340Y285884D01*
X132310Y285847D01*
X132256Y285732D01*
X132195Y285622D01*
X132182Y285575D01*
X132161Y285532D01*
X132135Y285408D01*
X132100Y285286D01*
X132095Y285226D01*
X132088Y285191D01*
X132089Y285143D01*
X132081Y285043D01*
X132081Y271018D01*
X132084Y270992D01*
X132082Y270966D01*
X132104Y270819D01*
X132121Y270672D01*
X132129Y270647D01*
X132133Y270621D01*
X132188Y270483D01*
X132238Y270344D01*
X132252Y270322D01*
X132262Y270297D01*
X132347Y270176D01*
X132427Y270051D01*
X132446Y270033D01*
X132461Y270011D01*
X132571Y269912D01*
X132678Y269809D01*
X132700Y269795D01*
X132720Y269778D01*
X132850Y269706D01*
X132977Y269630D01*
X133002Y269622D01*
X133025Y269609D01*
X133168Y269569D01*
X133309Y269524D01*
X133335Y269522D01*
X133360Y269514D01*
X133604Y269495D01*
X133982Y269495D01*
X134096Y269380D01*
X134137Y269348D01*
X134171Y269310D01*
X134273Y269240D01*
X134369Y269163D01*
X134416Y269141D01*
X134458Y269112D01*
X134573Y269067D01*
X134684Y269015D01*
X134735Y269004D01*
X134783Y268985D01*
X134905Y268967D01*
X135025Y268941D01*
X135077Y268942D01*
X135128Y268935D01*
X135251Y268945D01*
X135373Y268947D01*
X135423Y268960D01*
X135475Y268964D01*
X135592Y269002D01*
X135711Y269032D01*
X135757Y269056D01*
X135806Y269072D01*
X135912Y269135D01*
X136021Y269192D01*
X136060Y269225D01*
X136069Y269230D01*
X136071Y269231D01*
X136105Y269252D01*
X136173Y269318D01*
X136255Y269388D01*
X136272Y269405D01*
X136287Y269418D01*
X136293Y269426D01*
X136870Y270003D01*
X137449Y270338D01*
X138095Y270511D01*
X140336Y270511D01*
X140336Y259461D01*
X140339Y259435D01*
X140337Y259409D01*
X140359Y259262D01*
X140376Y259115D01*
X140384Y259090D01*
X140388Y259067D01*
X140365Y258994D01*
X140362Y258968D01*
X140355Y258943D01*
X140336Y258699D01*
X140336Y247649D01*
X139351Y247649D01*
X139251Y247638D01*
X139151Y247636D01*
X139079Y247618D01*
X139005Y247609D01*
X138911Y247576D01*
X138813Y247551D01*
X138747Y247517D01*
X138677Y247492D01*
X138593Y247437D01*
X138503Y247391D01*
X138447Y247343D01*
X138384Y247303D01*
X138314Y247231D01*
X138238Y247166D01*
X138194Y247106D01*
X138142Y247052D01*
X138090Y246966D01*
X138031Y246885D01*
X138001Y246817D01*
X137963Y246753D01*
X137933Y246657D01*
X137893Y246565D01*
X137880Y246492D01*
X137857Y246421D01*
X137849Y246321D01*
X137831Y246222D01*
X137835Y246148D01*
X137829Y246074D01*
X137844Y245974D01*
X137849Y245874D01*
X137870Y245803D01*
X137881Y245729D01*
X137918Y245636D01*
X137946Y245539D01*
X137982Y245474D01*
X138009Y245405D01*
X138067Y245323D01*
X138116Y245235D01*
X138181Y245159D01*
X138208Y245119D01*
X138235Y245095D01*
X138274Y245049D01*
X172213Y211110D01*
X172213Y200351D01*
X172227Y200226D01*
X172234Y200100D01*
X172247Y200053D01*
X172253Y200005D01*
X172295Y199886D01*
X172330Y199765D01*
X172354Y199723D01*
X172370Y199677D01*
X172439Y199571D01*
X172500Y199461D01*
X172540Y199414D01*
X172559Y199384D01*
X172594Y199351D01*
X172659Y199274D01*
X172828Y199105D01*
X172910Y199040D01*
X172984Y198969D01*
X173046Y198932D01*
X173101Y198888D01*
X173195Y198844D01*
X173284Y198791D01*
X173352Y198770D01*
X173416Y198739D01*
X173518Y198717D01*
X173617Y198686D01*
X173688Y198681D01*
X173757Y198666D01*
X173861Y198668D01*
X173964Y198660D01*
X174035Y198671D01*
X174106Y198672D01*
X174206Y198697D01*
X174309Y198713D01*
X174375Y198739D01*
X174444Y198757D01*
X174536Y198804D01*
X174632Y198843D01*
X174690Y198884D01*
X174753Y198916D01*
X174833Y198984D01*
X174917Y199043D01*
X174965Y199096D01*
X175019Y199142D01*
X175081Y199226D01*
X175150Y199303D01*
X175184Y199365D01*
X175226Y199422D01*
X175267Y199518D01*
X175317Y199609D01*
X175336Y199677D01*
X175364Y199742D01*
X175382Y199844D01*
X175410Y199944D01*
X175417Y200039D01*
X175426Y200085D01*
X175424Y200123D01*
X175429Y200188D01*
X175291Y232913D01*
X175276Y233035D01*
X175270Y233158D01*
X175256Y233208D01*
X175250Y233259D01*
X175208Y233375D01*
X175173Y233493D01*
X175148Y233538D01*
X175131Y233587D01*
X175064Y233690D01*
X175003Y233797D01*
X174961Y233847D01*
X174940Y233879D01*
X174906Y233911D01*
X174845Y233984D01*
X173556Y235272D01*
X173457Y235351D01*
X173364Y235435D01*
X173321Y235459D01*
X173283Y235489D01*
X173169Y235543D01*
X173059Y235604D01*
X173012Y235617D01*
X172968Y235637D01*
X172845Y235664D01*
X172723Y235698D01*
X172662Y235703D01*
X172628Y235711D01*
X172580Y235710D01*
X172479Y235718D01*
X172055Y235718D01*
X169832Y237941D01*
X169832Y241085D01*
X172055Y243308D01*
X175199Y243308D01*
X177422Y241085D01*
X177422Y240661D01*
X177436Y240535D01*
X177443Y240409D01*
X177456Y240362D01*
X177462Y240314D01*
X177504Y240195D01*
X177539Y240074D01*
X177563Y240032D01*
X177579Y239986D01*
X177648Y239880D01*
X177710Y239770D01*
X177749Y239724D01*
X177768Y239694D01*
X177803Y239660D01*
X177868Y239584D01*
X180483Y236968D01*
X180485Y236967D01*
X180488Y236964D01*
X181380Y236079D01*
X181380Y234814D01*
X181381Y234812D01*
X181380Y234808D01*
X181567Y190536D01*
X181575Y190469D01*
X181575Y188650D01*
X181575Y188648D01*
X181575Y188644D01*
X181580Y187383D01*
X180686Y186489D01*
X180684Y186487D01*
X180681Y186484D01*
X179460Y185252D01*
X179458Y185251D01*
X179434Y185227D01*
X179423Y185215D01*
X179351Y185154D01*
X174852Y180655D01*
X174790Y180577D01*
X174720Y180504D01*
X174682Y180440D01*
X174635Y180382D01*
X174593Y180291D01*
X174541Y180205D01*
X174518Y180134D01*
X174487Y180067D01*
X174465Y179969D01*
X174435Y179873D01*
X174429Y179799D01*
X174413Y179726D01*
X174415Y179626D01*
X174407Y179526D01*
X174418Y179452D01*
X174419Y179378D01*
X174444Y179281D01*
X174459Y179181D01*
X174486Y179112D01*
X174504Y179040D01*
X174550Y178950D01*
X174587Y178857D01*
X174630Y178796D01*
X174664Y178730D01*
X174729Y178653D01*
X174786Y178571D01*
X174841Y178521D01*
X174890Y178465D01*
X174970Y178405D01*
X175045Y178338D01*
X175110Y178302D01*
X175170Y178257D01*
X175262Y178218D01*
X175350Y178169D01*
X175422Y178149D01*
X175490Y178119D01*
X175589Y178102D01*
X175685Y178074D01*
X175785Y178066D01*
X175833Y178058D01*
X175869Y178060D01*
X175929Y178055D01*
X189738Y178055D01*
X189764Y178058D01*
X189790Y178056D01*
X189937Y178078D01*
X190084Y178095D01*
X190109Y178103D01*
X190135Y178107D01*
X190273Y178162D01*
X190412Y178212D01*
X190434Y178226D01*
X190459Y178236D01*
X190580Y178321D01*
X190705Y178401D01*
X190723Y178420D01*
X190745Y178435D01*
X190844Y178545D01*
X190947Y178652D01*
X190961Y178674D01*
X190978Y178694D01*
X191050Y178824D01*
X191126Y178951D01*
X191134Y178976D01*
X191147Y178999D01*
X191187Y179142D01*
X191232Y179283D01*
X191234Y179309D01*
X191242Y179334D01*
X191261Y179578D01*
X191261Y195827D01*
X204531Y209097D01*
X206763Y211329D01*
X218031Y211329D01*
X218157Y211343D01*
X218283Y211350D01*
X218329Y211363D01*
X218377Y211369D01*
X218496Y211411D01*
X218618Y211446D01*
X218660Y211470D01*
X218706Y211486D01*
X218812Y211555D01*
X218922Y211616D01*
X218968Y211656D01*
X218998Y211675D01*
X219032Y211710D01*
X219108Y211775D01*
X219408Y212075D01*
X222552Y212075D01*
X224775Y209852D01*
X224775Y206708D01*
X222552Y204485D01*
X219408Y204485D01*
X219108Y204785D01*
X219009Y204864D01*
X218915Y204948D01*
X218873Y204972D01*
X218835Y205002D01*
X218721Y205056D01*
X218610Y205117D01*
X218564Y205130D01*
X218520Y205151D01*
X218397Y205177D01*
X218275Y205212D01*
X218214Y205217D01*
X218179Y205224D01*
X218131Y205223D01*
X218031Y205231D01*
X209920Y205231D01*
X209794Y205217D01*
X209668Y205210D01*
X209622Y205197D01*
X209574Y205191D01*
X209455Y205149D01*
X209333Y205114D01*
X209291Y205090D01*
X209245Y205074D01*
X209139Y205005D01*
X209029Y204944D01*
X208983Y204904D01*
X208953Y204885D01*
X208919Y204850D01*
X208843Y204785D01*
X197805Y193747D01*
X197726Y193648D01*
X197642Y193554D01*
X197618Y193512D01*
X197588Y193474D01*
X197534Y193360D01*
X197473Y193249D01*
X197460Y193203D01*
X197439Y193159D01*
X197413Y193036D01*
X197378Y192914D01*
X197373Y192853D01*
X197366Y192818D01*
X197367Y192770D01*
X197359Y192670D01*
X197359Y184774D01*
X197373Y184648D01*
X197380Y184522D01*
X197393Y184476D01*
X197399Y184428D01*
X197441Y184309D01*
X197476Y184187D01*
X197500Y184145D01*
X197516Y184099D01*
X197585Y183993D01*
X197646Y183883D01*
X197686Y183837D01*
X197705Y183807D01*
X197740Y183773D01*
X197805Y183697D01*
X227401Y154101D01*
X227500Y154022D01*
X227594Y153938D01*
X227636Y153914D01*
X227674Y153884D01*
X227788Y153830D01*
X227899Y153769D01*
X227945Y153756D01*
X227989Y153735D01*
X228112Y153709D01*
X228234Y153674D01*
X228295Y153669D01*
X228330Y153662D01*
X228378Y153663D01*
X228478Y153655D01*
X228902Y153655D01*
X229811Y152746D01*
X229890Y152683D01*
X229962Y152613D01*
X230026Y152575D01*
X230084Y152529D01*
X230175Y152486D01*
X230261Y152435D01*
X230332Y152412D01*
X230399Y152380D01*
X230497Y152359D01*
X230593Y152328D01*
X230667Y152322D01*
X230740Y152307D01*
X230840Y152308D01*
X230940Y152300D01*
X231014Y152311D01*
X231088Y152313D01*
X231185Y152337D01*
X231285Y152352D01*
X231354Y152380D01*
X231426Y152398D01*
X231515Y152444D01*
X231609Y152481D01*
X231670Y152523D01*
X231736Y152557D01*
X231812Y152622D01*
X231895Y152680D01*
X231945Y152735D01*
X232001Y152783D01*
X232061Y152864D01*
X232128Y152939D01*
X232164Y153004D01*
X232209Y153063D01*
X232248Y153155D01*
X232297Y153244D01*
X232317Y153315D01*
X232347Y153383D01*
X232364Y153482D01*
X232392Y153579D01*
X232400Y153679D01*
X232408Y153726D01*
X232406Y153762D01*
X232411Y153823D01*
X232411Y229870D01*
X232408Y229896D01*
X232410Y229922D01*
X232388Y230069D01*
X232371Y230216D01*
X232363Y230241D01*
X232359Y230267D01*
X232304Y230405D01*
X232254Y230544D01*
X232240Y230566D01*
X232230Y230591D01*
X232145Y230712D01*
X232065Y230837D01*
X232046Y230855D01*
X232031Y230877D01*
X231921Y230976D01*
X231814Y231079D01*
X231792Y231093D01*
X231772Y231110D01*
X231642Y231182D01*
X231515Y231258D01*
X231490Y231266D01*
X231467Y231279D01*
X231324Y231319D01*
X231183Y231364D01*
X231157Y231366D01*
X231132Y231374D01*
X230888Y231393D01*
X198021Y231393D01*
X197895Y231379D01*
X197769Y231372D01*
X197723Y231359D01*
X197675Y231353D01*
X197556Y231311D01*
X197434Y231276D01*
X197392Y231252D01*
X197346Y231236D01*
X197240Y231167D01*
X197130Y231106D01*
X197084Y231066D01*
X197054Y231047D01*
X197020Y231012D01*
X196944Y230947D01*
X195882Y229885D01*
X192738Y229885D01*
X190515Y232108D01*
X190515Y235252D01*
X192738Y237475D01*
X194072Y237475D01*
X194098Y237478D01*
X194124Y237476D01*
X194271Y237498D01*
X194418Y237515D01*
X194443Y237523D01*
X194469Y237527D01*
X194607Y237582D01*
X194746Y237632D01*
X194768Y237646D01*
X194793Y237656D01*
X194914Y237741D01*
X195039Y237821D01*
X195057Y237840D01*
X195079Y237855D01*
X195178Y237965D01*
X195281Y238072D01*
X195295Y238094D01*
X195312Y238114D01*
X195384Y238244D01*
X195460Y238371D01*
X195468Y238396D01*
X195481Y238419D01*
X195521Y238562D01*
X195566Y238703D01*
X195568Y238729D01*
X195576Y238754D01*
X195595Y238998D01*
X195595Y241602D01*
X197818Y243825D01*
X200962Y243825D01*
X202024Y242763D01*
X202123Y242684D01*
X202217Y242600D01*
X202259Y242576D01*
X202297Y242546D01*
X202411Y242492D01*
X202522Y242431D01*
X202568Y242418D01*
X202612Y242397D01*
X202735Y242371D01*
X202857Y242336D01*
X202918Y242331D01*
X202953Y242324D01*
X203001Y242325D01*
X203101Y242317D01*
X239056Y242317D01*
X239082Y242320D01*
X239108Y242318D01*
X239255Y242340D01*
X239402Y242357D01*
X239427Y242365D01*
X239453Y242369D01*
X239591Y242424D01*
X239730Y242474D01*
X239752Y242488D01*
X239777Y242498D01*
X239898Y242583D01*
X240023Y242663D01*
X240041Y242682D01*
X240063Y242697D01*
X240162Y242807D01*
X240265Y242914D01*
X240279Y242936D01*
X240296Y242956D01*
X240368Y243086D01*
X240444Y243213D01*
X240452Y243238D01*
X240465Y243261D01*
X240505Y243404D01*
X240550Y243545D01*
X240552Y243571D01*
X240560Y243596D01*
X240579Y243840D01*
X240579Y430216D01*
X240576Y430242D01*
X240578Y430268D01*
X240556Y430415D01*
X240539Y430562D01*
X240531Y430587D01*
X240527Y430613D01*
X240472Y430751D01*
X240422Y430890D01*
X240408Y430912D01*
X240398Y430937D01*
X240313Y431058D01*
X240233Y431183D01*
X240214Y431201D01*
X240199Y431223D01*
X240089Y431322D01*
X239982Y431425D01*
X239960Y431439D01*
X239940Y431456D01*
X239810Y431528D01*
X239683Y431604D01*
X239658Y431612D01*
X239635Y431625D01*
X239492Y431665D01*
X239351Y431710D01*
X239325Y431712D01*
X239300Y431720D01*
X239056Y431739D01*
X224783Y431739D01*
X224733Y431733D01*
X224683Y431736D01*
X224560Y431714D01*
X224437Y431699D01*
X224389Y431682D01*
X224340Y431673D01*
X224226Y431624D01*
X224109Y431582D01*
X224066Y431555D01*
X224020Y431534D01*
X223920Y431460D01*
X223816Y431393D01*
X223781Y431357D01*
X223740Y431326D01*
X223660Y431232D01*
X223574Y431142D01*
X223548Y431099D01*
X223515Y431060D01*
X223459Y430950D01*
X223395Y430843D01*
X223380Y430795D01*
X223357Y430750D01*
X223327Y430630D01*
X223289Y430511D01*
X223285Y430461D01*
X223273Y430412D01*
X223271Y430288D01*
X223261Y430164D01*
X223268Y430114D01*
X223268Y430063D01*
X223294Y429942D01*
X223313Y429819D01*
X223331Y429772D01*
X223342Y429723D01*
X223395Y429611D01*
X223441Y429495D01*
X223470Y429454D01*
X223492Y429408D01*
X223569Y429311D01*
X223640Y429209D01*
X223678Y429175D01*
X223709Y429136D01*
X223807Y429059D01*
X223899Y428976D01*
X223943Y428951D01*
X223983Y428920D01*
X224086Y428867D01*
X226918Y426035D01*
X228441Y422359D01*
X228441Y418381D01*
X226918Y414705D01*
X224105Y411892D01*
X220429Y410369D01*
X216451Y410369D01*
X212775Y411892D01*
X209962Y414705D01*
X208439Y418381D01*
X208439Y422359D01*
X209962Y426035D01*
X212788Y428861D01*
X212876Y428918D01*
X212984Y428978D01*
X213021Y429012D01*
X213064Y429039D01*
X213150Y429129D01*
X213242Y429212D01*
X213271Y429253D01*
X213306Y429290D01*
X213370Y429397D01*
X213441Y429499D01*
X213459Y429546D01*
X213485Y429589D01*
X213523Y429707D01*
X213568Y429823D01*
X213576Y429873D01*
X213591Y429921D01*
X213601Y430045D01*
X213619Y430168D01*
X213615Y430218D01*
X213619Y430268D01*
X213601Y430391D01*
X213590Y430515D01*
X213575Y430563D01*
X213567Y430613D01*
X213521Y430729D01*
X213483Y430847D01*
X213457Y430890D01*
X213439Y430937D01*
X213368Y431039D01*
X213304Y431145D01*
X213269Y431182D01*
X213240Y431223D01*
X213148Y431306D01*
X213061Y431395D01*
X213019Y431423D01*
X212981Y431456D01*
X212872Y431517D01*
X212768Y431584D01*
X212720Y431600D01*
X212676Y431625D01*
X212556Y431659D01*
X212439Y431700D01*
X212389Y431706D01*
X212341Y431720D01*
X212097Y431739D01*
X125562Y431739D01*
X125463Y431728D01*
X125362Y431726D01*
X125290Y431708D01*
X125216Y431699D01*
X125122Y431666D01*
X125024Y431641D01*
X124958Y431607D01*
X124888Y431582D01*
X124804Y431527D01*
X124714Y431481D01*
X124658Y431433D01*
X124595Y431393D01*
X124525Y431321D01*
X124449Y431256D01*
X124405Y431196D01*
X124353Y431142D01*
X124302Y431056D01*
X124242Y430975D01*
X124212Y430907D01*
X124174Y430843D01*
X124144Y430747D01*
X124104Y430655D01*
X124091Y430582D01*
X124068Y430511D01*
X124060Y430411D01*
X124042Y430312D01*
X124046Y430238D01*
X124040Y430164D01*
X124055Y430064D01*
X124060Y429964D01*
X124081Y429893D01*
X124092Y429819D01*
X124129Y429726D01*
X124157Y429629D01*
X124193Y429564D01*
X124220Y429495D01*
X124278Y429413D01*
X124327Y429325D01*
X124392Y429249D01*
X124419Y429209D01*
X124446Y429185D01*
X124485Y429139D01*
X125762Y427862D01*
X127365Y423993D01*
X127365Y419807D01*
X125762Y415938D01*
X122802Y412978D01*
X120829Y412160D01*
X120762Y412123D01*
X120691Y412095D01*
X120610Y412039D01*
X120524Y411991D01*
X120468Y411940D01*
X120405Y411896D01*
X120339Y411823D01*
X120266Y411757D01*
X120223Y411694D01*
X120172Y411637D01*
X120124Y411551D01*
X120068Y411470D01*
X120040Y411399D01*
X120003Y411332D01*
X119976Y411238D01*
X119940Y411146D01*
X119929Y411071D01*
X119908Y410997D01*
X119896Y410848D01*
X119889Y410801D01*
X119891Y410782D01*
X119889Y410753D01*
X119889Y398272D01*
X119892Y398246D01*
X119890Y398220D01*
X119912Y398073D01*
X119929Y397926D01*
X119937Y397901D01*
X119941Y397875D01*
X119996Y397737D01*
X120046Y397598D01*
X120060Y397576D01*
X120070Y397551D01*
X120155Y397430D01*
X120235Y397305D01*
X120254Y397287D01*
X120269Y397265D01*
X120379Y397166D01*
X120486Y397063D01*
X120508Y397049D01*
X120528Y397032D01*
X120658Y396960D01*
X120785Y396884D01*
X120810Y396876D01*
X120833Y396863D01*
X120976Y396823D01*
X121117Y396778D01*
X121143Y396776D01*
X121168Y396768D01*
X121412Y396749D01*
X130803Y396749D01*
X132589Y394963D01*
X132589Y390398D01*
X132592Y390372D01*
X132590Y390346D01*
X132612Y390199D01*
X132629Y390052D01*
X132637Y390027D01*
X132641Y390001D01*
X132696Y389863D01*
X132746Y389724D01*
X132760Y389702D01*
X132770Y389677D01*
X132855Y389556D01*
X132935Y389431D01*
X132954Y389413D01*
X132969Y389391D01*
X133079Y389292D01*
X133186Y389189D01*
X133208Y389175D01*
X133228Y389158D01*
X133358Y389086D01*
X133485Y389010D01*
X133510Y389002D01*
X133533Y388989D01*
X133676Y388949D01*
X133817Y388904D01*
X133843Y388902D01*
X133868Y388894D01*
X133970Y388886D01*
X134813Y388043D01*
X134833Y388027D01*
X134850Y388007D01*
X134970Y387919D01*
X135086Y387827D01*
X135110Y387816D01*
X135131Y387800D01*
X135267Y387741D01*
X135401Y387678D01*
X135427Y387672D01*
X135451Y387662D01*
X135597Y387636D01*
X135742Y387604D01*
X135768Y387605D01*
X135794Y387600D01*
X135942Y387608D01*
X136090Y387610D01*
X136116Y387617D01*
X136142Y387618D01*
X136284Y387659D01*
X136428Y387695D01*
X136451Y387707D01*
X136477Y387715D01*
X136606Y387787D01*
X136738Y387855D01*
X136758Y387872D01*
X136781Y387885D01*
X136967Y388043D01*
X137798Y388875D01*
X146682Y388875D01*
X147513Y388043D01*
X147533Y388027D01*
X147550Y388007D01*
X147670Y387919D01*
X147786Y387827D01*
X147810Y387816D01*
X147831Y387800D01*
X147967Y387741D01*
X148101Y387678D01*
X148127Y387672D01*
X148151Y387662D01*
X148297Y387636D01*
X148442Y387604D01*
X148468Y387605D01*
X148494Y387600D01*
X148642Y387608D01*
X148790Y387610D01*
X148816Y387617D01*
X148842Y387618D01*
X148984Y387659D01*
X149128Y387695D01*
X149151Y387707D01*
X149177Y387715D01*
X149306Y387787D01*
X149438Y387855D01*
X149458Y387872D01*
X149481Y387885D01*
X149667Y388043D01*
X150498Y388875D01*
X159382Y388875D01*
X160213Y388043D01*
X160233Y388027D01*
X160250Y388007D01*
X160370Y387919D01*
X160486Y387827D01*
X160510Y387816D01*
X160531Y387800D01*
X160667Y387741D01*
X160801Y387678D01*
X160827Y387672D01*
X160851Y387662D01*
X160997Y387636D01*
X161142Y387604D01*
X161168Y387605D01*
X161194Y387600D01*
X161342Y387608D01*
X161490Y387610D01*
X161516Y387617D01*
X161542Y387618D01*
X161684Y387659D01*
X161828Y387695D01*
X161851Y387707D01*
X161877Y387715D01*
X162006Y387787D01*
X162138Y387855D01*
X162158Y387872D01*
X162181Y387885D01*
X162367Y388043D01*
X163198Y388875D01*
X172082Y388875D01*
X172913Y388043D01*
X172933Y388027D01*
X172950Y388007D01*
X173070Y387919D01*
X173186Y387827D01*
X173210Y387816D01*
X173231Y387800D01*
X173367Y387741D01*
X173501Y387678D01*
X173527Y387672D01*
X173551Y387662D01*
X173697Y387636D01*
X173842Y387604D01*
X173868Y387605D01*
X173894Y387600D01*
X174042Y387608D01*
X174190Y387610D01*
X174216Y387617D01*
X174242Y387618D01*
X174384Y387659D01*
X174528Y387695D01*
X174551Y387707D01*
X174577Y387715D01*
X174706Y387787D01*
X174838Y387855D01*
X174858Y387872D01*
X174881Y387885D01*
X175067Y388043D01*
X175898Y388875D01*
X184782Y388875D01*
X185675Y387982D01*
X185675Y368938D01*
X184782Y368045D01*
X175898Y368045D01*
X175067Y368877D01*
X175047Y368893D01*
X175030Y368913D01*
X174910Y369001D01*
X174794Y369093D01*
X174770Y369104D01*
X174749Y369120D01*
X174613Y369179D01*
X174479Y369242D01*
X174453Y369248D01*
X174429Y369258D01*
X174283Y369284D01*
X174138Y369316D01*
X174112Y369315D01*
X174086Y369320D01*
X173938Y369312D01*
X173790Y369310D01*
X173764Y369303D01*
X173738Y369302D01*
X173596Y369261D01*
X173452Y369225D01*
X173429Y369213D01*
X173403Y369205D01*
X173274Y369133D01*
X173142Y369065D01*
X173122Y369048D01*
X173099Y369035D01*
X172913Y368877D01*
X172082Y368045D01*
X163198Y368045D01*
X162367Y368877D01*
X162347Y368893D01*
X162330Y368913D01*
X162210Y369001D01*
X162094Y369093D01*
X162070Y369104D01*
X162049Y369120D01*
X161913Y369179D01*
X161779Y369242D01*
X161753Y369248D01*
X161729Y369258D01*
X161583Y369284D01*
X161438Y369316D01*
X161412Y369315D01*
X161386Y369320D01*
X161238Y369312D01*
X161090Y369310D01*
X161064Y369303D01*
X161038Y369302D01*
X160896Y369261D01*
X160752Y369225D01*
X160729Y369213D01*
X160703Y369205D01*
X160574Y369133D01*
X160442Y369065D01*
X160422Y369048D01*
X160399Y369035D01*
X160213Y368877D01*
X159382Y368045D01*
X150498Y368045D01*
X149667Y368877D01*
X149647Y368893D01*
X149630Y368913D01*
X149510Y369001D01*
X149394Y369093D01*
X149370Y369104D01*
X149349Y369120D01*
X149213Y369179D01*
X149079Y369242D01*
X149053Y369248D01*
X149029Y369258D01*
X148883Y369284D01*
X148738Y369316D01*
X148712Y369315D01*
X148686Y369320D01*
X148538Y369312D01*
X148390Y369310D01*
X148364Y369303D01*
X148338Y369302D01*
X148196Y369261D01*
X148052Y369225D01*
X148029Y369213D01*
X148003Y369205D01*
X147874Y369133D01*
X147742Y369065D01*
X147722Y369048D01*
X147699Y369035D01*
X147513Y368877D01*
X146682Y368045D01*
X137798Y368045D01*
X136967Y368877D01*
X136947Y368893D01*
X136930Y368913D01*
X136810Y369001D01*
X136694Y369093D01*
X136670Y369104D01*
X136649Y369120D01*
X136513Y369179D01*
X136379Y369242D01*
X136353Y369248D01*
X136329Y369258D01*
X136183Y369284D01*
X136038Y369316D01*
X136012Y369315D01*
X135986Y369320D01*
X135838Y369312D01*
X135690Y369310D01*
X135664Y369303D01*
X135638Y369302D01*
X135496Y369261D01*
X135352Y369225D01*
X135329Y369213D01*
X135303Y369205D01*
X135174Y369133D01*
X135042Y369065D01*
X135022Y369048D01*
X134999Y369035D01*
X134813Y368877D01*
X133982Y368045D01*
X125098Y368045D01*
X124267Y368877D01*
X124247Y368893D01*
X124230Y368913D01*
X124110Y369001D01*
X123994Y369093D01*
X123970Y369104D01*
X123949Y369120D01*
X123813Y369179D01*
X123679Y369242D01*
X123653Y369248D01*
X123629Y369258D01*
X123483Y369284D01*
X123338Y369316D01*
X123312Y369315D01*
X123286Y369320D01*
X123138Y369312D01*
X122990Y369310D01*
X122964Y369303D01*
X122938Y369302D01*
X122796Y369261D01*
X122652Y369225D01*
X122629Y369213D01*
X122603Y369205D01*
X122474Y369133D01*
X122342Y369065D01*
X122322Y369048D01*
X122299Y369035D01*
X122113Y368877D01*
X121282Y368045D01*
X112398Y368045D01*
X111567Y368877D01*
X111547Y368893D01*
X111530Y368913D01*
X111410Y369001D01*
X111294Y369093D01*
X111270Y369104D01*
X111249Y369120D01*
X111113Y369179D01*
X110979Y369242D01*
X110953Y369248D01*
X110929Y369258D01*
X110783Y369284D01*
X110638Y369316D01*
X110612Y369315D01*
X110586Y369320D01*
X110438Y369312D01*
X110290Y369310D01*
X110264Y369303D01*
X110238Y369302D01*
X110096Y369261D01*
X109952Y369225D01*
X109929Y369213D01*
X109903Y369205D01*
X109774Y369133D01*
X109642Y369065D01*
X109622Y369048D01*
X109599Y369035D01*
X109413Y368877D01*
X108582Y368045D01*
X99698Y368045D01*
X98805Y368938D01*
X98805Y387982D01*
X98875Y388051D01*
X98937Y388129D01*
X99007Y388202D01*
X99045Y388266D01*
X99091Y388324D01*
X99134Y388415D01*
X99186Y388501D01*
X99208Y388572D01*
X99240Y388639D01*
X99261Y388737D01*
X99292Y388833D01*
X99298Y388907D01*
X99314Y388980D01*
X99312Y389080D01*
X99320Y389180D01*
X99309Y389254D01*
X99308Y389328D01*
X99283Y389426D01*
X99268Y389525D01*
X99241Y389594D01*
X99223Y389666D01*
X99177Y389755D01*
X99139Y389849D01*
X99097Y389910D01*
X99063Y389976D01*
X98998Y390052D01*
X98941Y390135D01*
X98885Y390185D01*
X98837Y390241D01*
X98756Y390301D01*
X98682Y390368D01*
X98617Y390404D01*
X98557Y390449D01*
X98465Y390488D01*
X98377Y390537D01*
X98305Y390557D01*
X98237Y390587D01*
X98138Y390604D01*
X98041Y390632D01*
X97941Y390640D01*
X97894Y390648D01*
X97858Y390646D01*
X97798Y390651D01*
X90794Y390651D01*
X90668Y390637D01*
X90542Y390630D01*
X90496Y390617D01*
X90448Y390611D01*
X90329Y390569D01*
X90207Y390534D01*
X90165Y390510D01*
X90119Y390494D01*
X90013Y390425D01*
X89903Y390364D01*
X89857Y390324D01*
X89827Y390305D01*
X89793Y390270D01*
X89717Y390205D01*
X39055Y339543D01*
X38976Y339444D01*
X38892Y339350D01*
X38868Y339308D01*
X38838Y339270D01*
X38784Y339156D01*
X38723Y339045D01*
X38710Y338999D01*
X38689Y338955D01*
X38663Y338832D01*
X38628Y338710D01*
X38623Y338649D01*
X38616Y338614D01*
X38617Y338566D01*
X38609Y338466D01*
X38609Y325529D01*
X38623Y325403D01*
X38630Y325277D01*
X38643Y325231D01*
X38649Y325183D01*
X38691Y325063D01*
X38726Y324942D01*
X38750Y324900D01*
X38766Y324854D01*
X38835Y324748D01*
X38896Y324638D01*
X38936Y324592D01*
X38955Y324562D01*
X38990Y324528D01*
X39055Y324452D01*
X39355Y324152D01*
X39355Y321008D01*
X37132Y318785D01*
X33988Y318785D01*
X31765Y321008D01*
X31765Y324152D01*
X32065Y324452D01*
X32144Y324551D01*
X32228Y324645D01*
X32252Y324687D01*
X32282Y324725D01*
X32336Y324839D01*
X32397Y324950D01*
X32410Y324996D01*
X32431Y325040D01*
X32457Y325163D01*
X32492Y325285D01*
X32497Y325346D01*
X32504Y325380D01*
X32503Y325428D01*
X32511Y325529D01*
X32511Y341623D01*
X87945Y397057D01*
X88024Y397156D01*
X88108Y397250D01*
X88132Y397292D01*
X88162Y397330D01*
X88216Y397444D01*
X88277Y397555D01*
X88290Y397601D01*
X88311Y397645D01*
X88337Y397768D01*
X88372Y397890D01*
X88377Y397951D01*
X88384Y397986D01*
X88383Y398034D01*
X88391Y398134D01*
X88391Y410753D01*
X88389Y410770D01*
X88390Y410784D01*
X88383Y410836D01*
X88384Y410905D01*
X88363Y411002D01*
X88351Y411099D01*
X88326Y411171D01*
X88309Y411246D01*
X88267Y411335D01*
X88234Y411427D01*
X88192Y411492D01*
X88160Y411561D01*
X88098Y411637D01*
X88045Y411720D01*
X87990Y411773D01*
X87942Y411833D01*
X87865Y411894D01*
X87794Y411962D01*
X87729Y412002D01*
X87669Y412049D01*
X87536Y412117D01*
X87495Y412141D01*
X87477Y412147D01*
X87451Y412160D01*
X85478Y412978D01*
X82518Y415938D01*
X80915Y419807D01*
X80915Y423993D01*
X82518Y427862D01*
X83795Y429139D01*
X83857Y429218D01*
X83927Y429290D01*
X83965Y429354D01*
X84011Y429412D01*
X84054Y429503D01*
X84106Y429589D01*
X84128Y429660D01*
X84160Y429727D01*
X84181Y429825D01*
X84212Y429921D01*
X84218Y429995D01*
X84234Y430068D01*
X84232Y430168D01*
X84240Y430268D01*
X84229Y430342D01*
X84228Y430416D01*
X84203Y430513D01*
X84188Y430613D01*
X84161Y430682D01*
X84143Y430754D01*
X84097Y430843D01*
X84060Y430937D01*
X84017Y430998D01*
X83983Y431064D01*
X83918Y431140D01*
X83861Y431223D01*
X83805Y431273D01*
X83757Y431329D01*
X83676Y431389D01*
X83602Y431456D01*
X83537Y431492D01*
X83477Y431537D01*
X83385Y431576D01*
X83297Y431625D01*
X83225Y431645D01*
X83157Y431675D01*
X83058Y431692D01*
X82961Y431720D01*
X82861Y431728D01*
X82814Y431736D01*
X82778Y431734D01*
X82718Y431739D01*
X79104Y431739D01*
X79078Y431736D01*
X79052Y431738D01*
X78905Y431716D01*
X78758Y431699D01*
X78733Y431691D01*
X78707Y431687D01*
X78569Y431632D01*
X78430Y431582D01*
X78408Y431568D01*
X78383Y431558D01*
X78262Y431473D01*
X78137Y431393D01*
X78119Y431374D01*
X78097Y431359D01*
X77998Y431249D01*
X77895Y431142D01*
X77881Y431120D01*
X77864Y431100D01*
X77792Y430970D01*
X77716Y430843D01*
X77708Y430818D01*
X77695Y430795D01*
X77655Y430652D01*
X77610Y430511D01*
X77608Y430485D01*
X77600Y430460D01*
X77581Y430216D01*
X77581Y424899D01*
X67516Y424899D01*
X67490Y424896D01*
X67464Y424898D01*
X67317Y424876D01*
X67170Y424859D01*
X67145Y424851D01*
X67119Y424847D01*
X66982Y424792D01*
X66842Y424742D01*
X66820Y424728D01*
X66795Y424718D01*
X66674Y424633D01*
X66549Y424553D01*
X66531Y424534D01*
X66509Y424519D01*
X66410Y424409D01*
X66307Y424302D01*
X66293Y424280D01*
X66276Y424260D01*
X66204Y424130D01*
X66128Y424003D01*
X66120Y423978D01*
X66107Y423955D01*
X66067Y423812D01*
X66042Y423736D01*
X66038Y423747D01*
X66034Y423773D01*
X65980Y423911D01*
X65930Y424050D01*
X65915Y424072D01*
X65906Y424097D01*
X65821Y424218D01*
X65741Y424343D01*
X65722Y424361D01*
X65707Y424383D01*
X65597Y424482D01*
X65490Y424585D01*
X65467Y424599D01*
X65448Y424616D01*
X65318Y424688D01*
X65191Y424764D01*
X65166Y424772D01*
X65143Y424785D01*
X65000Y424825D01*
X64859Y424870D01*
X64833Y424872D01*
X64808Y424880D01*
X64564Y424899D01*
X54499Y424899D01*
X54499Y430216D01*
X54496Y430242D01*
X54498Y430268D01*
X54476Y430415D01*
X54459Y430562D01*
X54451Y430587D01*
X54447Y430613D01*
X54392Y430751D01*
X54342Y430890D01*
X54328Y430912D01*
X54318Y430937D01*
X54233Y431058D01*
X54153Y431183D01*
X54134Y431201D01*
X54119Y431223D01*
X54009Y431322D01*
X53902Y431425D01*
X53880Y431439D01*
X53860Y431456D01*
X53730Y431528D01*
X53603Y431604D01*
X53578Y431612D01*
X53555Y431625D01*
X53412Y431665D01*
X53271Y431710D01*
X53245Y431712D01*
X53220Y431720D01*
X52976Y431739D01*
X49362Y431739D01*
X49263Y431728D01*
X49162Y431726D01*
X49090Y431708D01*
X49016Y431699D01*
X48922Y431666D01*
X48824Y431641D01*
X48758Y431607D01*
X48688Y431582D01*
X48604Y431527D01*
X48514Y431481D01*
X48458Y431433D01*
X48395Y431393D01*
X48325Y431321D01*
X48249Y431256D01*
X48205Y431196D01*
X48153Y431142D01*
X48102Y431056D01*
X48042Y430975D01*
X48012Y430907D01*
X47974Y430843D01*
X47944Y430747D01*
X47904Y430655D01*
X47891Y430582D01*
X47868Y430511D01*
X47860Y430411D01*
X47842Y430312D01*
X47846Y430238D01*
X47840Y430164D01*
X47855Y430064D01*
X47860Y429964D01*
X47881Y429893D01*
X47892Y429819D01*
X47929Y429726D01*
X47957Y429629D01*
X47993Y429564D01*
X48020Y429495D01*
X48078Y429413D01*
X48127Y429325D01*
X48192Y429249D01*
X48219Y429209D01*
X48246Y429185D01*
X48285Y429139D01*
X49562Y427862D01*
X51165Y423993D01*
X51165Y419807D01*
X49562Y415938D01*
X46419Y412795D01*
X46357Y412717D01*
X46287Y412644D01*
X46249Y412580D01*
X46203Y412522D01*
X46160Y412431D01*
X46108Y412345D01*
X46086Y412274D01*
X46054Y412207D01*
X46033Y412109D01*
X46002Y412013D01*
X45996Y411939D01*
X45980Y411866D01*
X45982Y411766D01*
X45974Y411666D01*
X45985Y411592D01*
X45986Y411518D01*
X46011Y411421D01*
X46026Y411321D01*
X46053Y411252D01*
X46071Y411180D01*
X46117Y411091D01*
X46154Y410997D01*
X46197Y410936D01*
X46231Y410870D01*
X46296Y410794D01*
X46353Y410711D01*
X46409Y410661D01*
X46457Y410605D01*
X46538Y410545D01*
X46612Y410478D01*
X46677Y410442D01*
X46737Y410397D01*
X46829Y410358D01*
X46917Y410309D01*
X46989Y410289D01*
X47057Y410259D01*
X47156Y410242D01*
X47253Y410214D01*
X47353Y410206D01*
X47400Y410198D01*
X47436Y410200D01*
X47496Y410195D01*
X51102Y410195D01*
X53325Y407972D01*
X53325Y404828D01*
X51102Y402605D01*
X47958Y402605D01*
X47150Y403413D01*
X47051Y403492D01*
X46957Y403576D01*
X46915Y403600D01*
X46877Y403630D01*
X46763Y403684D01*
X46652Y403745D01*
X46606Y403758D01*
X46562Y403779D01*
X46439Y403805D01*
X46317Y403840D01*
X46256Y403845D01*
X46221Y403852D01*
X46173Y403851D01*
X46073Y403859D01*
X25813Y403859D01*
X25688Y403845D01*
X25562Y403838D01*
X25515Y403825D01*
X25467Y403819D01*
X25348Y403777D01*
X25227Y403742D01*
X25185Y403718D01*
X25139Y403702D01*
X25033Y403633D01*
X24923Y403572D01*
X24876Y403532D01*
X24846Y403513D01*
X24813Y403478D01*
X24736Y403413D01*
X23797Y402474D01*
X23750Y402414D01*
X23695Y402361D01*
X23642Y402278D01*
X23581Y402201D01*
X23548Y402132D01*
X23507Y402068D01*
X23474Y401975D01*
X23432Y401886D01*
X23416Y401812D01*
X23390Y401739D01*
X23379Y401641D01*
X23358Y401545D01*
X23360Y401469D01*
X23351Y401393D01*
X23363Y401295D01*
X23364Y401197D01*
X23383Y401123D01*
X23392Y401047D01*
X23438Y400905D01*
X23449Y400859D01*
X23458Y400842D01*
X23467Y400814D01*
X24495Y398333D01*
X24495Y394147D01*
X22892Y390278D01*
X19932Y387318D01*
X16063Y385715D01*
X11877Y385715D01*
X8008Y387318D01*
X5101Y390225D01*
X5023Y390287D01*
X4950Y390357D01*
X4886Y390395D01*
X4828Y390441D01*
X4737Y390484D01*
X4651Y390536D01*
X4580Y390558D01*
X4513Y390590D01*
X4415Y390611D01*
X4319Y390642D01*
X4245Y390648D01*
X4172Y390664D01*
X4072Y390662D01*
X3972Y390670D01*
X3898Y390659D01*
X3824Y390658D01*
X3727Y390633D01*
X3627Y390618D01*
X3558Y390591D01*
X3486Y390573D01*
X3397Y390527D01*
X3303Y390490D01*
X3242Y390447D01*
X3176Y390413D01*
X3100Y390348D01*
X3017Y390291D01*
X2967Y390235D01*
X2911Y390187D01*
X2851Y390106D01*
X2784Y390032D01*
X2748Y389967D01*
X2703Y389907D01*
X2664Y389815D01*
X2615Y389727D01*
X2595Y389655D01*
X2565Y389587D01*
X2548Y389488D01*
X2520Y389391D01*
X2512Y389291D01*
X2504Y389244D01*
X2506Y389208D01*
X2501Y389148D01*
X2501Y377932D01*
X2512Y377833D01*
X2514Y377732D01*
X2532Y377660D01*
X2541Y377586D01*
X2574Y377492D01*
X2599Y377394D01*
X2633Y377328D01*
X2658Y377258D01*
X2713Y377174D01*
X2759Y377084D01*
X2807Y377028D01*
X2847Y376965D01*
X2919Y376895D01*
X2984Y376819D01*
X3044Y376775D01*
X3098Y376723D01*
X3184Y376672D01*
X3265Y376612D01*
X3333Y376582D01*
X3397Y376544D01*
X3493Y376514D01*
X3585Y376474D01*
X3658Y376461D01*
X3729Y376438D01*
X3829Y376430D01*
X3928Y376412D01*
X4002Y376416D01*
X4076Y376410D01*
X4176Y376425D01*
X4276Y376430D01*
X4347Y376451D01*
X4421Y376462D01*
X4514Y376499D01*
X4611Y376527D01*
X4676Y376563D01*
X4745Y376590D01*
X4827Y376648D01*
X4915Y376697D01*
X4991Y376762D01*
X5031Y376789D01*
X5055Y376816D01*
X5101Y376855D01*
X8008Y379762D01*
X11877Y381365D01*
X16063Y381365D01*
X19932Y379762D01*
X22892Y376802D01*
X24495Y372933D01*
X24495Y368747D01*
X22892Y364878D01*
X19932Y361918D01*
X16063Y360315D01*
X11877Y360315D01*
X8008Y361918D01*
X5101Y364825D01*
X5023Y364887D01*
X4950Y364957D01*
X4886Y364995D01*
X4828Y365041D01*
X4737Y365084D01*
X4651Y365136D01*
X4580Y365158D01*
X4513Y365190D01*
X4415Y365211D01*
X4319Y365242D01*
X4245Y365248D01*
X4172Y365264D01*
X4072Y365262D01*
X3972Y365270D01*
X3898Y365259D01*
X3824Y365258D01*
X3727Y365233D01*
X3627Y365218D01*
X3558Y365191D01*
X3486Y365173D01*
X3397Y365127D01*
X3303Y365090D01*
X3242Y365047D01*
X3176Y365013D01*
X3100Y364948D01*
X3017Y364891D01*
X2967Y364835D01*
X2911Y364787D01*
X2851Y364706D01*
X2784Y364632D01*
X2748Y364567D01*
X2703Y364507D01*
X2664Y364415D01*
X2615Y364327D01*
X2595Y364255D01*
X2565Y364187D01*
X2548Y364088D01*
X2520Y363991D01*
X2512Y363891D01*
X2504Y363844D01*
X2506Y363808D01*
X2501Y363748D01*
X2501Y352532D01*
X2512Y352433D01*
X2514Y352332D01*
X2532Y352260D01*
X2541Y352186D01*
X2574Y352092D01*
X2599Y351994D01*
X2633Y351928D01*
X2658Y351858D01*
X2713Y351774D01*
X2759Y351684D01*
X2807Y351628D01*
X2847Y351565D01*
X2919Y351495D01*
X2984Y351419D01*
X3044Y351375D01*
X3098Y351323D01*
X3184Y351272D01*
X3265Y351212D01*
X3333Y351182D01*
X3397Y351144D01*
X3493Y351114D01*
X3585Y351074D01*
X3658Y351061D01*
X3729Y351038D01*
X3829Y351030D01*
X3928Y351012D01*
X4002Y351016D01*
X4076Y351010D01*
X4176Y351025D01*
X4276Y351030D01*
X4347Y351051D01*
X4421Y351062D01*
X4514Y351099D01*
X4611Y351127D01*
X4676Y351163D01*
X4745Y351190D01*
X4827Y351248D01*
X4915Y351297D01*
X4991Y351362D01*
X5031Y351389D01*
X5055Y351416D01*
X5101Y351455D01*
X8008Y354362D01*
X11877Y355965D01*
X16063Y355965D01*
X19932Y354362D01*
X22892Y351402D01*
X24495Y347533D01*
X24495Y343347D01*
X22892Y339478D01*
X19932Y336518D01*
X16063Y334915D01*
X11877Y334915D01*
X8008Y336518D01*
X5101Y339425D01*
X5023Y339487D01*
X4950Y339557D01*
X4886Y339595D01*
X4828Y339641D01*
X4737Y339684D01*
X4651Y339736D01*
X4580Y339758D01*
X4513Y339790D01*
X4415Y339811D01*
X4319Y339842D01*
X4245Y339848D01*
X4172Y339864D01*
X4072Y339862D01*
X3972Y339870D01*
X3898Y339859D01*
X3824Y339858D01*
X3727Y339833D01*
X3627Y339818D01*
X3558Y339791D01*
X3486Y339773D01*
X3397Y339727D01*
X3303Y339690D01*
X3242Y339647D01*
X3176Y339613D01*
X3100Y339548D01*
X3017Y339491D01*
X2967Y339435D01*
X2911Y339387D01*
X2851Y339306D01*
X2784Y339232D01*
X2748Y339167D01*
X2703Y339107D01*
X2664Y339015D01*
X2615Y338927D01*
X2595Y338855D01*
X2565Y338787D01*
X2548Y338688D01*
X2520Y338591D01*
X2512Y338491D01*
X2504Y338444D01*
X2506Y338408D01*
X2501Y338348D01*
X2501Y332994D01*
X2507Y332943D01*
X2504Y332892D01*
X2526Y332771D01*
X2541Y332648D01*
X2558Y332600D01*
X2567Y332549D01*
X2616Y332436D01*
X2658Y332320D01*
X2686Y332277D01*
X2706Y332230D01*
X2780Y332131D01*
X2847Y332027D01*
X2884Y331991D01*
X2914Y331950D01*
X3009Y331871D01*
X3098Y331785D01*
X3142Y331758D01*
X3181Y331725D01*
X3291Y331669D01*
X3397Y331606D01*
X3445Y331590D01*
X3491Y331567D01*
X3611Y331537D01*
X3729Y331499D01*
X3780Y331495D01*
X3829Y331483D01*
X3953Y331481D01*
X4076Y331472D01*
X4127Y331479D01*
X4178Y331478D01*
X4418Y331523D01*
X4636Y331581D01*
X10971Y331581D01*
X10971Y321516D01*
X10974Y321490D01*
X10972Y321464D01*
X10994Y321317D01*
X11011Y321170D01*
X11019Y321145D01*
X11023Y321119D01*
X11078Y320982D01*
X11128Y320842D01*
X11142Y320820D01*
X11152Y320795D01*
X11237Y320674D01*
X11317Y320549D01*
X11336Y320531D01*
X11351Y320509D01*
X11461Y320410D01*
X11568Y320307D01*
X11590Y320293D01*
X11610Y320276D01*
X11740Y320204D01*
X11867Y320128D01*
X11892Y320120D01*
X11915Y320107D01*
X12058Y320067D01*
X12134Y320042D01*
X12123Y320038D01*
X12097Y320034D01*
X11959Y319980D01*
X11820Y319930D01*
X11798Y319915D01*
X11773Y319906D01*
X11652Y319821D01*
X11527Y319741D01*
X11509Y319722D01*
X11487Y319707D01*
X11388Y319597D01*
X11285Y319490D01*
X11271Y319467D01*
X11254Y319448D01*
X11182Y319318D01*
X11106Y319191D01*
X11098Y319166D01*
X11085Y319143D01*
X11045Y319000D01*
X11000Y318859D01*
X10997Y318833D01*
X10990Y318808D01*
X10971Y318564D01*
X10971Y308499D01*
X4636Y308499D01*
X4418Y308557D01*
X4368Y308565D01*
X4319Y308581D01*
X4196Y308590D01*
X4074Y308609D01*
X4023Y308604D01*
X3972Y308608D01*
X3849Y308590D01*
X3726Y308580D01*
X3678Y308564D01*
X3627Y308557D01*
X3512Y308511D01*
X3394Y308473D01*
X3351Y308447D01*
X3303Y308428D01*
X3202Y308357D01*
X3096Y308294D01*
X3059Y308258D01*
X3017Y308229D01*
X2934Y308137D01*
X2845Y308051D01*
X2818Y308008D01*
X2784Y307970D01*
X2724Y307862D01*
X2657Y307758D01*
X2640Y307710D01*
X2615Y307665D01*
X2582Y307546D01*
X2540Y307430D01*
X2534Y307379D01*
X2520Y307330D01*
X2501Y307086D01*
X2501Y36265D01*
X2506Y36215D01*
X2504Y36165D01*
X2526Y36042D01*
X2541Y35919D01*
X2558Y35871D01*
X2567Y35822D01*
X2616Y35708D01*
X2658Y35591D01*
X2685Y35548D01*
X2705Y35502D01*
X2780Y35402D01*
X2847Y35298D01*
X2883Y35263D01*
X2913Y35222D01*
X3008Y35142D01*
X3098Y35056D01*
X3141Y35030D01*
X3179Y34997D01*
X3290Y34941D01*
X3397Y34877D01*
X3445Y34861D01*
X3490Y34838D01*
X3610Y34808D01*
X3729Y34771D01*
X3779Y34766D01*
X3828Y34754D01*
X3952Y34753D01*
X4076Y34743D01*
X4126Y34750D01*
G37*
G36*
X148792Y20766D02*
X148792Y20766D01*
X148940Y20768D01*
X148966Y20775D01*
X148992Y20776D01*
X149134Y20817D01*
X149278Y20853D01*
X149301Y20865D01*
X149327Y20873D01*
X149456Y20945D01*
X149588Y21013D01*
X149608Y21030D01*
X149631Y21043D01*
X149719Y21118D01*
X149732Y21126D01*
X149745Y21140D01*
X149817Y21201D01*
X152778Y24162D01*
X154919Y25049D01*
X155051Y25122D01*
X155184Y25191D01*
X155203Y25207D01*
X155224Y25219D01*
X155335Y25319D01*
X155450Y25417D01*
X155464Y25436D01*
X155482Y25453D01*
X155567Y25576D01*
X155657Y25697D01*
X155666Y25719D01*
X155680Y25739D01*
X155735Y25879D01*
X155795Y26017D01*
X155799Y26041D01*
X155808Y26064D01*
X155830Y26212D01*
X155856Y26360D01*
X155855Y26384D01*
X155859Y26408D01*
X155846Y26559D01*
X155838Y26708D01*
X155832Y26731D01*
X155830Y26756D01*
X155783Y26899D01*
X155742Y27043D01*
X155730Y27064D01*
X155723Y27087D01*
X155645Y27216D01*
X155572Y27347D01*
X155553Y27370D01*
X155543Y27386D01*
X155510Y27420D01*
X155413Y27534D01*
X151318Y31629D01*
X151219Y31708D01*
X151125Y31792D01*
X151083Y31816D01*
X151045Y31846D01*
X150931Y31900D01*
X150820Y31961D01*
X150773Y31974D01*
X150730Y31995D01*
X150606Y32021D01*
X150484Y32056D01*
X150424Y32061D01*
X150389Y32068D01*
X150341Y32067D01*
X150241Y32075D01*
X144308Y32075D01*
X143415Y32968D01*
X143415Y42716D01*
X143404Y42816D01*
X143402Y42916D01*
X143384Y42989D01*
X143375Y43062D01*
X143342Y43157D01*
X143317Y43254D01*
X143283Y43321D01*
X143258Y43391D01*
X143208Y43468D01*
X143254Y43470D01*
X143325Y43491D01*
X143399Y43502D01*
X143492Y43539D01*
X143589Y43567D01*
X143654Y43603D01*
X143723Y43630D01*
X143805Y43688D01*
X143893Y43737D01*
X143969Y43802D01*
X144009Y43829D01*
X144033Y43856D01*
X144079Y43895D01*
X144308Y44125D01*
X146002Y44125D01*
X146102Y44136D01*
X146203Y44138D01*
X146275Y44156D01*
X146349Y44165D01*
X146443Y44199D01*
X146541Y44223D01*
X146607Y44257D01*
X146677Y44282D01*
X146761Y44337D01*
X146850Y44383D01*
X146907Y44431D01*
X146970Y44471D01*
X147039Y44543D01*
X147116Y44608D01*
X147160Y44668D01*
X147212Y44722D01*
X147263Y44808D01*
X147323Y44889D01*
X147352Y44957D01*
X147391Y45021D01*
X147421Y45116D01*
X147461Y45209D01*
X147474Y45282D01*
X147497Y45353D01*
X147505Y45453D01*
X147523Y45552D01*
X147519Y45626D01*
X147525Y45700D01*
X147510Y45800D01*
X147505Y45900D01*
X147484Y45971D01*
X147473Y46045D01*
X147436Y46138D01*
X147408Y46235D01*
X147372Y46300D01*
X147344Y46369D01*
X147287Y46451D01*
X147238Y46539D01*
X147173Y46615D01*
X147145Y46655D01*
X147119Y46679D01*
X147080Y46725D01*
X146557Y47247D01*
X146557Y70609D01*
X147450Y71502D01*
X154810Y71502D01*
X155703Y70609D01*
X155703Y47247D01*
X154730Y46275D01*
X154659Y46247D01*
X154520Y46197D01*
X154498Y46183D01*
X154473Y46173D01*
X154352Y46088D01*
X154227Y46008D01*
X154209Y45989D01*
X154187Y45974D01*
X154088Y45864D01*
X153985Y45757D01*
X153971Y45735D01*
X153954Y45715D01*
X153882Y45585D01*
X153806Y45458D01*
X153798Y45433D01*
X153785Y45410D01*
X153745Y45267D01*
X153700Y45126D01*
X153697Y45100D01*
X153690Y45075D01*
X153671Y44831D01*
X153671Y44164D01*
X153682Y44065D01*
X153684Y43964D01*
X153702Y43892D01*
X153711Y43818D01*
X153744Y43724D01*
X153769Y43626D01*
X153803Y43560D01*
X153828Y43490D01*
X153883Y43406D01*
X153929Y43316D01*
X153977Y43260D01*
X154017Y43197D01*
X154089Y43128D01*
X154154Y43051D01*
X154214Y43007D01*
X154268Y42955D01*
X154354Y42904D01*
X154435Y42844D01*
X154503Y42814D01*
X154567Y42776D01*
X154662Y42746D01*
X154755Y42706D01*
X154828Y42693D01*
X154899Y42670D01*
X154999Y42662D01*
X155098Y42644D01*
X155172Y42648D01*
X155246Y42642D01*
X155345Y42657D01*
X155446Y42662D01*
X155517Y42683D01*
X155591Y42694D01*
X155684Y42731D01*
X155781Y42759D01*
X155846Y42795D01*
X155915Y42822D01*
X155997Y42880D01*
X156085Y42929D01*
X156161Y42994D01*
X156201Y43021D01*
X156225Y43048D01*
X156271Y43087D01*
X157308Y44125D01*
X158702Y44125D01*
X158802Y44136D01*
X158903Y44138D01*
X158975Y44156D01*
X159049Y44165D01*
X159143Y44199D01*
X159241Y44223D01*
X159307Y44257D01*
X159377Y44282D01*
X159461Y44337D01*
X159550Y44383D01*
X159607Y44431D01*
X159670Y44471D01*
X159739Y44543D01*
X159816Y44608D01*
X159860Y44668D01*
X159912Y44722D01*
X159963Y44808D01*
X160023Y44889D01*
X160052Y44957D01*
X160091Y45021D01*
X160121Y45116D01*
X160161Y45209D01*
X160174Y45282D01*
X160197Y45353D01*
X160205Y45453D01*
X160223Y45552D01*
X160219Y45626D01*
X160225Y45700D01*
X160210Y45800D01*
X160205Y45900D01*
X160184Y45971D01*
X160173Y46045D01*
X160136Y46138D01*
X160108Y46235D01*
X160072Y46300D01*
X160044Y46369D01*
X159987Y46451D01*
X159938Y46539D01*
X159873Y46615D01*
X159845Y46655D01*
X159819Y46679D01*
X159780Y46725D01*
X159257Y47247D01*
X159257Y70609D01*
X160150Y71502D01*
X167510Y71502D01*
X168602Y70409D01*
X168661Y70362D01*
X168714Y70308D01*
X168797Y70254D01*
X168875Y70193D01*
X168943Y70160D01*
X169007Y70119D01*
X169100Y70086D01*
X169190Y70044D01*
X169264Y70028D01*
X169335Y70002D01*
X169434Y69991D01*
X169531Y69970D01*
X169606Y69972D01*
X169682Y69963D01*
X169780Y69975D01*
X169879Y69976D01*
X169953Y69995D01*
X170028Y70004D01*
X170121Y70037D01*
X170217Y70061D01*
X170284Y70096D01*
X170356Y70122D01*
X170439Y70176D01*
X170527Y70221D01*
X170585Y70270D01*
X170648Y70311D01*
X170717Y70383D01*
X170792Y70447D01*
X170837Y70508D01*
X170890Y70562D01*
X170941Y70647D01*
X171000Y70727D01*
X171030Y70797D01*
X171068Y70862D01*
X171083Y70904D01*
X171449Y71537D01*
X171922Y72010D01*
X172501Y72345D01*
X173147Y72518D01*
X175007Y72518D01*
X175007Y58928D01*
X175007Y45338D01*
X173147Y45338D01*
X172501Y45511D01*
X171922Y45846D01*
X171449Y46319D01*
X171064Y46986D01*
X171059Y46996D01*
X171022Y47088D01*
X170979Y47150D01*
X170944Y47218D01*
X170880Y47293D01*
X170824Y47374D01*
X170768Y47425D01*
X170719Y47483D01*
X170639Y47542D01*
X170566Y47608D01*
X170499Y47645D01*
X170438Y47690D01*
X170347Y47729D01*
X170261Y47777D01*
X170188Y47798D01*
X170118Y47828D01*
X170021Y47846D01*
X169926Y47873D01*
X169850Y47876D01*
X169775Y47890D01*
X169676Y47885D01*
X169577Y47889D01*
X169503Y47876D01*
X169427Y47872D01*
X169332Y47844D01*
X169235Y47827D01*
X169165Y47796D01*
X169092Y47775D01*
X169006Y47727D01*
X168915Y47687D01*
X168854Y47642D01*
X168788Y47605D01*
X168673Y47507D01*
X168636Y47479D01*
X168624Y47465D01*
X168602Y47447D01*
X167430Y46275D01*
X167359Y46247D01*
X167220Y46197D01*
X167198Y46183D01*
X167173Y46173D01*
X167052Y46088D01*
X166927Y46008D01*
X166909Y45989D01*
X166887Y45974D01*
X166788Y45864D01*
X166685Y45757D01*
X166671Y45735D01*
X166654Y45715D01*
X166582Y45585D01*
X166506Y45458D01*
X166498Y45433D01*
X166485Y45410D01*
X166445Y45267D01*
X166400Y45126D01*
X166397Y45100D01*
X166390Y45075D01*
X166371Y44831D01*
X166371Y43957D01*
X166385Y43831D01*
X166392Y43705D01*
X166405Y43658D01*
X166411Y43610D01*
X166453Y43491D01*
X166465Y43451D01*
X166465Y37299D01*
X166479Y37174D01*
X166486Y37048D01*
X166499Y37001D01*
X166505Y36953D01*
X166547Y36834D01*
X166582Y36713D01*
X166606Y36671D01*
X166622Y36625D01*
X166691Y36519D01*
X166752Y36409D01*
X166792Y36362D01*
X166811Y36332D01*
X166846Y36299D01*
X166911Y36222D01*
X176922Y26211D01*
X177021Y26132D01*
X177115Y26048D01*
X177157Y26024D01*
X177195Y25994D01*
X177309Y25940D01*
X177420Y25879D01*
X177467Y25866D01*
X177510Y25845D01*
X177634Y25819D01*
X177756Y25784D01*
X177816Y25779D01*
X177851Y25772D01*
X177899Y25773D01*
X177999Y25765D01*
X180833Y25765D01*
X184702Y24162D01*
X185613Y23251D01*
X185692Y23189D01*
X185764Y23119D01*
X185828Y23081D01*
X185886Y23035D01*
X185977Y22992D01*
X186063Y22940D01*
X186134Y22918D01*
X186201Y22886D01*
X186299Y22865D01*
X186395Y22834D01*
X186469Y22828D01*
X186542Y22812D01*
X186642Y22814D01*
X186742Y22806D01*
X186816Y22817D01*
X186890Y22818D01*
X186987Y22843D01*
X187087Y22858D01*
X187156Y22885D01*
X187228Y22903D01*
X187317Y22949D01*
X187411Y22986D01*
X187472Y23029D01*
X187538Y23063D01*
X187614Y23128D01*
X187697Y23185D01*
X187747Y23241D01*
X187803Y23289D01*
X187863Y23370D01*
X187930Y23444D01*
X187966Y23509D01*
X188011Y23569D01*
X188050Y23661D01*
X188099Y23749D01*
X188119Y23821D01*
X188149Y23889D01*
X188166Y23988D01*
X188194Y24085D01*
X188202Y24185D01*
X188210Y24232D01*
X188208Y24268D01*
X188213Y24328D01*
X188213Y64447D01*
X202579Y78813D01*
X202658Y78912D01*
X202742Y79006D01*
X202766Y79048D01*
X202796Y79086D01*
X202850Y79200D01*
X202911Y79311D01*
X202924Y79358D01*
X202945Y79401D01*
X202971Y79525D01*
X203006Y79646D01*
X203011Y79707D01*
X203018Y79742D01*
X203017Y79790D01*
X203025Y79890D01*
X203025Y86532D01*
X204317Y87823D01*
X204333Y87843D01*
X204353Y87860D01*
X204441Y87980D01*
X204533Y88096D01*
X204544Y88120D01*
X204560Y88141D01*
X204619Y88277D01*
X204682Y88411D01*
X204688Y88437D01*
X204698Y88461D01*
X204724Y88607D01*
X204756Y88752D01*
X204755Y88778D01*
X204760Y88804D01*
X204752Y88952D01*
X204750Y89100D01*
X204743Y89126D01*
X204742Y89152D01*
X204701Y89294D01*
X204665Y89438D01*
X204653Y89461D01*
X204645Y89487D01*
X204573Y89616D01*
X204505Y89748D01*
X204488Y89768D01*
X204475Y89791D01*
X204317Y89977D01*
X203025Y91268D01*
X203025Y103532D01*
X203918Y104425D01*
X212710Y104425D01*
X212835Y104439D01*
X212962Y104446D01*
X213008Y104459D01*
X213056Y104465D01*
X213175Y104507D01*
X213297Y104542D01*
X213339Y104566D01*
X213384Y104582D01*
X213490Y104651D01*
X213601Y104712D01*
X213647Y104752D01*
X213677Y104771D01*
X213711Y104806D01*
X213787Y104871D01*
X231965Y123049D01*
X232044Y123148D01*
X232128Y123242D01*
X232152Y123284D01*
X232182Y123322D01*
X232236Y123436D01*
X232297Y123547D01*
X232310Y123594D01*
X232331Y123637D01*
X232357Y123761D01*
X232392Y123882D01*
X232397Y123943D01*
X232404Y123978D01*
X232403Y124026D01*
X232411Y124126D01*
X232411Y145897D01*
X232400Y145997D01*
X232398Y146097D01*
X232380Y146170D01*
X232371Y146243D01*
X232338Y146338D01*
X232313Y146435D01*
X232279Y146502D01*
X232254Y146572D01*
X232199Y146656D01*
X232153Y146745D01*
X232105Y146802D01*
X232065Y146864D01*
X231993Y146934D01*
X231928Y147011D01*
X231868Y147055D01*
X231814Y147107D01*
X231728Y147158D01*
X231647Y147218D01*
X231579Y147247D01*
X231515Y147285D01*
X231419Y147316D01*
X231327Y147356D01*
X231254Y147369D01*
X231183Y147392D01*
X231083Y147400D01*
X230984Y147417D01*
X230910Y147414D01*
X230836Y147420D01*
X230736Y147405D01*
X230636Y147400D01*
X230565Y147379D01*
X230491Y147368D01*
X230398Y147331D01*
X230301Y147303D01*
X230236Y147267D01*
X230167Y147239D01*
X230085Y147182D01*
X229997Y147133D01*
X229921Y147068D01*
X229881Y147040D01*
X229857Y147014D01*
X229811Y146974D01*
X228902Y146065D01*
X225758Y146065D01*
X223535Y148288D01*
X223535Y148712D01*
X223521Y148838D01*
X223514Y148964D01*
X223501Y149010D01*
X223495Y149058D01*
X223453Y149177D01*
X223418Y149299D01*
X223394Y149341D01*
X223378Y149387D01*
X223309Y149493D01*
X223248Y149603D01*
X223208Y149649D01*
X223189Y149679D01*
X223154Y149713D01*
X223148Y149720D01*
X223134Y149740D01*
X223121Y149752D01*
X223089Y149789D01*
X199959Y172919D01*
X199881Y172982D01*
X199808Y173052D01*
X199744Y173090D01*
X199686Y173136D01*
X199595Y173179D01*
X199509Y173230D01*
X199438Y173253D01*
X199371Y173285D01*
X199273Y173306D01*
X199177Y173337D01*
X199103Y173343D01*
X199030Y173358D01*
X198930Y173357D01*
X198830Y173365D01*
X198756Y173354D01*
X198682Y173352D01*
X198585Y173328D01*
X198485Y173313D01*
X198416Y173285D01*
X198344Y173267D01*
X198254Y173221D01*
X198161Y173184D01*
X198100Y173142D01*
X198034Y173108D01*
X197957Y173042D01*
X197875Y172985D01*
X197825Y172930D01*
X197769Y172882D01*
X197709Y172801D01*
X197642Y172726D01*
X197606Y172661D01*
X197561Y172602D01*
X197522Y172509D01*
X197473Y172421D01*
X197453Y172350D01*
X197423Y172282D01*
X197406Y172183D01*
X197378Y172086D01*
X197370Y171986D01*
X197362Y171939D01*
X197364Y171903D01*
X197359Y171842D01*
X197359Y163837D01*
X180079Y146557D01*
X157850Y146557D01*
X157724Y146543D01*
X157598Y146536D01*
X157552Y146523D01*
X157504Y146517D01*
X157385Y146475D01*
X157263Y146440D01*
X157221Y146416D01*
X157175Y146400D01*
X157069Y146331D01*
X156959Y146270D01*
X156913Y146230D01*
X156883Y146211D01*
X156849Y146176D01*
X156773Y146111D01*
X138115Y127453D01*
X137088Y126426D01*
X137025Y126347D01*
X136955Y126275D01*
X136917Y126211D01*
X136871Y126153D01*
X136828Y126062D01*
X136777Y125976D01*
X136754Y125905D01*
X136722Y125838D01*
X136701Y125740D01*
X136670Y125644D01*
X136664Y125570D01*
X136649Y125497D01*
X136650Y125397D01*
X136642Y125297D01*
X136653Y125223D01*
X136655Y125149D01*
X136679Y125052D01*
X136694Y124952D01*
X136722Y124883D01*
X136740Y124811D01*
X136786Y124722D01*
X136823Y124628D01*
X136865Y124567D01*
X136899Y124501D01*
X136964Y124425D01*
X137022Y124342D01*
X137077Y124292D01*
X137125Y124236D01*
X137206Y124176D01*
X137280Y124109D01*
X137346Y124073D01*
X137405Y124028D01*
X137498Y123989D01*
X137586Y123940D01*
X137657Y123920D01*
X137725Y123890D01*
X137824Y123873D01*
X137921Y123845D01*
X138021Y123837D01*
X138068Y123829D01*
X138104Y123831D01*
X138165Y123826D01*
X142110Y123826D01*
X143003Y122933D01*
X143003Y103791D01*
X143017Y103666D01*
X143024Y103540D01*
X143037Y103493D01*
X143043Y103445D01*
X143085Y103326D01*
X143120Y103205D01*
X143144Y103163D01*
X143160Y103117D01*
X143229Y103011D01*
X143290Y102901D01*
X143330Y102854D01*
X143349Y102824D01*
X143384Y102791D01*
X143449Y102714D01*
X143957Y102206D01*
X144035Y102144D01*
X144108Y102074D01*
X144172Y102036D01*
X144230Y101990D01*
X144321Y101947D01*
X144407Y101895D01*
X144478Y101873D01*
X144545Y101841D01*
X144643Y101820D01*
X144739Y101789D01*
X144813Y101783D01*
X144886Y101767D01*
X144986Y101769D01*
X145086Y101761D01*
X145160Y101772D01*
X145234Y101773D01*
X145332Y101798D01*
X145431Y101813D01*
X145500Y101840D01*
X145572Y101858D01*
X145661Y101904D01*
X145755Y101941D01*
X145816Y101984D01*
X145882Y102018D01*
X145958Y102083D01*
X146041Y102140D01*
X146091Y102195D01*
X146147Y102244D01*
X146207Y102325D01*
X146274Y102399D01*
X146310Y102464D01*
X146354Y102524D01*
X146394Y102616D01*
X146443Y102704D01*
X146463Y102776D01*
X146493Y102844D01*
X146510Y102943D01*
X146538Y103040D01*
X146546Y103140D01*
X146554Y103187D01*
X146552Y103223D01*
X146557Y103283D01*
X146557Y122933D01*
X147450Y123826D01*
X154810Y123826D01*
X155703Y122933D01*
X155703Y115316D01*
X155706Y115290D01*
X155704Y115264D01*
X155726Y115117D01*
X155743Y114970D01*
X155751Y114945D01*
X155755Y114919D01*
X155810Y114781D01*
X155860Y114642D01*
X155874Y114620D01*
X155884Y114595D01*
X155969Y114474D01*
X156049Y114349D01*
X156068Y114331D01*
X156083Y114309D01*
X156193Y114210D01*
X156300Y114107D01*
X156322Y114093D01*
X156342Y114076D01*
X156472Y114004D01*
X156599Y113928D01*
X156624Y113920D01*
X156647Y113907D01*
X156790Y113867D01*
X156931Y113822D01*
X156957Y113819D01*
X156982Y113812D01*
X157226Y113793D01*
X157734Y113793D01*
X157760Y113796D01*
X157786Y113794D01*
X157933Y113816D01*
X158080Y113833D01*
X158105Y113841D01*
X158131Y113845D01*
X158269Y113900D01*
X158408Y113950D01*
X158430Y113964D01*
X158455Y113974D01*
X158576Y114059D01*
X158701Y114139D01*
X158719Y114158D01*
X158741Y114173D01*
X158840Y114283D01*
X158943Y114390D01*
X158957Y114412D01*
X158974Y114432D01*
X159046Y114562D01*
X159122Y114689D01*
X159130Y114714D01*
X159143Y114737D01*
X159183Y114880D01*
X159228Y115021D01*
X159230Y115047D01*
X159238Y115072D01*
X159257Y115316D01*
X159257Y122933D01*
X160150Y123826D01*
X164052Y123826D01*
X164177Y123840D01*
X164303Y123847D01*
X164350Y123860D01*
X164398Y123866D01*
X164517Y123908D01*
X164638Y123943D01*
X164680Y123967D01*
X164726Y123983D01*
X164832Y124052D01*
X164942Y124113D01*
X164989Y124153D01*
X165019Y124172D01*
X165052Y124207D01*
X165129Y124272D01*
X183098Y142241D01*
X192822Y142241D01*
X198742Y136321D01*
X198841Y136242D01*
X198935Y136158D01*
X198977Y136134D01*
X199015Y136104D01*
X199129Y136050D01*
X199240Y135989D01*
X199287Y135976D01*
X199330Y135955D01*
X199454Y135929D01*
X199576Y135894D01*
X199636Y135889D01*
X199671Y135882D01*
X199719Y135883D01*
X199819Y135875D01*
X200962Y135875D01*
X203185Y133652D01*
X203185Y130508D01*
X200962Y128285D01*
X197818Y128285D01*
X195595Y130508D01*
X195595Y131651D01*
X195581Y131776D01*
X195574Y131902D01*
X195561Y131949D01*
X195555Y131997D01*
X195513Y132116D01*
X195478Y132237D01*
X195454Y132279D01*
X195438Y132325D01*
X195369Y132431D01*
X195308Y132541D01*
X195268Y132588D01*
X195249Y132618D01*
X195214Y132651D01*
X195149Y132728D01*
X195041Y132836D01*
X195020Y132853D01*
X195003Y132873D01*
X194884Y132961D01*
X194768Y133053D01*
X194744Y133064D01*
X194723Y133080D01*
X194587Y133138D01*
X194453Y133202D01*
X194427Y133207D01*
X194403Y133218D01*
X194257Y133244D01*
X194112Y133275D01*
X194086Y133275D01*
X194060Y133279D01*
X193912Y133272D01*
X193763Y133269D01*
X193738Y133263D01*
X193712Y133262D01*
X193569Y133220D01*
X193425Y133184D01*
X193402Y133172D01*
X193377Y133165D01*
X193247Y133093D01*
X193116Y133025D01*
X193096Y133008D01*
X193073Y132995D01*
X192886Y132836D01*
X190652Y130602D01*
X190275Y130602D01*
X190198Y130594D01*
X190120Y130595D01*
X190025Y130574D01*
X189928Y130562D01*
X189855Y130536D01*
X189780Y130520D01*
X189692Y130478D01*
X189600Y130445D01*
X189535Y130403D01*
X189465Y130370D01*
X189389Y130309D01*
X189307Y130256D01*
X189254Y130200D01*
X189193Y130152D01*
X189099Y130040D01*
X189065Y130005D01*
X189055Y129988D01*
X189035Y129965D01*
X181387Y119265D01*
X181386Y119264D01*
X181295Y119100D01*
X181218Y118960D01*
X181218Y118959D01*
X181217Y118959D01*
X181168Y118784D01*
X181123Y118625D01*
X181123Y118624D01*
X181122Y118623D01*
X181103Y118379D01*
X181103Y99571D01*
X180210Y98678D01*
X172850Y98678D01*
X171957Y99571D01*
X171957Y120237D01*
X171946Y120336D01*
X171944Y120437D01*
X171926Y120509D01*
X171917Y120583D01*
X171883Y120677D01*
X171859Y120775D01*
X171825Y120841D01*
X171800Y120911D01*
X171745Y120995D01*
X171699Y121085D01*
X171651Y121141D01*
X171611Y121204D01*
X171539Y121274D01*
X171474Y121350D01*
X171414Y121394D01*
X171360Y121446D01*
X171274Y121498D01*
X171193Y121557D01*
X171125Y121587D01*
X171061Y121625D01*
X170966Y121655D01*
X170873Y121695D01*
X170800Y121708D01*
X170729Y121731D01*
X170629Y121739D01*
X170530Y121757D01*
X170456Y121753D01*
X170382Y121759D01*
X170282Y121744D01*
X170182Y121739D01*
X170111Y121718D01*
X170037Y121707D01*
X169944Y121670D01*
X169847Y121642D01*
X169782Y121606D01*
X169713Y121579D01*
X169631Y121521D01*
X169543Y121472D01*
X169467Y121407D01*
X169427Y121380D01*
X169403Y121353D01*
X169357Y121314D01*
X168849Y120806D01*
X168770Y120707D01*
X168686Y120613D01*
X168662Y120571D01*
X168632Y120533D01*
X168578Y120418D01*
X168517Y120308D01*
X168504Y120261D01*
X168483Y120218D01*
X168457Y120094D01*
X168422Y119972D01*
X168417Y119912D01*
X168410Y119877D01*
X168411Y119829D01*
X168403Y119729D01*
X168403Y99571D01*
X167510Y98678D01*
X160150Y98678D01*
X159257Y99571D01*
X159257Y107188D01*
X159254Y107214D01*
X159256Y107240D01*
X159234Y107386D01*
X159217Y107534D01*
X159209Y107559D01*
X159205Y107585D01*
X159150Y107723D01*
X159100Y107862D01*
X159086Y107884D01*
X159076Y107909D01*
X158991Y108030D01*
X158911Y108155D01*
X158892Y108173D01*
X158877Y108195D01*
X158767Y108294D01*
X158660Y108397D01*
X158638Y108411D01*
X158618Y108428D01*
X158488Y108500D01*
X158361Y108576D01*
X158336Y108584D01*
X158313Y108597D01*
X158170Y108637D01*
X158029Y108682D01*
X158003Y108684D01*
X157978Y108692D01*
X157734Y108711D01*
X157226Y108711D01*
X157200Y108708D01*
X157174Y108710D01*
X157027Y108688D01*
X156880Y108671D01*
X156855Y108663D01*
X156829Y108659D01*
X156691Y108604D01*
X156552Y108554D01*
X156530Y108540D01*
X156505Y108530D01*
X156384Y108445D01*
X156259Y108365D01*
X156241Y108346D01*
X156219Y108331D01*
X156120Y108221D01*
X156017Y108114D01*
X156003Y108092D01*
X155986Y108072D01*
X155914Y107942D01*
X155838Y107815D01*
X155830Y107790D01*
X155817Y107767D01*
X155777Y107624D01*
X155732Y107483D01*
X155729Y107457D01*
X155722Y107432D01*
X155703Y107188D01*
X155703Y99571D01*
X154810Y98678D01*
X151162Y98678D01*
X151063Y98667D01*
X150962Y98665D01*
X150890Y98647D01*
X150816Y98638D01*
X150722Y98605D01*
X150624Y98580D01*
X150558Y98546D01*
X150488Y98521D01*
X150404Y98466D01*
X150314Y98420D01*
X150258Y98372D01*
X150195Y98332D01*
X150125Y98260D01*
X150049Y98194D01*
X150005Y98135D01*
X149953Y98081D01*
X149901Y97995D01*
X149842Y97914D01*
X149812Y97846D01*
X149774Y97782D01*
X149744Y97687D01*
X149704Y97594D01*
X149691Y97521D01*
X149668Y97450D01*
X149660Y97350D01*
X149642Y97251D01*
X149646Y97177D01*
X149640Y97103D01*
X149655Y97003D01*
X149660Y96903D01*
X149681Y96832D01*
X149692Y96758D01*
X149729Y96665D01*
X149757Y96568D01*
X149793Y96503D01*
X149820Y96434D01*
X149878Y96352D01*
X149927Y96264D01*
X149992Y96188D01*
X150019Y96148D01*
X150046Y96124D01*
X150085Y96078D01*
X150466Y95697D01*
X150565Y95618D01*
X150659Y95534D01*
X150702Y95510D01*
X150739Y95480D01*
X150853Y95426D01*
X150964Y95365D01*
X151011Y95352D01*
X151054Y95331D01*
X151178Y95305D01*
X151300Y95270D01*
X151360Y95265D01*
X151395Y95258D01*
X151443Y95259D01*
X151543Y95251D01*
X190819Y95251D01*
X190945Y95265D01*
X191071Y95272D01*
X191117Y95285D01*
X191165Y95291D01*
X191284Y95333D01*
X191406Y95368D01*
X191448Y95392D01*
X191493Y95408D01*
X191600Y95477D01*
X191710Y95538D01*
X191756Y95578D01*
X191786Y95597D01*
X191820Y95632D01*
X191896Y95697D01*
X192618Y96419D01*
X195762Y96419D01*
X197985Y94196D01*
X197985Y91052D01*
X195762Y88829D01*
X192618Y88829D01*
X191725Y89723D01*
X191626Y89802D01*
X191532Y89886D01*
X191489Y89910D01*
X191452Y89940D01*
X191337Y89994D01*
X191227Y90055D01*
X191180Y90068D01*
X191137Y90089D01*
X191013Y90115D01*
X190891Y90150D01*
X190831Y90155D01*
X190796Y90162D01*
X190748Y90161D01*
X190648Y90169D01*
X148808Y90169D01*
X140745Y98232D01*
X140646Y98311D01*
X140552Y98395D01*
X140510Y98419D01*
X140472Y98449D01*
X140358Y98503D01*
X140247Y98564D01*
X140200Y98577D01*
X140157Y98598D01*
X140033Y98624D01*
X139911Y98659D01*
X139851Y98663D01*
X139816Y98671D01*
X139768Y98670D01*
X139668Y98678D01*
X134750Y98678D01*
X133857Y99571D01*
X133857Y122952D01*
X133854Y122978D01*
X133856Y123004D01*
X133834Y123151D01*
X133817Y123298D01*
X133809Y123323D01*
X133805Y123349D01*
X133750Y123487D01*
X133700Y123626D01*
X133686Y123648D01*
X133676Y123673D01*
X133591Y123794D01*
X133511Y123919D01*
X133492Y123937D01*
X133477Y123959D01*
X133367Y124058D01*
X133260Y124161D01*
X133238Y124175D01*
X133218Y124192D01*
X133088Y124264D01*
X132961Y124340D01*
X132936Y124348D01*
X132913Y124361D01*
X132770Y124401D01*
X132629Y124446D01*
X132603Y124448D01*
X132578Y124456D01*
X132334Y124475D01*
X131778Y124475D01*
X130744Y125509D01*
X130665Y125572D01*
X130593Y125642D01*
X130529Y125680D01*
X130471Y125726D01*
X130380Y125769D01*
X130294Y125820D01*
X130223Y125843D01*
X130156Y125875D01*
X130058Y125896D01*
X129962Y125927D01*
X129888Y125933D01*
X129815Y125948D01*
X129715Y125947D01*
X129615Y125955D01*
X129541Y125944D01*
X129467Y125942D01*
X129370Y125918D01*
X129270Y125903D01*
X129201Y125875D01*
X129129Y125857D01*
X129040Y125811D01*
X128946Y125774D01*
X128885Y125732D01*
X128819Y125698D01*
X128743Y125633D01*
X128660Y125575D01*
X128610Y125520D01*
X128554Y125472D01*
X128494Y125391D01*
X128427Y125316D01*
X128391Y125251D01*
X128346Y125192D01*
X128307Y125100D01*
X128258Y125011D01*
X128238Y124940D01*
X128208Y124872D01*
X128191Y124773D01*
X128163Y124676D01*
X128155Y124576D01*
X128147Y124529D01*
X128149Y124493D01*
X128144Y124432D01*
X128144Y122800D01*
X122564Y117220D01*
X114672Y117220D01*
X110297Y121596D01*
X110219Y121658D01*
X110146Y121728D01*
X110082Y121766D01*
X110024Y121812D01*
X109933Y121855D01*
X109847Y121907D01*
X109776Y121929D01*
X109709Y121961D01*
X109611Y121982D01*
X109515Y122013D01*
X109441Y122019D01*
X109368Y122034D01*
X109268Y122033D01*
X109168Y122041D01*
X109094Y122030D01*
X109020Y122028D01*
X108923Y122004D01*
X108823Y121989D01*
X108754Y121962D01*
X108682Y121943D01*
X108592Y121897D01*
X108499Y121860D01*
X108438Y121818D01*
X108372Y121784D01*
X108295Y121719D01*
X108213Y121661D01*
X108163Y121606D01*
X108107Y121558D01*
X108047Y121477D01*
X107980Y121403D01*
X107944Y121338D01*
X107899Y121278D01*
X107860Y121185D01*
X107811Y121098D01*
X107791Y121026D01*
X107761Y120958D01*
X107744Y120859D01*
X107716Y120762D01*
X107708Y120662D01*
X107700Y120615D01*
X107702Y120579D01*
X107697Y120518D01*
X107697Y117497D01*
X107711Y117372D01*
X107718Y117245D01*
X107731Y117199D01*
X107737Y117151D01*
X107779Y117032D01*
X107814Y116911D01*
X107838Y116868D01*
X107854Y116823D01*
X107923Y116717D01*
X107984Y116606D01*
X108024Y116560D01*
X108043Y116530D01*
X108078Y116497D01*
X108143Y116420D01*
X110613Y113950D01*
X110613Y27591D01*
X110627Y27466D01*
X110634Y27340D01*
X110647Y27293D01*
X110653Y27245D01*
X110695Y27126D01*
X110730Y27005D01*
X110754Y26963D01*
X110770Y26917D01*
X110839Y26811D01*
X110900Y26701D01*
X110940Y26654D01*
X110959Y26624D01*
X110994Y26591D01*
X111059Y26514D01*
X112506Y25067D01*
X112566Y25020D01*
X112619Y24965D01*
X112702Y24912D01*
X112779Y24851D01*
X112848Y24818D01*
X112912Y24777D01*
X113005Y24744D01*
X113094Y24702D01*
X113168Y24686D01*
X113241Y24660D01*
X113339Y24649D01*
X113434Y24628D01*
X113511Y24630D01*
X113587Y24621D01*
X113685Y24633D01*
X113783Y24634D01*
X113857Y24653D01*
X113933Y24662D01*
X114075Y24708D01*
X114121Y24719D01*
X114138Y24728D01*
X114166Y24737D01*
X116646Y25765D01*
X120833Y25765D01*
X124702Y24162D01*
X127663Y21201D01*
X127683Y21185D01*
X127700Y21165D01*
X127796Y21094D01*
X127831Y21063D01*
X127852Y21051D01*
X127936Y20985D01*
X127960Y20973D01*
X127981Y20958D01*
X128117Y20899D01*
X128251Y20836D01*
X128277Y20830D01*
X128301Y20820D01*
X128447Y20794D01*
X128592Y20762D01*
X128618Y20763D01*
X128644Y20758D01*
X128792Y20766D01*
X128940Y20768D01*
X128966Y20775D01*
X128992Y20776D01*
X129134Y20817D01*
X129278Y20853D01*
X129301Y20865D01*
X129327Y20873D01*
X129456Y20945D01*
X129588Y21013D01*
X129608Y21030D01*
X129631Y21043D01*
X129719Y21118D01*
X129732Y21126D01*
X129745Y21140D01*
X129817Y21201D01*
X132778Y24162D01*
X136646Y25765D01*
X140833Y25765D01*
X144702Y24162D01*
X147663Y21201D01*
X147683Y21185D01*
X147700Y21165D01*
X147796Y21094D01*
X147831Y21063D01*
X147852Y21051D01*
X147936Y20985D01*
X147960Y20973D01*
X147981Y20958D01*
X148117Y20899D01*
X148251Y20836D01*
X148277Y20830D01*
X148301Y20820D01*
X148447Y20794D01*
X148592Y20762D01*
X148618Y20763D01*
X148644Y20758D01*
X148792Y20766D01*
G37*
G36*
X32101Y2512D02*
X32101Y2512D01*
X32201Y2514D01*
X32273Y2532D01*
X32347Y2541D01*
X32441Y2574D01*
X32539Y2599D01*
X32605Y2633D01*
X32675Y2658D01*
X32759Y2713D01*
X32849Y2759D01*
X32905Y2807D01*
X32968Y2847D01*
X33038Y2919D01*
X33114Y2984D01*
X33158Y3044D01*
X33210Y3098D01*
X33262Y3184D01*
X33321Y3265D01*
X33351Y3333D01*
X33389Y3397D01*
X33420Y3493D01*
X33459Y3585D01*
X33472Y3658D01*
X33495Y3729D01*
X33503Y3829D01*
X33521Y3928D01*
X33517Y4002D01*
X33523Y4076D01*
X33508Y4176D01*
X33503Y4276D01*
X33482Y4347D01*
X33471Y4421D01*
X33434Y4514D01*
X33407Y4611D01*
X33370Y4676D01*
X33343Y4745D01*
X33285Y4827D01*
X33236Y4915D01*
X33171Y4991D01*
X33144Y5031D01*
X33117Y5055D01*
X33078Y5101D01*
X31837Y6342D01*
X30769Y7811D01*
X29945Y9430D01*
X29383Y11157D01*
X29099Y12952D01*
X29099Y19861D01*
X39164Y19861D01*
X39190Y19864D01*
X39216Y19862D01*
X39363Y19884D01*
X39510Y19901D01*
X39535Y19909D01*
X39561Y19913D01*
X39698Y19968D01*
X39838Y20018D01*
X39860Y20032D01*
X39885Y20042D01*
X40006Y20126D01*
X40131Y20207D01*
X40149Y20226D01*
X40171Y20241D01*
X40270Y20351D01*
X40373Y20458D01*
X40387Y20480D01*
X40404Y20500D01*
X40476Y20630D01*
X40552Y20757D01*
X40560Y20782D01*
X40573Y20805D01*
X40613Y20948D01*
X40638Y21024D01*
X40642Y21013D01*
X40646Y20987D01*
X40700Y20849D01*
X40750Y20710D01*
X40765Y20688D01*
X40774Y20663D01*
X40859Y20542D01*
X40939Y20417D01*
X40958Y20399D01*
X40973Y20377D01*
X41083Y20278D01*
X41190Y20175D01*
X41213Y20161D01*
X41232Y20144D01*
X41362Y20072D01*
X41489Y19996D01*
X41514Y19988D01*
X41537Y19975D01*
X41680Y19935D01*
X41821Y19890D01*
X41847Y19887D01*
X41872Y19880D01*
X42116Y19861D01*
X52181Y19861D01*
X52181Y12952D01*
X51897Y11157D01*
X51335Y9430D01*
X50511Y7811D01*
X49443Y6342D01*
X48202Y5101D01*
X48140Y5022D01*
X48070Y4950D01*
X48032Y4886D01*
X47986Y4828D01*
X47943Y4737D01*
X47891Y4651D01*
X47868Y4580D01*
X47837Y4513D01*
X47816Y4415D01*
X47785Y4319D01*
X47779Y4245D01*
X47763Y4172D01*
X47765Y4072D01*
X47757Y3972D01*
X47768Y3898D01*
X47769Y3824D01*
X47794Y3727D01*
X47809Y3627D01*
X47836Y3558D01*
X47854Y3486D01*
X47900Y3397D01*
X47937Y3303D01*
X47980Y3242D01*
X48014Y3176D01*
X48079Y3100D01*
X48136Y3017D01*
X48191Y2967D01*
X48240Y2911D01*
X48321Y2851D01*
X48395Y2784D01*
X48460Y2748D01*
X48520Y2703D01*
X48612Y2664D01*
X48700Y2615D01*
X48772Y2595D01*
X48840Y2565D01*
X48939Y2548D01*
X49035Y2520D01*
X49135Y2512D01*
X49183Y2504D01*
X49219Y2506D01*
X49279Y2501D01*
X66327Y2501D01*
X66402Y2509D01*
X66478Y2508D01*
X66575Y2529D01*
X66673Y2541D01*
X66744Y2566D01*
X66818Y2582D01*
X66908Y2625D01*
X67001Y2658D01*
X67065Y2699D01*
X67133Y2732D01*
X67211Y2793D01*
X67294Y2847D01*
X67347Y2902D01*
X67406Y2949D01*
X67467Y3026D01*
X67536Y3098D01*
X67575Y3163D01*
X67622Y3222D01*
X67664Y3312D01*
X67715Y3397D01*
X67738Y3469D01*
X67770Y3538D01*
X67791Y3634D01*
X67821Y3729D01*
X67827Y3804D01*
X67843Y3878D01*
X67841Y3978D01*
X67849Y4076D01*
X67838Y4151D01*
X67836Y4227D01*
X67812Y4323D01*
X67797Y4421D01*
X67769Y4491D01*
X67751Y4565D01*
X67686Y4701D01*
X67669Y4745D01*
X67658Y4760D01*
X67646Y4786D01*
X67372Y5259D01*
X67199Y5905D01*
X67199Y12241D01*
X77264Y12241D01*
X77290Y12244D01*
X77316Y12242D01*
X77463Y12264D01*
X77610Y12281D01*
X77635Y12289D01*
X77661Y12293D01*
X77798Y12348D01*
X77938Y12398D01*
X77960Y12412D01*
X77985Y12422D01*
X78106Y12506D01*
X78231Y12587D01*
X78249Y12606D01*
X78271Y12621D01*
X78370Y12731D01*
X78473Y12838D01*
X78487Y12860D01*
X78504Y12880D01*
X78576Y13010D01*
X78652Y13137D01*
X78660Y13162D01*
X78673Y13185D01*
X78713Y13328D01*
X78758Y13469D01*
X78760Y13495D01*
X78767Y13520D01*
X78787Y13764D01*
X78787Y15193D01*
X80216Y15193D01*
X80242Y15196D01*
X80268Y15194D01*
X80415Y15216D01*
X80562Y15233D01*
X80587Y15242D01*
X80613Y15246D01*
X80751Y15300D01*
X80890Y15350D01*
X80912Y15365D01*
X80937Y15374D01*
X81058Y15459D01*
X81183Y15539D01*
X81201Y15558D01*
X81223Y15573D01*
X81322Y15683D01*
X81425Y15790D01*
X81439Y15813D01*
X81456Y15832D01*
X81528Y15962D01*
X81604Y16089D01*
X81612Y16114D01*
X81625Y16137D01*
X81665Y16280D01*
X81710Y16421D01*
X81712Y16447D01*
X81720Y16472D01*
X81739Y16716D01*
X81739Y26781D01*
X88075Y26781D01*
X88721Y26608D01*
X89300Y26273D01*
X89773Y25800D01*
X90108Y25221D01*
X90213Y24828D01*
X90240Y24758D01*
X90259Y24684D01*
X90304Y24596D01*
X90341Y24504D01*
X90384Y24442D01*
X90419Y24375D01*
X90483Y24299D01*
X90539Y24218D01*
X90595Y24167D01*
X90644Y24109D01*
X90724Y24050D01*
X90798Y23984D01*
X90864Y23947D01*
X90925Y23902D01*
X91016Y23863D01*
X91102Y23815D01*
X91175Y23794D01*
X91245Y23764D01*
X91342Y23746D01*
X91438Y23719D01*
X91513Y23716D01*
X91588Y23702D01*
X91687Y23707D01*
X91786Y23703D01*
X91860Y23716D01*
X91936Y23720D01*
X92031Y23748D01*
X92128Y23765D01*
X92198Y23796D01*
X92271Y23817D01*
X92357Y23865D01*
X92448Y23905D01*
X92509Y23950D01*
X92575Y23987D01*
X92690Y24085D01*
X92728Y24113D01*
X92740Y24127D01*
X92761Y24145D01*
X92778Y24162D01*
X96646Y25765D01*
X97404Y25765D01*
X97430Y25768D01*
X97456Y25766D01*
X97603Y25788D01*
X97750Y25805D01*
X97775Y25813D01*
X97801Y25817D01*
X97939Y25872D01*
X98078Y25922D01*
X98100Y25936D01*
X98125Y25946D01*
X98246Y26031D01*
X98371Y26111D01*
X98389Y26130D01*
X98411Y26145D01*
X98510Y26255D01*
X98613Y26362D01*
X98627Y26384D01*
X98644Y26404D01*
X98716Y26534D01*
X98792Y26661D01*
X98800Y26686D01*
X98813Y26709D01*
X98853Y26852D01*
X98898Y26993D01*
X98900Y27019D01*
X98908Y27044D01*
X98927Y27288D01*
X98927Y95266D01*
X98913Y95392D01*
X98906Y95518D01*
X98893Y95564D01*
X98887Y95612D01*
X98845Y95731D01*
X98810Y95853D01*
X98786Y95895D01*
X98770Y95941D01*
X98701Y96047D01*
X98640Y96157D01*
X98600Y96203D01*
X98581Y96233D01*
X98546Y96267D01*
X98481Y96343D01*
X82749Y112075D01*
X82650Y112154D01*
X82556Y112238D01*
X82514Y112262D01*
X82476Y112292D01*
X82362Y112346D01*
X82251Y112407D01*
X82205Y112420D01*
X82161Y112441D01*
X82038Y112467D01*
X81916Y112502D01*
X81855Y112507D01*
X81820Y112514D01*
X81772Y112513D01*
X81672Y112521D01*
X68989Y112521D01*
X68863Y112507D01*
X68737Y112500D01*
X68691Y112487D01*
X68643Y112481D01*
X68524Y112439D01*
X68402Y112404D01*
X68360Y112380D01*
X68314Y112364D01*
X68208Y112295D01*
X68098Y112234D01*
X68052Y112194D01*
X68022Y112175D01*
X67988Y112140D01*
X67912Y112075D01*
X67612Y111775D01*
X64468Y111775D01*
X62245Y113998D01*
X62245Y117142D01*
X64468Y119365D01*
X67612Y119365D01*
X67912Y119065D01*
X68011Y118986D01*
X68105Y118902D01*
X68147Y118878D01*
X68185Y118848D01*
X68299Y118794D01*
X68410Y118733D01*
X68456Y118720D01*
X68500Y118699D01*
X68623Y118673D01*
X68745Y118638D01*
X68806Y118633D01*
X68841Y118626D01*
X68889Y118627D01*
X68989Y118619D01*
X81540Y118619D01*
X81666Y118633D01*
X81792Y118640D01*
X81838Y118653D01*
X81886Y118659D01*
X82005Y118701D01*
X82127Y118736D01*
X82169Y118760D01*
X82214Y118776D01*
X82321Y118845D01*
X82431Y118906D01*
X82477Y118946D01*
X82507Y118965D01*
X82541Y119000D01*
X82617Y119065D01*
X93917Y130364D01*
X93979Y130443D01*
X94049Y130515D01*
X94087Y130579D01*
X94133Y130637D01*
X94176Y130728D01*
X94228Y130814D01*
X94250Y130885D01*
X94282Y130952D01*
X94303Y131051D01*
X94334Y131146D01*
X94340Y131220D01*
X94356Y131293D01*
X94354Y131393D01*
X94362Y131494D01*
X94351Y131567D01*
X94350Y131642D01*
X94325Y131739D01*
X94310Y131838D01*
X94283Y131907D01*
X94265Y131980D01*
X94219Y132069D01*
X94181Y132162D01*
X94139Y132223D01*
X94105Y132289D01*
X94040Y132366D01*
X93983Y132448D01*
X93927Y132498D01*
X93879Y132555D01*
X93798Y132614D01*
X93724Y132682D01*
X93659Y132718D01*
X93599Y132762D01*
X93507Y132802D01*
X93419Y132850D01*
X93347Y132870D01*
X93279Y132900D01*
X93180Y132918D01*
X93083Y132945D01*
X92983Y132953D01*
X92936Y132962D01*
X92900Y132960D01*
X92840Y132965D01*
X90866Y132965D01*
X85509Y138321D01*
X85509Y145897D01*
X88064Y148452D01*
X88127Y148532D01*
X88198Y148605D01*
X88235Y148668D01*
X88280Y148725D01*
X88324Y148817D01*
X88376Y148905D01*
X88398Y148974D01*
X88429Y149040D01*
X88451Y149140D01*
X88482Y149237D01*
X88487Y149310D01*
X88503Y149381D01*
X88501Y149483D01*
X88509Y149584D01*
X88498Y149656D01*
X88497Y149729D01*
X88472Y149828D01*
X88457Y149929D01*
X88430Y149997D01*
X88412Y150067D01*
X88365Y150158D01*
X88327Y150252D01*
X88286Y150312D01*
X88252Y150377D01*
X88186Y150455D01*
X88128Y150538D01*
X88074Y150587D01*
X88026Y150643D01*
X87945Y150703D01*
X87869Y150771D01*
X87805Y150806D01*
X87746Y150850D01*
X87653Y150890D01*
X87563Y150939D01*
X87493Y150959D01*
X87426Y150988D01*
X87326Y151006D01*
X87228Y151033D01*
X87130Y151041D01*
X87083Y151050D01*
X87046Y151048D01*
X86984Y151053D01*
X76935Y151035D01*
X76837Y151024D01*
X76738Y151022D01*
X76664Y151003D01*
X76589Y150995D01*
X76496Y150961D01*
X76400Y150937D01*
X76332Y150902D01*
X76261Y150877D01*
X76178Y150823D01*
X76090Y150777D01*
X76032Y150728D01*
X75969Y150687D01*
X75900Y150616D01*
X75824Y150551D01*
X75779Y150491D01*
X75727Y150436D01*
X75676Y150351D01*
X75617Y150271D01*
X75587Y150202D01*
X75549Y150137D01*
X75519Y150042D01*
X75479Y149951D01*
X75466Y149877D01*
X75443Y149804D01*
X75435Y149706D01*
X75418Y149608D01*
X75422Y149532D01*
X75416Y149457D01*
X75430Y149359D01*
X75436Y149260D01*
X75456Y149187D01*
X75468Y149112D01*
X75505Y149020D01*
X75532Y148925D01*
X75569Y148859D01*
X75597Y148789D01*
X75654Y148708D01*
X75702Y148621D01*
X75769Y148543D01*
X75797Y148503D01*
X75823Y148480D01*
X75861Y148435D01*
X78398Y145897D01*
X78398Y138321D01*
X73041Y132965D01*
X65466Y132965D01*
X60109Y138321D01*
X60109Y145897D01*
X62620Y148408D01*
X62683Y148488D01*
X62754Y148561D01*
X62791Y148624D01*
X62836Y148681D01*
X62880Y148773D01*
X62932Y148860D01*
X62954Y148930D01*
X62985Y148996D01*
X63007Y149096D01*
X63038Y149193D01*
X63043Y149265D01*
X63059Y149337D01*
X63057Y149439D01*
X63065Y149540D01*
X63054Y149612D01*
X63053Y149685D01*
X63028Y149784D01*
X63013Y149885D01*
X62986Y149953D01*
X62968Y150023D01*
X62921Y150114D01*
X62883Y150208D01*
X62842Y150268D01*
X62808Y150333D01*
X62742Y150411D01*
X62684Y150494D01*
X62630Y150543D01*
X62582Y150599D01*
X62500Y150659D01*
X62425Y150727D01*
X62361Y150762D01*
X62302Y150806D01*
X62208Y150846D01*
X62119Y150895D01*
X62049Y150915D01*
X61982Y150944D01*
X61882Y150962D01*
X61784Y150989D01*
X61686Y150997D01*
X61639Y151005D01*
X61602Y151004D01*
X61540Y151008D01*
X56152Y150999D01*
X56131Y150997D01*
X56110Y150998D01*
X55958Y150976D01*
X55806Y150959D01*
X55786Y150951D01*
X55765Y150948D01*
X55622Y150892D01*
X55553Y150867D01*
X54718Y150982D01*
X54676Y150983D01*
X54508Y150996D01*
X53386Y150994D01*
X53311Y151016D01*
X53249Y151021D01*
X53213Y151028D01*
X53165Y151027D01*
X53067Y151035D01*
X52832Y151035D01*
X52806Y151032D01*
X52780Y151034D01*
X52633Y151012D01*
X52486Y150995D01*
X52461Y150987D01*
X52435Y150983D01*
X52297Y150928D01*
X52158Y150878D01*
X52136Y150864D01*
X52111Y150854D01*
X51990Y150769D01*
X51865Y150689D01*
X51847Y150670D01*
X51825Y150655D01*
X51726Y150545D01*
X51623Y150438D01*
X51609Y150416D01*
X51592Y150396D01*
X51520Y150266D01*
X51444Y150139D01*
X51436Y150114D01*
X51423Y150091D01*
X51383Y149948D01*
X51338Y149807D01*
X51336Y149781D01*
X51328Y149756D01*
X51309Y149512D01*
X51309Y130559D01*
X50612Y129863D01*
X50533Y129763D01*
X50449Y129670D01*
X50425Y129628D01*
X50395Y129590D01*
X50341Y129475D01*
X50280Y129365D01*
X50267Y129318D01*
X50246Y129275D01*
X50220Y129151D01*
X50185Y129029D01*
X50180Y128969D01*
X50173Y128934D01*
X50174Y128886D01*
X50166Y128786D01*
X50166Y126936D01*
X41847Y126936D01*
X41821Y126933D01*
X41794Y126935D01*
X41648Y126913D01*
X41500Y126896D01*
X41476Y126887D01*
X41450Y126883D01*
X41312Y126828D01*
X41172Y126778D01*
X41150Y126764D01*
X41143Y126761D01*
X41076Y126801D01*
X41051Y126809D01*
X41028Y126821D01*
X40886Y126862D01*
X40744Y126907D01*
X40718Y126909D01*
X40693Y126916D01*
X40449Y126936D01*
X32130Y126936D01*
X32130Y128785D01*
X32116Y128911D01*
X32109Y129037D01*
X32096Y129084D01*
X32090Y129132D01*
X32048Y129251D01*
X32013Y129372D01*
X31989Y129414D01*
X31973Y129460D01*
X31904Y129566D01*
X31843Y129676D01*
X31803Y129723D01*
X31784Y129753D01*
X31749Y129786D01*
X31684Y129863D01*
X30987Y130559D01*
X30987Y139951D01*
X31880Y140844D01*
X34893Y140844D01*
X35018Y140858D01*
X35144Y140865D01*
X35191Y140878D01*
X35239Y140884D01*
X35358Y140926D01*
X35479Y140961D01*
X35521Y140985D01*
X35567Y141001D01*
X35673Y141070D01*
X35783Y141131D01*
X35830Y141171D01*
X35860Y141190D01*
X35893Y141225D01*
X35970Y141290D01*
X36032Y141352D01*
X36611Y141687D01*
X37257Y141860D01*
X38068Y141860D01*
X38168Y141871D01*
X38268Y141873D01*
X38340Y141891D01*
X38414Y141900D01*
X38508Y141933D01*
X38606Y141958D01*
X38672Y141992D01*
X38742Y142017D01*
X38826Y142072D01*
X38916Y142118D01*
X38972Y142166D01*
X39035Y142206D01*
X39105Y142278D01*
X39181Y142343D01*
X39225Y142403D01*
X39277Y142457D01*
X39329Y142543D01*
X39388Y142624D01*
X39418Y142692D01*
X39456Y142756D01*
X39486Y142852D01*
X39526Y142944D01*
X39539Y143017D01*
X39562Y143088D01*
X39570Y143188D01*
X39588Y143287D01*
X39584Y143361D01*
X39590Y143435D01*
X39575Y143535D01*
X39570Y143635D01*
X39549Y143706D01*
X39538Y143780D01*
X39501Y143873D01*
X39473Y143970D01*
X39437Y144035D01*
X39410Y144104D01*
X39352Y144186D01*
X39303Y144274D01*
X39238Y144350D01*
X39211Y144390D01*
X39184Y144414D01*
X39145Y144460D01*
X37494Y146111D01*
X35559Y148046D01*
X35559Y149258D01*
X35556Y149284D01*
X35558Y149310D01*
X35536Y149457D01*
X35519Y149604D01*
X35511Y149629D01*
X35507Y149655D01*
X35452Y149793D01*
X35402Y149932D01*
X35388Y149954D01*
X35378Y149979D01*
X35293Y150100D01*
X35213Y150225D01*
X35194Y150243D01*
X35179Y150265D01*
X35069Y150364D01*
X34962Y150467D01*
X34940Y150481D01*
X34920Y150498D01*
X34790Y150570D01*
X34663Y150646D01*
X34638Y150654D01*
X34615Y150667D01*
X34472Y150707D01*
X34331Y150752D01*
X34305Y150754D01*
X34280Y150762D01*
X34036Y150781D01*
X32968Y150781D01*
X32075Y151674D01*
X32075Y159976D01*
X32064Y160076D01*
X32062Y160176D01*
X32044Y160249D01*
X32035Y160322D01*
X32002Y160417D01*
X31977Y160514D01*
X31943Y160581D01*
X31918Y160651D01*
X31863Y160735D01*
X31817Y160824D01*
X31769Y160881D01*
X31729Y160943D01*
X31657Y161013D01*
X31592Y161090D01*
X31532Y161134D01*
X31478Y161186D01*
X31392Y161237D01*
X31311Y161297D01*
X31243Y161326D01*
X31179Y161364D01*
X31083Y161395D01*
X30991Y161435D01*
X30918Y161448D01*
X30847Y161471D01*
X30747Y161479D01*
X30648Y161496D01*
X30574Y161493D01*
X30500Y161499D01*
X30400Y161484D01*
X30300Y161479D01*
X30229Y161458D01*
X30155Y161447D01*
X30062Y161410D01*
X29965Y161382D01*
X29900Y161346D01*
X29831Y161318D01*
X29749Y161261D01*
X29661Y161212D01*
X29585Y161147D01*
X29545Y161119D01*
X29521Y161093D01*
X29475Y161053D01*
X22799Y154377D01*
X22736Y154298D01*
X22669Y154229D01*
X22656Y154207D01*
X22636Y154184D01*
X22612Y154142D01*
X22582Y154104D01*
X22536Y154006D01*
X22490Y153930D01*
X22483Y153909D01*
X22467Y153879D01*
X22454Y153833D01*
X22433Y153789D01*
X22409Y153677D01*
X22384Y153598D01*
X22382Y153580D01*
X22372Y153544D01*
X22367Y153483D01*
X22360Y153448D01*
X22361Y153400D01*
X22353Y153300D01*
X22353Y116705D01*
X22354Y116695D01*
X22354Y116692D01*
X22356Y116675D01*
X22367Y116580D01*
X22374Y116454D01*
X22387Y116407D01*
X22393Y116359D01*
X22435Y116240D01*
X22470Y116119D01*
X22494Y116077D01*
X22510Y116031D01*
X22579Y115925D01*
X22640Y115815D01*
X22680Y115768D01*
X22699Y115738D01*
X22734Y115705D01*
X22799Y115628D01*
X27371Y111056D01*
X27449Y110994D01*
X27522Y110924D01*
X27586Y110886D01*
X27644Y110840D01*
X27735Y110797D01*
X27821Y110745D01*
X27892Y110723D01*
X27959Y110691D01*
X28057Y110670D01*
X28153Y110639D01*
X28227Y110633D01*
X28300Y110617D01*
X28400Y110619D01*
X28500Y110611D01*
X28574Y110622D01*
X28648Y110623D01*
X28745Y110648D01*
X28845Y110663D01*
X28914Y110690D01*
X28986Y110708D01*
X29076Y110754D01*
X29169Y110791D01*
X29230Y110834D01*
X29296Y110868D01*
X29373Y110933D01*
X29455Y110990D01*
X29505Y111046D01*
X29561Y111094D01*
X29621Y111175D01*
X29688Y111249D01*
X29724Y111314D01*
X29769Y111374D01*
X29808Y111466D01*
X29857Y111554D01*
X29877Y111626D01*
X29907Y111694D01*
X29924Y111793D01*
X29952Y111890D01*
X29960Y111990D01*
X29968Y112037D01*
X29966Y112073D01*
X29971Y112133D01*
X29971Y112650D01*
X33528Y112650D01*
X33554Y112653D01*
X33580Y112650D01*
X33727Y112672D01*
X33874Y112689D01*
X33899Y112698D01*
X33925Y112702D01*
X34062Y112757D01*
X34202Y112807D01*
X34224Y112821D01*
X34248Y112831D01*
X34370Y112915D01*
X34495Y112996D01*
X34513Y113015D01*
X34535Y113030D01*
X34634Y113140D01*
X34737Y113247D01*
X34750Y113269D01*
X34768Y113289D01*
X34840Y113419D01*
X34916Y113546D01*
X34924Y113571D01*
X34937Y113594D01*
X34977Y113737D01*
X35022Y113878D01*
X35024Y113904D01*
X35031Y113929D01*
X35051Y114173D01*
X35048Y114199D01*
X35050Y114225D01*
X35028Y114372D01*
X35011Y114519D01*
X35002Y114544D01*
X34998Y114570D01*
X34944Y114708D01*
X34894Y114847D01*
X34879Y114870D01*
X34870Y114894D01*
X34785Y115015D01*
X34705Y115140D01*
X34686Y115159D01*
X34671Y115180D01*
X34561Y115279D01*
X34454Y115382D01*
X34431Y115396D01*
X34412Y115413D01*
X34282Y115485D01*
X34155Y115561D01*
X34130Y115569D01*
X34107Y115582D01*
X33964Y115622D01*
X33823Y115668D01*
X33797Y115670D01*
X33771Y115677D01*
X33528Y115696D01*
X29971Y115696D01*
X29971Y118572D01*
X30144Y119218D01*
X30479Y119797D01*
X30952Y120270D01*
X31369Y120511D01*
X31490Y120601D01*
X31614Y120687D01*
X31630Y120704D01*
X31649Y120718D01*
X31746Y120834D01*
X31847Y120946D01*
X31859Y120966D01*
X31874Y120984D01*
X31943Y121119D01*
X32016Y121251D01*
X32022Y121273D01*
X32033Y121294D01*
X32070Y121441D01*
X32111Y121586D01*
X32113Y121614D01*
X32117Y121632D01*
X32118Y121679D01*
X32130Y121830D01*
X32130Y122492D01*
X40449Y122492D01*
X40475Y122495D01*
X40502Y122493D01*
X40648Y122515D01*
X40796Y122532D01*
X40820Y122541D01*
X40846Y122545D01*
X40984Y122600D01*
X41124Y122650D01*
X41146Y122664D01*
X41153Y122667D01*
X41220Y122627D01*
X41245Y122619D01*
X41268Y122607D01*
X41410Y122566D01*
X41552Y122521D01*
X41578Y122519D01*
X41603Y122512D01*
X41847Y122492D01*
X50166Y122492D01*
X50166Y121830D01*
X50183Y121680D01*
X50196Y121529D01*
X50203Y121507D01*
X50206Y121484D01*
X50256Y121342D01*
X50303Y121198D01*
X50315Y121178D01*
X50323Y121156D01*
X50405Y121029D01*
X50483Y120899D01*
X50499Y120882D01*
X50512Y120863D01*
X50621Y120758D01*
X50726Y120650D01*
X50749Y120633D01*
X50763Y120621D01*
X50803Y120596D01*
X50927Y120511D01*
X51344Y120270D01*
X51817Y119797D01*
X52152Y119218D01*
X52325Y118572D01*
X52325Y115696D01*
X48768Y115696D01*
X48742Y115693D01*
X48716Y115695D01*
X48569Y115673D01*
X48422Y115657D01*
X48397Y115648D01*
X48371Y115644D01*
X48234Y115589D01*
X48094Y115539D01*
X48072Y115525D01*
X48048Y115515D01*
X47926Y115431D01*
X47801Y115350D01*
X47783Y115331D01*
X47761Y115316D01*
X47662Y115206D01*
X47559Y115099D01*
X47546Y115077D01*
X47528Y115057D01*
X47456Y114927D01*
X47380Y114800D01*
X47372Y114775D01*
X47359Y114752D01*
X47319Y114609D01*
X47274Y114468D01*
X47272Y114442D01*
X47265Y114417D01*
X47245Y114173D01*
X47248Y114147D01*
X47246Y114121D01*
X47268Y113974D01*
X47285Y113827D01*
X47294Y113802D01*
X47298Y113776D01*
X47352Y113638D01*
X47402Y113499D01*
X47417Y113476D01*
X47426Y113452D01*
X47511Y113331D01*
X47591Y113206D01*
X47610Y113187D01*
X47625Y113166D01*
X47735Y113067D01*
X47842Y112964D01*
X47865Y112950D01*
X47884Y112932D01*
X48014Y112861D01*
X48141Y112785D01*
X48166Y112777D01*
X48189Y112764D01*
X48332Y112724D01*
X48473Y112678D01*
X48499Y112676D01*
X48525Y112669D01*
X48768Y112650D01*
X52325Y112650D01*
X52325Y109774D01*
X52152Y109128D01*
X51757Y108444D01*
X51711Y108386D01*
X51689Y108340D01*
X51660Y108298D01*
X51614Y108183D01*
X51562Y108071D01*
X51551Y108021D01*
X51532Y107973D01*
X51514Y107851D01*
X51488Y107731D01*
X51489Y107679D01*
X51482Y107629D01*
X51492Y107505D01*
X51494Y107382D01*
X51506Y107333D01*
X51511Y107281D01*
X51549Y107164D01*
X51579Y107044D01*
X51602Y106999D01*
X51618Y106950D01*
X51682Y106844D01*
X51738Y106734D01*
X51772Y106695D01*
X51798Y106651D01*
X51884Y106563D01*
X51964Y106469D01*
X52005Y106438D01*
X52041Y106401D01*
X52242Y106263D01*
X52962Y105847D01*
X53435Y105374D01*
X53770Y104795D01*
X53943Y104149D01*
X53943Y101063D01*
X48128Y101063D01*
X48102Y101060D01*
X48076Y101062D01*
X47929Y101040D01*
X47782Y101023D01*
X47757Y101015D01*
X47731Y101011D01*
X47594Y100956D01*
X47454Y100906D01*
X47432Y100892D01*
X47407Y100882D01*
X47286Y100797D01*
X47161Y100717D01*
X47143Y100698D01*
X47121Y100683D01*
X47022Y100573D01*
X46919Y100466D01*
X46905Y100444D01*
X46888Y100424D01*
X46851Y100357D01*
X46834Y100345D01*
X46709Y100265D01*
X46691Y100246D01*
X46669Y100231D01*
X46570Y100121D01*
X46467Y100014D01*
X46453Y99991D01*
X46436Y99972D01*
X46364Y99842D01*
X46288Y99715D01*
X46280Y99690D01*
X46267Y99667D01*
X46227Y99524D01*
X46182Y99383D01*
X46179Y99357D01*
X46172Y99332D01*
X46153Y99088D01*
X46153Y92273D01*
X44067Y92273D01*
X43421Y92446D01*
X42842Y92781D01*
X42369Y93254D01*
X42128Y93672D01*
X42097Y93713D01*
X42074Y93758D01*
X41994Y93852D01*
X41920Y93952D01*
X41881Y93985D01*
X41848Y94023D01*
X41749Y94097D01*
X41654Y94177D01*
X41609Y94200D01*
X41568Y94231D01*
X41454Y94280D01*
X41344Y94336D01*
X41295Y94348D01*
X41248Y94369D01*
X41126Y94390D01*
X41006Y94420D01*
X40955Y94421D01*
X40905Y94430D01*
X40781Y94424D01*
X40658Y94426D01*
X40608Y94415D01*
X40557Y94412D01*
X40438Y94378D01*
X40317Y94352D01*
X40271Y94330D01*
X40222Y94316D01*
X40114Y94255D01*
X40002Y94202D01*
X39962Y94171D01*
X39918Y94146D01*
X39731Y93987D01*
X39009Y93265D01*
X38874Y93249D01*
X38849Y93241D01*
X38823Y93237D01*
X38685Y93182D01*
X38546Y93132D01*
X38524Y93118D01*
X38499Y93108D01*
X38378Y93023D01*
X38253Y92943D01*
X38235Y92924D01*
X38213Y92909D01*
X38114Y92799D01*
X38011Y92692D01*
X37997Y92670D01*
X37980Y92650D01*
X37908Y92520D01*
X37832Y92393D01*
X37824Y92368D01*
X37811Y92345D01*
X37771Y92202D01*
X37726Y92061D01*
X37724Y92035D01*
X37716Y92010D01*
X37697Y91766D01*
X37697Y87700D01*
X37711Y87574D01*
X37718Y87448D01*
X37731Y87402D01*
X37737Y87354D01*
X37779Y87235D01*
X37814Y87113D01*
X37838Y87071D01*
X37854Y87025D01*
X37923Y86919D01*
X37951Y86869D01*
X37951Y84289D01*
X24293Y70631D01*
X24214Y70532D01*
X24130Y70438D01*
X24106Y70396D01*
X24076Y70358D01*
X24022Y70244D01*
X23961Y70133D01*
X23948Y70087D01*
X23927Y70043D01*
X23901Y69920D01*
X23866Y69798D01*
X23861Y69737D01*
X23854Y69702D01*
X23855Y69654D01*
X23847Y69554D01*
X23847Y61303D01*
X23836Y61265D01*
X23815Y61221D01*
X23789Y61098D01*
X23754Y60976D01*
X23749Y60915D01*
X23742Y60880D01*
X23743Y60832D01*
X23735Y60732D01*
X23735Y48518D01*
X22842Y47625D01*
X19782Y47625D01*
X19756Y47622D01*
X19730Y47624D01*
X19583Y47602D01*
X19436Y47585D01*
X19411Y47577D01*
X19385Y47573D01*
X19247Y47518D01*
X19108Y47468D01*
X19086Y47454D01*
X19061Y47444D01*
X18940Y47359D01*
X18815Y47279D01*
X18797Y47260D01*
X18775Y47245D01*
X18676Y47135D01*
X18573Y47028D01*
X18559Y47006D01*
X18542Y46986D01*
X18470Y46856D01*
X18394Y46729D01*
X18386Y46704D01*
X18373Y46681D01*
X18333Y46538D01*
X18288Y46397D01*
X18286Y46371D01*
X18278Y46346D01*
X18259Y46102D01*
X18259Y43019D01*
X18267Y42943D01*
X18266Y42867D01*
X18287Y42771D01*
X18299Y42673D01*
X18324Y42601D01*
X18341Y42526D01*
X18383Y42437D01*
X18416Y42345D01*
X18458Y42281D01*
X18490Y42212D01*
X18552Y42135D01*
X18605Y42052D01*
X18660Y41999D01*
X18708Y41939D01*
X18785Y41878D01*
X18856Y41810D01*
X18921Y41771D01*
X18981Y41723D01*
X19114Y41655D01*
X19155Y41631D01*
X19173Y41625D01*
X19199Y41612D01*
X21202Y40782D01*
X24162Y37822D01*
X25765Y33953D01*
X25765Y11766D01*
X24162Y7898D01*
X21365Y5101D01*
X21303Y5023D01*
X21233Y4950D01*
X21195Y4886D01*
X21149Y4828D01*
X21106Y4737D01*
X21054Y4651D01*
X21032Y4580D01*
X21000Y4513D01*
X20979Y4415D01*
X20948Y4319D01*
X20942Y4245D01*
X20926Y4172D01*
X20928Y4072D01*
X20920Y3972D01*
X20931Y3898D01*
X20932Y3824D01*
X20957Y3727D01*
X20972Y3627D01*
X20999Y3558D01*
X21017Y3486D01*
X21063Y3397D01*
X21101Y3303D01*
X21143Y3242D01*
X21177Y3176D01*
X21242Y3100D01*
X21299Y3017D01*
X21355Y2967D01*
X21403Y2911D01*
X21484Y2851D01*
X21558Y2784D01*
X21623Y2748D01*
X21683Y2703D01*
X21775Y2664D01*
X21863Y2615D01*
X21935Y2595D01*
X22003Y2565D01*
X22102Y2548D01*
X22199Y2520D01*
X22299Y2512D01*
X22346Y2504D01*
X22382Y2506D01*
X22442Y2501D01*
X32001Y2501D01*
X32101Y2512D01*
G37*
G36*
X239082Y2504D02*
X239082Y2504D01*
X239108Y2502D01*
X239255Y2524D01*
X239402Y2541D01*
X239427Y2549D01*
X239453Y2553D01*
X239591Y2608D01*
X239730Y2658D01*
X239752Y2672D01*
X239777Y2682D01*
X239898Y2767D01*
X240023Y2847D01*
X240041Y2866D01*
X240063Y2881D01*
X240162Y2991D01*
X240265Y3098D01*
X240279Y3120D01*
X240296Y3140D01*
X240368Y3270D01*
X240444Y3397D01*
X240452Y3422D01*
X240465Y3445D01*
X240505Y3588D01*
X240550Y3729D01*
X240552Y3755D01*
X240560Y3780D01*
X240579Y4024D01*
X240579Y73506D01*
X240568Y73605D01*
X240566Y73706D01*
X240548Y73778D01*
X240539Y73852D01*
X240506Y73946D01*
X240481Y74044D01*
X240447Y74110D01*
X240422Y74180D01*
X240367Y74264D01*
X240321Y74354D01*
X240273Y74410D01*
X240233Y74473D01*
X240161Y74542D01*
X240096Y74619D01*
X240036Y74663D01*
X239982Y74715D01*
X239896Y74766D01*
X239815Y74826D01*
X239747Y74856D01*
X239683Y74894D01*
X239587Y74924D01*
X239495Y74964D01*
X239422Y74977D01*
X239351Y75000D01*
X239251Y75008D01*
X239152Y75026D01*
X239078Y75022D01*
X239004Y75028D01*
X238904Y75013D01*
X238804Y75008D01*
X238733Y74987D01*
X238659Y74976D01*
X238566Y74939D01*
X238469Y74911D01*
X238404Y74875D01*
X238335Y74847D01*
X238253Y74790D01*
X238165Y74741D01*
X238089Y74676D01*
X238049Y74649D01*
X238025Y74622D01*
X237979Y74583D01*
X236772Y73375D01*
X227980Y73375D01*
X227855Y73361D01*
X227728Y73354D01*
X227682Y73341D01*
X227634Y73335D01*
X227515Y73293D01*
X227394Y73258D01*
X227351Y73234D01*
X227306Y73218D01*
X227200Y73149D01*
X227089Y73088D01*
X227043Y73048D01*
X227013Y73029D01*
X226980Y72994D01*
X226903Y72929D01*
X222807Y68833D01*
X204778Y68833D01*
X204653Y68819D01*
X204526Y68812D01*
X204480Y68799D01*
X204432Y68793D01*
X204313Y68751D01*
X204192Y68716D01*
X204149Y68692D01*
X204104Y68676D01*
X203998Y68607D01*
X203887Y68546D01*
X203841Y68506D01*
X203811Y68487D01*
X203778Y68452D01*
X203701Y68387D01*
X196281Y60967D01*
X196202Y60868D01*
X196118Y60774D01*
X196094Y60732D01*
X196064Y60694D01*
X196010Y60580D01*
X195949Y60469D01*
X195936Y60422D01*
X195915Y60379D01*
X195889Y60255D01*
X195854Y60134D01*
X195849Y60073D01*
X195842Y60038D01*
X195843Y59990D01*
X195835Y59890D01*
X195835Y34598D01*
X195849Y34473D01*
X195856Y34346D01*
X195869Y34300D01*
X195875Y34252D01*
X195917Y34133D01*
X195952Y34012D01*
X195976Y33969D01*
X195992Y33924D01*
X196061Y33818D01*
X196122Y33707D01*
X196162Y33661D01*
X196181Y33631D01*
X196216Y33598D01*
X196281Y33521D01*
X200399Y29403D01*
X200498Y29324D01*
X200592Y29240D01*
X200634Y29216D01*
X200672Y29186D01*
X200786Y29132D01*
X200897Y29071D01*
X200944Y29058D01*
X200987Y29037D01*
X201111Y29011D01*
X201232Y28976D01*
X201293Y28971D01*
X201328Y28964D01*
X201376Y28965D01*
X201476Y28957D01*
X208257Y28957D01*
X210043Y27171D01*
X212252Y24962D01*
X212312Y24915D01*
X212365Y24860D01*
X212448Y24807D01*
X212525Y24746D01*
X212594Y24713D01*
X212658Y24672D01*
X212751Y24639D01*
X212840Y24597D01*
X212914Y24581D01*
X212987Y24555D01*
X213085Y24544D01*
X213181Y24523D01*
X213257Y24525D01*
X213333Y24516D01*
X213431Y24528D01*
X213529Y24529D01*
X213603Y24548D01*
X213679Y24557D01*
X213821Y24603D01*
X213867Y24614D01*
X213884Y24623D01*
X213912Y24632D01*
X216646Y25765D01*
X220833Y25765D01*
X224702Y24162D01*
X227662Y21202D01*
X229265Y17333D01*
X229265Y13146D01*
X227662Y9278D01*
X224702Y6318D01*
X222562Y5431D01*
X222518Y5407D01*
X222471Y5390D01*
X222366Y5322D01*
X222257Y5262D01*
X222220Y5228D01*
X222178Y5201D01*
X222091Y5111D01*
X221999Y5028D01*
X221971Y4987D01*
X221936Y4950D01*
X221872Y4843D01*
X221801Y4741D01*
X221783Y4694D01*
X221757Y4651D01*
X221719Y4533D01*
X221673Y4417D01*
X221666Y4367D01*
X221651Y4319D01*
X221641Y4195D01*
X221623Y4072D01*
X221627Y4022D01*
X221623Y3972D01*
X221641Y3849D01*
X221651Y3725D01*
X221667Y3677D01*
X221674Y3627D01*
X221720Y3511D01*
X221759Y3393D01*
X221784Y3350D01*
X221803Y3303D01*
X221874Y3201D01*
X221938Y3095D01*
X221973Y3058D01*
X222002Y3017D01*
X222094Y2934D01*
X222181Y2845D01*
X222223Y2817D01*
X222261Y2784D01*
X222370Y2724D01*
X222474Y2656D01*
X222522Y2639D01*
X222566Y2615D01*
X222686Y2581D01*
X222803Y2540D01*
X222853Y2534D01*
X222901Y2520D01*
X223145Y2501D01*
X239056Y2501D01*
X239082Y2504D01*
G37*
%LPC*%
G36*
X192408Y275335D02*
X192408Y275335D01*
X191515Y276228D01*
X191515Y285112D01*
X192347Y285943D01*
X192363Y285963D01*
X192383Y285980D01*
X192471Y286100D01*
X192563Y286216D01*
X192574Y286240D01*
X192590Y286261D01*
X192649Y286397D01*
X192712Y286531D01*
X192718Y286557D01*
X192728Y286581D01*
X192754Y286727D01*
X192786Y286872D01*
X192785Y286898D01*
X192790Y286924D01*
X192782Y287072D01*
X192780Y287220D01*
X192773Y287246D01*
X192772Y287272D01*
X192731Y287414D01*
X192695Y287558D01*
X192683Y287581D01*
X192675Y287607D01*
X192603Y287736D01*
X192535Y287868D01*
X192518Y287888D01*
X192505Y287911D01*
X192347Y288097D01*
X191515Y288928D01*
X191515Y297812D01*
X192347Y298643D01*
X192363Y298663D01*
X192383Y298680D01*
X192471Y298800D01*
X192563Y298916D01*
X192574Y298940D01*
X192590Y298961D01*
X192649Y299097D01*
X192712Y299231D01*
X192718Y299257D01*
X192728Y299281D01*
X192754Y299427D01*
X192786Y299572D01*
X192785Y299598D01*
X192790Y299624D01*
X192782Y299772D01*
X192780Y299920D01*
X192773Y299946D01*
X192772Y299972D01*
X192731Y300114D01*
X192695Y300258D01*
X192683Y300281D01*
X192675Y300307D01*
X192603Y300436D01*
X192535Y300568D01*
X192518Y300588D01*
X192505Y300611D01*
X192347Y300797D01*
X191515Y301628D01*
X191515Y310512D01*
X192347Y311343D01*
X192363Y311363D01*
X192383Y311380D01*
X192471Y311500D01*
X192563Y311616D01*
X192574Y311640D01*
X192590Y311661D01*
X192649Y311797D01*
X192712Y311931D01*
X192718Y311957D01*
X192728Y311981D01*
X192754Y312127D01*
X192786Y312272D01*
X192785Y312298D01*
X192790Y312324D01*
X192782Y312472D01*
X192780Y312620D01*
X192773Y312646D01*
X192772Y312672D01*
X192731Y312814D01*
X192695Y312958D01*
X192683Y312981D01*
X192675Y313007D01*
X192603Y313136D01*
X192535Y313268D01*
X192518Y313288D01*
X192505Y313311D01*
X192347Y313497D01*
X191515Y314328D01*
X191515Y323212D01*
X192347Y324043D01*
X192363Y324063D01*
X192383Y324080D01*
X192471Y324200D01*
X192563Y324316D01*
X192574Y324340D01*
X192590Y324361D01*
X192649Y324497D01*
X192712Y324631D01*
X192718Y324657D01*
X192728Y324681D01*
X192754Y324827D01*
X192786Y324972D01*
X192785Y324998D01*
X192790Y325024D01*
X192782Y325172D01*
X192780Y325320D01*
X192773Y325346D01*
X192772Y325372D01*
X192731Y325514D01*
X192695Y325658D01*
X192683Y325681D01*
X192675Y325707D01*
X192603Y325836D01*
X192535Y325968D01*
X192518Y325988D01*
X192505Y326011D01*
X192347Y326197D01*
X191515Y327028D01*
X191515Y335912D01*
X192347Y336743D01*
X192363Y336763D01*
X192383Y336780D01*
X192471Y336900D01*
X192563Y337016D01*
X192574Y337040D01*
X192590Y337061D01*
X192649Y337197D01*
X192712Y337331D01*
X192718Y337357D01*
X192728Y337381D01*
X192754Y337527D01*
X192786Y337672D01*
X192785Y337698D01*
X192790Y337724D01*
X192782Y337872D01*
X192780Y338020D01*
X192773Y338046D01*
X192772Y338072D01*
X192731Y338214D01*
X192695Y338358D01*
X192683Y338381D01*
X192675Y338407D01*
X192603Y338536D01*
X192535Y338668D01*
X192518Y338688D01*
X192505Y338711D01*
X192347Y338897D01*
X191515Y339728D01*
X191515Y348612D01*
X192347Y349443D01*
X192363Y349463D01*
X192383Y349480D01*
X192471Y349600D01*
X192563Y349716D01*
X192574Y349740D01*
X192590Y349761D01*
X192649Y349897D01*
X192712Y350031D01*
X192718Y350057D01*
X192728Y350081D01*
X192754Y350227D01*
X192786Y350372D01*
X192785Y350398D01*
X192790Y350424D01*
X192782Y350572D01*
X192780Y350720D01*
X192773Y350746D01*
X192772Y350772D01*
X192731Y350914D01*
X192695Y351058D01*
X192683Y351081D01*
X192675Y351107D01*
X192603Y351236D01*
X192535Y351368D01*
X192518Y351388D01*
X192505Y351411D01*
X192347Y351597D01*
X191515Y352428D01*
X191515Y361312D01*
X192408Y362205D01*
X211452Y362205D01*
X212345Y361312D01*
X212345Y352428D01*
X211513Y351597D01*
X211497Y351577D01*
X211477Y351560D01*
X211389Y351440D01*
X211297Y351324D01*
X211286Y351300D01*
X211270Y351279D01*
X211211Y351143D01*
X211148Y351009D01*
X211142Y350983D01*
X211132Y350959D01*
X211106Y350813D01*
X211074Y350668D01*
X211075Y350642D01*
X211070Y350616D01*
X211078Y350468D01*
X211080Y350320D01*
X211087Y350294D01*
X211088Y350268D01*
X211129Y350126D01*
X211165Y349982D01*
X211177Y349959D01*
X211185Y349933D01*
X211257Y349804D01*
X211325Y349672D01*
X211342Y349652D01*
X211355Y349629D01*
X211513Y349443D01*
X212345Y348612D01*
X212345Y339728D01*
X211513Y338897D01*
X211497Y338877D01*
X211477Y338860D01*
X211389Y338740D01*
X211297Y338624D01*
X211286Y338600D01*
X211270Y338579D01*
X211211Y338443D01*
X211148Y338309D01*
X211142Y338283D01*
X211132Y338259D01*
X211106Y338113D01*
X211074Y337968D01*
X211075Y337942D01*
X211070Y337916D01*
X211078Y337768D01*
X211080Y337620D01*
X211087Y337594D01*
X211088Y337568D01*
X211129Y337426D01*
X211165Y337282D01*
X211177Y337259D01*
X211185Y337233D01*
X211257Y337104D01*
X211325Y336972D01*
X211342Y336952D01*
X211355Y336929D01*
X211513Y336743D01*
X212345Y335912D01*
X212345Y335534D01*
X212348Y335508D01*
X212346Y335482D01*
X212368Y335335D01*
X212385Y335188D01*
X212393Y335163D01*
X212397Y335137D01*
X212452Y334999D01*
X212502Y334860D01*
X212516Y334838D01*
X212526Y334813D01*
X212611Y334692D01*
X212691Y334567D01*
X212710Y334549D01*
X212725Y334527D01*
X212835Y334428D01*
X212942Y334325D01*
X212964Y334311D01*
X212984Y334294D01*
X213114Y334222D01*
X213241Y334146D01*
X213266Y334138D01*
X213289Y334125D01*
X213432Y334085D01*
X213573Y334040D01*
X213599Y334038D01*
X213624Y334030D01*
X213868Y334011D01*
X215487Y334011D01*
X215612Y334025D01*
X215738Y334032D01*
X215785Y334045D01*
X215833Y334051D01*
X215952Y334093D01*
X216073Y334128D01*
X216115Y334152D01*
X216161Y334168D01*
X216267Y334237D01*
X216377Y334298D01*
X216424Y334338D01*
X216454Y334357D01*
X216487Y334392D01*
X216564Y334457D01*
X216739Y334632D01*
X216818Y334731D01*
X216902Y334825D01*
X216926Y334867D01*
X216956Y334905D01*
X217010Y335019D01*
X217071Y335130D01*
X217084Y335177D01*
X217105Y335220D01*
X217131Y335344D01*
X217166Y335466D01*
X217171Y335526D01*
X217178Y335561D01*
X217177Y335609D01*
X217185Y335709D01*
X217185Y336852D01*
X219408Y339075D01*
X222552Y339075D01*
X224775Y336852D01*
X224775Y333708D01*
X222552Y331485D01*
X221409Y331485D01*
X221284Y331471D01*
X221158Y331464D01*
X221111Y331451D01*
X221063Y331445D01*
X220944Y331403D01*
X220823Y331368D01*
X220781Y331344D01*
X220735Y331328D01*
X220629Y331259D01*
X220519Y331198D01*
X220472Y331158D01*
X220442Y331139D01*
X220409Y331104D01*
X220332Y331039D01*
X218222Y328929D01*
X213868Y328929D01*
X213842Y328926D01*
X213816Y328928D01*
X213669Y328906D01*
X213522Y328889D01*
X213497Y328881D01*
X213471Y328877D01*
X213333Y328822D01*
X213194Y328772D01*
X213172Y328758D01*
X213147Y328748D01*
X213026Y328663D01*
X212901Y328583D01*
X212883Y328564D01*
X212861Y328549D01*
X212762Y328439D01*
X212659Y328332D01*
X212645Y328310D01*
X212628Y328290D01*
X212556Y328160D01*
X212480Y328033D01*
X212472Y328008D01*
X212459Y327985D01*
X212419Y327842D01*
X212374Y327701D01*
X212372Y327675D01*
X212364Y327650D01*
X212345Y327406D01*
X212345Y327028D01*
X211513Y326197D01*
X211497Y326177D01*
X211477Y326160D01*
X211389Y326040D01*
X211297Y325924D01*
X211286Y325900D01*
X211270Y325879D01*
X211211Y325743D01*
X211148Y325609D01*
X211142Y325583D01*
X211132Y325559D01*
X211106Y325413D01*
X211074Y325268D01*
X211075Y325242D01*
X211070Y325216D01*
X211078Y325068D01*
X211080Y324920D01*
X211087Y324894D01*
X211088Y324868D01*
X211129Y324726D01*
X211165Y324582D01*
X211177Y324559D01*
X211185Y324533D01*
X211257Y324404D01*
X211325Y324272D01*
X211342Y324252D01*
X211355Y324229D01*
X211513Y324043D01*
X212345Y323212D01*
X212345Y322834D01*
X212348Y322808D01*
X212346Y322782D01*
X212368Y322635D01*
X212385Y322488D01*
X212393Y322463D01*
X212397Y322437D01*
X212452Y322299D01*
X212502Y322160D01*
X212516Y322138D01*
X212526Y322113D01*
X212611Y321992D01*
X212691Y321867D01*
X212710Y321849D01*
X212725Y321827D01*
X212835Y321728D01*
X212942Y321625D01*
X212964Y321611D01*
X212984Y321594D01*
X213114Y321522D01*
X213241Y321446D01*
X213266Y321438D01*
X213289Y321425D01*
X213432Y321385D01*
X213573Y321340D01*
X213599Y321338D01*
X213624Y321330D01*
X213868Y321311D01*
X219492Y321311D01*
X220332Y320471D01*
X220431Y320392D01*
X220525Y320308D01*
X220567Y320284D01*
X220605Y320254D01*
X220719Y320200D01*
X220830Y320139D01*
X220877Y320126D01*
X220920Y320105D01*
X221044Y320079D01*
X221166Y320044D01*
X221226Y320039D01*
X221261Y320032D01*
X221309Y320033D01*
X221409Y320025D01*
X222552Y320025D01*
X224775Y317802D01*
X224775Y314658D01*
X222552Y312435D01*
X219408Y312435D01*
X217185Y314658D01*
X217185Y314706D01*
X217182Y314732D01*
X217184Y314758D01*
X217162Y314905D01*
X217145Y315052D01*
X217137Y315077D01*
X217133Y315103D01*
X217078Y315241D01*
X217028Y315380D01*
X217014Y315402D01*
X217004Y315427D01*
X216919Y315548D01*
X216839Y315673D01*
X216820Y315691D01*
X216805Y315713D01*
X216695Y315812D01*
X216588Y315915D01*
X216566Y315929D01*
X216546Y315946D01*
X216416Y316018D01*
X216289Y316094D01*
X216264Y316102D01*
X216241Y316115D01*
X216098Y316155D01*
X215957Y316200D01*
X215931Y316202D01*
X215906Y316210D01*
X215662Y316229D01*
X213868Y316229D01*
X213842Y316226D01*
X213816Y316228D01*
X213669Y316206D01*
X213522Y316189D01*
X213497Y316181D01*
X213471Y316177D01*
X213333Y316122D01*
X213194Y316072D01*
X213172Y316058D01*
X213147Y316048D01*
X213026Y315963D01*
X212901Y315883D01*
X212883Y315864D01*
X212861Y315849D01*
X212762Y315739D01*
X212659Y315632D01*
X212645Y315610D01*
X212628Y315590D01*
X212556Y315460D01*
X212480Y315333D01*
X212472Y315308D01*
X212459Y315285D01*
X212419Y315142D01*
X212374Y315001D01*
X212372Y314975D01*
X212364Y314950D01*
X212345Y314706D01*
X212345Y314328D01*
X211513Y313497D01*
X211497Y313477D01*
X211477Y313460D01*
X211389Y313340D01*
X211297Y313224D01*
X211286Y313200D01*
X211270Y313179D01*
X211211Y313043D01*
X211148Y312909D01*
X211142Y312883D01*
X211132Y312859D01*
X211106Y312713D01*
X211074Y312568D01*
X211075Y312542D01*
X211070Y312516D01*
X211078Y312368D01*
X211080Y312220D01*
X211087Y312194D01*
X211088Y312168D01*
X211129Y312026D01*
X211165Y311882D01*
X211177Y311859D01*
X211185Y311833D01*
X211257Y311704D01*
X211325Y311572D01*
X211342Y311552D01*
X211355Y311529D01*
X211513Y311343D01*
X212345Y310512D01*
X212345Y301628D01*
X211513Y300797D01*
X211497Y300777D01*
X211477Y300760D01*
X211389Y300640D01*
X211297Y300524D01*
X211286Y300500D01*
X211270Y300479D01*
X211211Y300343D01*
X211148Y300209D01*
X211142Y300183D01*
X211132Y300159D01*
X211106Y300013D01*
X211074Y299868D01*
X211075Y299842D01*
X211070Y299816D01*
X211078Y299668D01*
X211080Y299520D01*
X211087Y299494D01*
X211088Y299468D01*
X211129Y299326D01*
X211165Y299182D01*
X211177Y299159D01*
X211185Y299133D01*
X211257Y299004D01*
X211325Y298872D01*
X211342Y298852D01*
X211355Y298829D01*
X211513Y298643D01*
X212345Y297812D01*
X212345Y288928D01*
X211513Y288097D01*
X211497Y288077D01*
X211477Y288060D01*
X211389Y287940D01*
X211297Y287824D01*
X211286Y287800D01*
X211270Y287779D01*
X211211Y287643D01*
X211148Y287509D01*
X211142Y287483D01*
X211132Y287459D01*
X211106Y287313D01*
X211074Y287168D01*
X211075Y287142D01*
X211070Y287116D01*
X211078Y286968D01*
X211080Y286820D01*
X211087Y286794D01*
X211088Y286768D01*
X211129Y286626D01*
X211165Y286482D01*
X211177Y286459D01*
X211185Y286433D01*
X211257Y286304D01*
X211325Y286172D01*
X211342Y286152D01*
X211355Y286129D01*
X211513Y285943D01*
X212345Y285112D01*
X212345Y276228D01*
X211452Y275335D01*
X192408Y275335D01*
G37*
%LPD*%
%LPC*%
G36*
X73028Y275335D02*
X73028Y275335D01*
X72135Y276228D01*
X72135Y285112D01*
X72967Y285943D01*
X72983Y285963D01*
X73003Y285980D01*
X73091Y286100D01*
X73183Y286216D01*
X73194Y286240D01*
X73210Y286261D01*
X73269Y286397D01*
X73332Y286531D01*
X73338Y286557D01*
X73348Y286581D01*
X73374Y286727D01*
X73406Y286872D01*
X73405Y286898D01*
X73410Y286924D01*
X73402Y287072D01*
X73400Y287220D01*
X73393Y287246D01*
X73392Y287272D01*
X73351Y287414D01*
X73315Y287558D01*
X73303Y287581D01*
X73295Y287607D01*
X73223Y287736D01*
X73155Y287868D01*
X73138Y287888D01*
X73125Y287911D01*
X72967Y288097D01*
X72135Y288928D01*
X72135Y297812D01*
X72967Y298643D01*
X72983Y298663D01*
X73003Y298680D01*
X73091Y298800D01*
X73183Y298916D01*
X73194Y298940D01*
X73210Y298961D01*
X73269Y299097D01*
X73332Y299231D01*
X73338Y299257D01*
X73348Y299281D01*
X73374Y299427D01*
X73406Y299572D01*
X73405Y299598D01*
X73410Y299624D01*
X73402Y299772D01*
X73400Y299920D01*
X73393Y299946D01*
X73392Y299972D01*
X73351Y300114D01*
X73315Y300258D01*
X73303Y300281D01*
X73295Y300307D01*
X73223Y300436D01*
X73155Y300568D01*
X73138Y300588D01*
X73125Y300611D01*
X72967Y300797D01*
X72135Y301628D01*
X72135Y310512D01*
X72967Y311343D01*
X72983Y311363D01*
X73003Y311380D01*
X73091Y311500D01*
X73183Y311616D01*
X73194Y311640D01*
X73210Y311661D01*
X73269Y311797D01*
X73332Y311931D01*
X73338Y311957D01*
X73348Y311981D01*
X73374Y312127D01*
X73406Y312272D01*
X73405Y312298D01*
X73410Y312324D01*
X73402Y312472D01*
X73400Y312620D01*
X73393Y312646D01*
X73392Y312672D01*
X73351Y312814D01*
X73315Y312958D01*
X73303Y312981D01*
X73295Y313007D01*
X73223Y313136D01*
X73155Y313268D01*
X73138Y313288D01*
X73125Y313311D01*
X72967Y313497D01*
X72135Y314328D01*
X72135Y323212D01*
X72967Y324043D01*
X72983Y324063D01*
X73003Y324080D01*
X73091Y324200D01*
X73183Y324316D01*
X73194Y324340D01*
X73210Y324361D01*
X73269Y324497D01*
X73332Y324631D01*
X73338Y324657D01*
X73348Y324681D01*
X73374Y324827D01*
X73406Y324972D01*
X73405Y324998D01*
X73410Y325024D01*
X73402Y325172D01*
X73400Y325320D01*
X73393Y325346D01*
X73392Y325372D01*
X73351Y325514D01*
X73315Y325658D01*
X73303Y325681D01*
X73295Y325707D01*
X73223Y325836D01*
X73155Y325968D01*
X73138Y325988D01*
X73125Y326011D01*
X72967Y326197D01*
X72135Y327028D01*
X72135Y335912D01*
X72967Y336743D01*
X72983Y336763D01*
X73003Y336780D01*
X73091Y336900D01*
X73183Y337016D01*
X73194Y337040D01*
X73210Y337061D01*
X73269Y337197D01*
X73332Y337331D01*
X73338Y337357D01*
X73348Y337381D01*
X73374Y337527D01*
X73406Y337672D01*
X73405Y337698D01*
X73410Y337724D01*
X73402Y337872D01*
X73400Y338020D01*
X73393Y338046D01*
X73392Y338072D01*
X73351Y338214D01*
X73315Y338358D01*
X73303Y338381D01*
X73295Y338407D01*
X73223Y338536D01*
X73155Y338668D01*
X73138Y338688D01*
X73125Y338711D01*
X72967Y338897D01*
X72135Y339728D01*
X72135Y348612D01*
X72967Y349443D01*
X72983Y349463D01*
X73003Y349480D01*
X73091Y349600D01*
X73183Y349716D01*
X73194Y349740D01*
X73210Y349761D01*
X73269Y349897D01*
X73332Y350031D01*
X73338Y350057D01*
X73348Y350081D01*
X73374Y350227D01*
X73406Y350372D01*
X73405Y350398D01*
X73410Y350424D01*
X73402Y350572D01*
X73400Y350720D01*
X73393Y350746D01*
X73392Y350772D01*
X73351Y350914D01*
X73315Y351058D01*
X73303Y351081D01*
X73295Y351107D01*
X73223Y351236D01*
X73155Y351368D01*
X73138Y351388D01*
X73125Y351411D01*
X72967Y351597D01*
X72135Y352428D01*
X72135Y361312D01*
X73028Y362205D01*
X92072Y362205D01*
X92965Y361312D01*
X92965Y352428D01*
X92133Y351597D01*
X92117Y351577D01*
X92097Y351560D01*
X92009Y351440D01*
X91917Y351324D01*
X91906Y351300D01*
X91890Y351279D01*
X91831Y351143D01*
X91768Y351009D01*
X91762Y350983D01*
X91752Y350959D01*
X91726Y350813D01*
X91694Y350668D01*
X91695Y350642D01*
X91690Y350616D01*
X91698Y350468D01*
X91700Y350320D01*
X91707Y350294D01*
X91708Y350268D01*
X91749Y350126D01*
X91785Y349982D01*
X91797Y349959D01*
X91805Y349933D01*
X91877Y349804D01*
X91945Y349672D01*
X91962Y349652D01*
X91975Y349629D01*
X92133Y349443D01*
X92965Y348612D01*
X92965Y339728D01*
X92133Y338897D01*
X92117Y338877D01*
X92097Y338860D01*
X92009Y338740D01*
X91917Y338624D01*
X91906Y338600D01*
X91890Y338579D01*
X91831Y338443D01*
X91768Y338309D01*
X91762Y338283D01*
X91752Y338259D01*
X91726Y338113D01*
X91694Y337968D01*
X91695Y337942D01*
X91690Y337916D01*
X91698Y337768D01*
X91700Y337620D01*
X91707Y337594D01*
X91708Y337568D01*
X91749Y337426D01*
X91785Y337282D01*
X91797Y337259D01*
X91805Y337233D01*
X91877Y337104D01*
X91945Y336972D01*
X91962Y336952D01*
X91975Y336929D01*
X92133Y336743D01*
X92965Y335912D01*
X92965Y327028D01*
X92133Y326197D01*
X92117Y326177D01*
X92097Y326160D01*
X92009Y326040D01*
X91917Y325924D01*
X91906Y325900D01*
X91890Y325879D01*
X91831Y325743D01*
X91768Y325609D01*
X91762Y325583D01*
X91752Y325559D01*
X91726Y325413D01*
X91694Y325268D01*
X91695Y325242D01*
X91690Y325216D01*
X91698Y325068D01*
X91700Y324920D01*
X91707Y324894D01*
X91708Y324868D01*
X91749Y324726D01*
X91785Y324582D01*
X91797Y324559D01*
X91805Y324533D01*
X91877Y324404D01*
X91945Y324272D01*
X91962Y324252D01*
X91975Y324229D01*
X92133Y324043D01*
X92965Y323212D01*
X92965Y314328D01*
X92133Y313497D01*
X92117Y313477D01*
X92097Y313460D01*
X92009Y313340D01*
X91917Y313224D01*
X91906Y313200D01*
X91890Y313179D01*
X91831Y313043D01*
X91768Y312909D01*
X91762Y312883D01*
X91752Y312859D01*
X91726Y312713D01*
X91694Y312568D01*
X91695Y312542D01*
X91690Y312516D01*
X91698Y312368D01*
X91700Y312220D01*
X91707Y312194D01*
X91708Y312168D01*
X91749Y312026D01*
X91785Y311882D01*
X91797Y311859D01*
X91805Y311833D01*
X91877Y311704D01*
X91945Y311572D01*
X91962Y311552D01*
X91975Y311529D01*
X92133Y311343D01*
X92965Y310512D01*
X92965Y301628D01*
X92133Y300797D01*
X92117Y300777D01*
X92097Y300760D01*
X92009Y300640D01*
X91917Y300524D01*
X91906Y300500D01*
X91890Y300479D01*
X91831Y300343D01*
X91768Y300209D01*
X91762Y300183D01*
X91752Y300159D01*
X91726Y300013D01*
X91694Y299868D01*
X91695Y299842D01*
X91690Y299816D01*
X91698Y299668D01*
X91700Y299520D01*
X91707Y299494D01*
X91708Y299468D01*
X91749Y299326D01*
X91785Y299182D01*
X91797Y299159D01*
X91805Y299133D01*
X91877Y299004D01*
X91945Y298872D01*
X91962Y298852D01*
X91975Y298829D01*
X92133Y298643D01*
X92965Y297812D01*
X92965Y288928D01*
X92133Y288097D01*
X92117Y288077D01*
X92097Y288060D01*
X92009Y287940D01*
X91917Y287824D01*
X91906Y287800D01*
X91890Y287779D01*
X91831Y287643D01*
X91768Y287509D01*
X91762Y287483D01*
X91752Y287459D01*
X91726Y287313D01*
X91694Y287168D01*
X91695Y287142D01*
X91690Y287116D01*
X91698Y286968D01*
X91700Y286820D01*
X91707Y286794D01*
X91708Y286768D01*
X91749Y286626D01*
X91785Y286482D01*
X91797Y286459D01*
X91805Y286433D01*
X91877Y286304D01*
X91945Y286172D01*
X91962Y286152D01*
X91975Y286129D01*
X92133Y285943D01*
X92965Y285112D01*
X92965Y276228D01*
X92072Y275335D01*
X73028Y275335D01*
G37*
%LPD*%
%LPC*%
G36*
X144144Y247649D02*
X144144Y247649D01*
X144144Y258699D01*
X144141Y258725D01*
X144143Y258751D01*
X144121Y258898D01*
X144104Y259045D01*
X144096Y259070D01*
X144092Y259093D01*
X144115Y259166D01*
X144117Y259192D01*
X144125Y259217D01*
X144144Y259461D01*
X144144Y270511D01*
X146385Y270511D01*
X147031Y270338D01*
X147610Y270003D01*
X148188Y269425D01*
X148194Y269416D01*
X148210Y269404D01*
X148225Y269388D01*
X148238Y269377D01*
X148267Y269344D01*
X148366Y269271D01*
X148460Y269191D01*
X148506Y269167D01*
X148547Y269137D01*
X148660Y269088D01*
X148770Y269032D01*
X148820Y269019D01*
X148867Y268999D01*
X148989Y268977D01*
X149108Y268947D01*
X149160Y268946D01*
X149210Y268937D01*
X149333Y268943D01*
X149457Y268941D01*
X149507Y268952D01*
X149559Y268955D01*
X149677Y268989D01*
X149797Y269015D01*
X149844Y269037D01*
X149893Y269051D01*
X150001Y269112D01*
X150112Y269164D01*
X150152Y269196D01*
X150198Y269222D01*
X150384Y269380D01*
X150498Y269495D01*
X159382Y269495D01*
X160213Y268663D01*
X160233Y268647D01*
X160250Y268627D01*
X160370Y268539D01*
X160486Y268447D01*
X160510Y268436D01*
X160531Y268420D01*
X160667Y268361D01*
X160801Y268298D01*
X160827Y268292D01*
X160851Y268282D01*
X160997Y268256D01*
X161142Y268224D01*
X161168Y268225D01*
X161194Y268220D01*
X161342Y268228D01*
X161490Y268230D01*
X161516Y268237D01*
X161542Y268238D01*
X161684Y268279D01*
X161828Y268315D01*
X161851Y268327D01*
X161877Y268335D01*
X162006Y268407D01*
X162138Y268475D01*
X162158Y268492D01*
X162181Y268505D01*
X162367Y268663D01*
X163198Y269495D01*
X172082Y269495D01*
X172913Y268663D01*
X172933Y268647D01*
X172950Y268627D01*
X173070Y268539D01*
X173186Y268447D01*
X173210Y268436D01*
X173231Y268420D01*
X173367Y268361D01*
X173501Y268298D01*
X173527Y268292D01*
X173551Y268282D01*
X173697Y268256D01*
X173842Y268224D01*
X173868Y268225D01*
X173894Y268220D01*
X174042Y268228D01*
X174190Y268230D01*
X174216Y268237D01*
X174242Y268238D01*
X174384Y268279D01*
X174528Y268315D01*
X174551Y268327D01*
X174577Y268335D01*
X174706Y268407D01*
X174838Y268475D01*
X174858Y268492D01*
X174881Y268505D01*
X175067Y268663D01*
X175898Y269495D01*
X184782Y269495D01*
X185675Y268602D01*
X185675Y249558D01*
X184782Y248665D01*
X175898Y248665D01*
X175067Y249497D01*
X175047Y249513D01*
X175030Y249533D01*
X174910Y249621D01*
X174794Y249713D01*
X174770Y249724D01*
X174749Y249740D01*
X174613Y249799D01*
X174479Y249862D01*
X174453Y249868D01*
X174429Y249878D01*
X174283Y249904D01*
X174138Y249936D01*
X174112Y249935D01*
X174086Y249940D01*
X173938Y249932D01*
X173790Y249930D01*
X173764Y249923D01*
X173738Y249922D01*
X173596Y249881D01*
X173452Y249845D01*
X173429Y249833D01*
X173403Y249825D01*
X173274Y249753D01*
X173142Y249685D01*
X173122Y249668D01*
X173099Y249655D01*
X172913Y249497D01*
X172082Y248665D01*
X163198Y248665D01*
X162367Y249497D01*
X162347Y249513D01*
X162330Y249533D01*
X162210Y249621D01*
X162094Y249713D01*
X162070Y249724D01*
X162049Y249740D01*
X161913Y249799D01*
X161779Y249862D01*
X161753Y249868D01*
X161729Y249878D01*
X161583Y249904D01*
X161438Y249936D01*
X161412Y249935D01*
X161386Y249940D01*
X161238Y249932D01*
X161090Y249930D01*
X161064Y249923D01*
X161038Y249922D01*
X160896Y249881D01*
X160752Y249845D01*
X160729Y249833D01*
X160703Y249825D01*
X160574Y249753D01*
X160442Y249685D01*
X160422Y249668D01*
X160399Y249655D01*
X160213Y249497D01*
X159382Y248665D01*
X150498Y248665D01*
X150384Y248780D01*
X150343Y248812D01*
X150309Y248850D01*
X150207Y248920D01*
X150111Y248997D01*
X150064Y249019D01*
X150022Y249048D01*
X149907Y249093D01*
X149796Y249145D01*
X149745Y249156D01*
X149697Y249175D01*
X149575Y249193D01*
X149455Y249219D01*
X149403Y249218D01*
X149352Y249225D01*
X149229Y249215D01*
X149107Y249213D01*
X149057Y249200D01*
X149005Y249196D01*
X148888Y249158D01*
X148769Y249128D01*
X148723Y249104D01*
X148674Y249088D01*
X148568Y249025D01*
X148459Y248968D01*
X148420Y248935D01*
X148411Y248930D01*
X148409Y248929D01*
X148375Y248908D01*
X148307Y248842D01*
X148225Y248772D01*
X148208Y248755D01*
X148193Y248742D01*
X148187Y248734D01*
X147610Y248157D01*
X147031Y247822D01*
X146385Y247649D01*
X144144Y247649D01*
G37*
%LPD*%
G36*
X128435Y153954D02*
X128435Y153954D01*
X128583Y153956D01*
X128609Y153963D01*
X128635Y153964D01*
X128777Y154005D01*
X128921Y154041D01*
X128945Y154053D01*
X128970Y154061D01*
X129099Y154133D01*
X129231Y154201D01*
X129251Y154218D01*
X129274Y154231D01*
X129460Y154389D01*
X141285Y166214D01*
X143220Y168149D01*
X174045Y168149D01*
X174170Y168163D01*
X174296Y168170D01*
X174343Y168183D01*
X174391Y168189D01*
X174510Y168231D01*
X174631Y168266D01*
X174673Y168290D01*
X174719Y168306D01*
X174825Y168375D01*
X174935Y168436D01*
X174982Y168476D01*
X175012Y168495D01*
X175045Y168530D01*
X175122Y168595D01*
X175884Y169357D01*
X175946Y169436D01*
X176016Y169508D01*
X176054Y169572D01*
X176100Y169630D01*
X176143Y169721D01*
X176195Y169807D01*
X176217Y169878D01*
X176249Y169945D01*
X176270Y170043D01*
X176301Y170139D01*
X176307Y170213D01*
X176323Y170286D01*
X176321Y170386D01*
X176329Y170486D01*
X176318Y170560D01*
X176317Y170634D01*
X176292Y170731D01*
X176277Y170831D01*
X176250Y170900D01*
X176232Y170972D01*
X176186Y171061D01*
X176149Y171155D01*
X176106Y171216D01*
X176072Y171282D01*
X176007Y171359D01*
X175950Y171441D01*
X175894Y171491D01*
X175846Y171547D01*
X175765Y171607D01*
X175691Y171674D01*
X175626Y171710D01*
X175566Y171755D01*
X175474Y171794D01*
X175386Y171843D01*
X175314Y171863D01*
X175246Y171893D01*
X175147Y171910D01*
X175050Y171938D01*
X174950Y171946D01*
X174903Y171954D01*
X174867Y171952D01*
X174807Y171957D01*
X148597Y171957D01*
X146811Y173743D01*
X146811Y185558D01*
X146797Y185684D01*
X146790Y185810D01*
X146777Y185856D01*
X146771Y185904D01*
X146729Y186023D01*
X146694Y186145D01*
X146670Y186187D01*
X146654Y186233D01*
X146585Y186339D01*
X146524Y186449D01*
X146484Y186495D01*
X146465Y186525D01*
X146430Y186559D01*
X146365Y186635D01*
X143591Y189410D01*
X143570Y189426D01*
X143553Y189446D01*
X143434Y189534D01*
X143318Y189626D01*
X143294Y189638D01*
X143273Y189653D01*
X143137Y189712D01*
X143002Y189775D01*
X142977Y189781D01*
X142953Y189791D01*
X142806Y189818D01*
X142662Y189849D01*
X142636Y189848D01*
X142610Y189853D01*
X142461Y189845D01*
X142313Y189843D01*
X142288Y189836D01*
X142262Y189835D01*
X142119Y189794D01*
X141975Y189758D01*
X141952Y189746D01*
X141927Y189738D01*
X141797Y189666D01*
X141666Y189598D01*
X141646Y189581D01*
X141623Y189568D01*
X141436Y189410D01*
X141272Y189245D01*
X138128Y189245D01*
X135905Y191468D01*
X135905Y192547D01*
X135891Y192667D01*
X135886Y192789D01*
X135871Y192840D01*
X135865Y192893D01*
X135824Y193007D01*
X135792Y193124D01*
X135766Y193171D01*
X135748Y193221D01*
X135682Y193323D01*
X135623Y193429D01*
X135588Y193469D01*
X135559Y193514D01*
X135472Y193598D01*
X135390Y193688D01*
X135347Y193719D01*
X135308Y193756D01*
X135204Y193818D01*
X135104Y193888D01*
X135055Y193907D01*
X135009Y193935D01*
X134894Y193972D01*
X134781Y194017D01*
X134728Y194025D01*
X134677Y194041D01*
X134556Y194051D01*
X134436Y194069D01*
X134383Y194065D01*
X134330Y194069D01*
X134210Y194051D01*
X134089Y194041D01*
X134038Y194025D01*
X133985Y194017D01*
X133872Y193972D01*
X133757Y193936D01*
X133697Y193903D01*
X133661Y193889D01*
X133623Y193862D01*
X133542Y193818D01*
X132494Y193125D01*
X132414Y193057D01*
X132327Y192997D01*
X132281Y192946D01*
X132227Y192901D01*
X132164Y192817D01*
X132094Y192738D01*
X132060Y192678D01*
X132018Y192622D01*
X131976Y192526D01*
X131925Y192433D01*
X131906Y192366D01*
X131878Y192303D01*
X131859Y192199D01*
X131830Y192098D01*
X131823Y192006D01*
X131814Y191960D01*
X131816Y191922D01*
X131811Y191854D01*
X131811Y165379D01*
X123338Y156906D01*
X123275Y156828D01*
X123205Y156755D01*
X123167Y156691D01*
X123121Y156633D01*
X123078Y156542D01*
X123027Y156456D01*
X123004Y156385D01*
X122972Y156318D01*
X122951Y156220D01*
X122920Y156124D01*
X122914Y156050D01*
X122899Y155977D01*
X122901Y155877D01*
X122892Y155777D01*
X122903Y155703D01*
X122905Y155629D01*
X122929Y155532D01*
X122944Y155432D01*
X122972Y155363D01*
X122990Y155291D01*
X123036Y155201D01*
X123073Y155108D01*
X123115Y155047D01*
X123149Y154981D01*
X123215Y154904D01*
X123272Y154822D01*
X123327Y154772D01*
X123375Y154716D01*
X123456Y154656D01*
X123531Y154589D01*
X123596Y154553D01*
X123656Y154508D01*
X123748Y154469D01*
X123836Y154420D01*
X123907Y154400D01*
X123976Y154370D01*
X124074Y154353D01*
X124171Y154325D01*
X124271Y154317D01*
X124319Y154309D01*
X124354Y154311D01*
X124415Y154306D01*
X127408Y154306D01*
X127463Y154265D01*
X127579Y154173D01*
X127603Y154162D01*
X127624Y154146D01*
X127760Y154087D01*
X127894Y154024D01*
X127920Y154018D01*
X127944Y154008D01*
X128090Y153982D01*
X128235Y153950D01*
X128261Y153951D01*
X128287Y153946D01*
X128435Y153954D01*
G37*
%LPC*%
G36*
X90866Y209165D02*
X90866Y209165D01*
X85509Y214521D01*
X85509Y222097D01*
X86721Y223309D01*
X86737Y223330D01*
X86757Y223347D01*
X86845Y223466D01*
X86938Y223582D01*
X86949Y223606D01*
X86964Y223627D01*
X87023Y223763D01*
X87087Y223897D01*
X87092Y223923D01*
X87102Y223947D01*
X87129Y224093D01*
X87160Y224238D01*
X87159Y224264D01*
X87164Y224290D01*
X87156Y224439D01*
X87154Y224587D01*
X87148Y224612D01*
X87146Y224638D01*
X87105Y224781D01*
X87069Y224925D01*
X87057Y224948D01*
X87050Y224973D01*
X86977Y225103D01*
X86909Y225234D01*
X86892Y225254D01*
X86879Y225277D01*
X86721Y225464D01*
X68801Y243384D01*
X68699Y243465D01*
X68601Y243552D01*
X68562Y243573D01*
X68528Y243600D01*
X68410Y243656D01*
X68295Y243719D01*
X68253Y243730D01*
X68213Y243749D01*
X68085Y243777D01*
X67959Y243811D01*
X67904Y243816D01*
X67872Y243822D01*
X67823Y243822D01*
X67715Y243830D01*
X50850Y243734D01*
X50729Y243720D01*
X50607Y243713D01*
X50557Y243699D01*
X50504Y243692D01*
X50389Y243651D01*
X50272Y243617D01*
X50226Y243591D01*
X50177Y243573D01*
X50075Y243506D01*
X49968Y243447D01*
X49917Y243403D01*
X49885Y243382D01*
X49853Y243349D01*
X49782Y243288D01*
X48954Y242461D01*
X45811Y242461D01*
X43588Y244684D01*
X43588Y247827D01*
X45811Y250050D01*
X48954Y250050D01*
X49743Y249262D01*
X49845Y249180D01*
X49943Y249094D01*
X49981Y249073D01*
X50016Y249045D01*
X50134Y248989D01*
X50249Y248927D01*
X50291Y248915D01*
X50331Y248896D01*
X50459Y248869D01*
X50585Y248834D01*
X50639Y248830D01*
X50672Y248823D01*
X50721Y248824D01*
X50828Y248816D01*
X67713Y248911D01*
X67792Y248921D01*
X69385Y248921D01*
X69388Y248921D01*
X69393Y248921D01*
X70444Y248927D01*
X71185Y248186D01*
X71188Y248184D01*
X71191Y248180D01*
X72274Y247109D01*
X72280Y247100D01*
X72314Y247068D01*
X72375Y246996D01*
X91471Y227900D01*
X91570Y227822D01*
X91663Y227737D01*
X91706Y227714D01*
X91744Y227684D01*
X91858Y227630D01*
X91968Y227568D01*
X92015Y227555D01*
X92059Y227535D01*
X92182Y227508D01*
X92304Y227474D01*
X92365Y227469D01*
X92399Y227461D01*
X92447Y227462D01*
X92548Y227454D01*
X98441Y227454D01*
X103798Y222097D01*
X103798Y214521D01*
X98441Y209165D01*
X90866Y209165D01*
G37*
%LPD*%
%LPC*%
G36*
X25453Y244039D02*
X25453Y244039D01*
X20859Y245942D01*
X17342Y249459D01*
X15439Y254053D01*
X15439Y259027D01*
X17342Y263621D01*
X20859Y267138D01*
X25453Y269041D01*
X30427Y269041D01*
X35021Y267138D01*
X38538Y263621D01*
X40441Y259027D01*
X40441Y254053D01*
X38538Y249459D01*
X35021Y245942D01*
X30427Y244039D01*
X25453Y244039D01*
G37*
%LPD*%
%LPC*%
G36*
X20373Y191969D02*
X20373Y191969D01*
X15779Y193872D01*
X12262Y197389D01*
X10359Y201983D01*
X10359Y206957D01*
X12262Y211551D01*
X15779Y215068D01*
X20373Y216971D01*
X25347Y216971D01*
X29941Y215068D01*
X33458Y211551D01*
X35361Y206957D01*
X35361Y201983D01*
X33458Y197389D01*
X29941Y193872D01*
X25347Y191969D01*
X20373Y191969D01*
G37*
%LPD*%
%LPC*%
G36*
X215953Y34489D02*
X215953Y34489D01*
X211359Y36392D01*
X207842Y39909D01*
X205939Y44503D01*
X205939Y49477D01*
X207842Y54071D01*
X211359Y57588D01*
X215953Y59491D01*
X220927Y59491D01*
X225521Y57588D01*
X229038Y54071D01*
X230941Y49477D01*
X230941Y44503D01*
X229038Y39909D01*
X225521Y36392D01*
X220927Y34489D01*
X215953Y34489D01*
G37*
%LPD*%
G36*
X220407Y73421D02*
X220407Y73421D01*
X220534Y73428D01*
X220580Y73441D01*
X220628Y73447D01*
X220747Y73489D01*
X220868Y73524D01*
X220911Y73548D01*
X220956Y73564D01*
X221062Y73633D01*
X221173Y73694D01*
X221219Y73734D01*
X221249Y73753D01*
X221282Y73788D01*
X221359Y73853D01*
X224169Y76663D01*
X224248Y76762D01*
X224332Y76856D01*
X224356Y76898D01*
X224386Y76936D01*
X224440Y77050D01*
X224501Y77161D01*
X224514Y77208D01*
X224535Y77251D01*
X224561Y77375D01*
X224596Y77496D01*
X224601Y77557D01*
X224608Y77592D01*
X224607Y77640D01*
X224615Y77740D01*
X224615Y86532D01*
X225907Y87823D01*
X225923Y87843D01*
X225943Y87860D01*
X226031Y87980D01*
X226123Y88096D01*
X226134Y88120D01*
X226150Y88141D01*
X226209Y88277D01*
X226272Y88411D01*
X226278Y88437D01*
X226288Y88461D01*
X226314Y88607D01*
X226346Y88752D01*
X226345Y88778D01*
X226350Y88804D01*
X226342Y88952D01*
X226340Y89100D01*
X226333Y89126D01*
X226332Y89152D01*
X226291Y89294D01*
X226255Y89438D01*
X226243Y89461D01*
X226235Y89487D01*
X226163Y89616D01*
X226095Y89748D01*
X226078Y89768D01*
X226065Y89791D01*
X225907Y89977D01*
X224615Y91268D01*
X224615Y103532D01*
X225508Y104425D01*
X234300Y104425D01*
X234425Y104439D01*
X234552Y104446D01*
X234598Y104459D01*
X234646Y104465D01*
X234765Y104507D01*
X234886Y104542D01*
X234929Y104566D01*
X234974Y104582D01*
X235080Y104651D01*
X235191Y104712D01*
X235237Y104752D01*
X235267Y104771D01*
X235300Y104806D01*
X235377Y104871D01*
X235775Y105269D01*
X235854Y105368D01*
X235938Y105462D01*
X235962Y105504D01*
X235992Y105542D01*
X236046Y105656D01*
X236107Y105767D01*
X236120Y105814D01*
X236141Y105857D01*
X236167Y105981D01*
X236202Y106102D01*
X236207Y106163D01*
X236214Y106198D01*
X236213Y106246D01*
X236221Y106346D01*
X236221Y117160D01*
X236210Y117260D01*
X236208Y117360D01*
X236190Y117432D01*
X236181Y117506D01*
X236148Y117601D01*
X236123Y117698D01*
X236089Y117764D01*
X236064Y117834D01*
X236009Y117919D01*
X235963Y118008D01*
X235915Y118065D01*
X235875Y118127D01*
X235803Y118197D01*
X235738Y118273D01*
X235678Y118317D01*
X235624Y118369D01*
X235538Y118421D01*
X235457Y118480D01*
X235389Y118510D01*
X235325Y118548D01*
X235229Y118579D01*
X235137Y118618D01*
X235064Y118632D01*
X234993Y118654D01*
X234893Y118662D01*
X234794Y118680D01*
X234720Y118676D01*
X234646Y118682D01*
X234546Y118667D01*
X234446Y118662D01*
X234375Y118642D01*
X234301Y118631D01*
X234208Y118593D01*
X234111Y118566D01*
X234046Y118529D01*
X233977Y118502D01*
X233895Y118445D01*
X233807Y118395D01*
X233731Y118330D01*
X233691Y118303D01*
X233667Y118276D01*
X233621Y118237D01*
X216521Y101137D01*
X216442Y101038D01*
X216358Y100944D01*
X216334Y100902D01*
X216304Y100864D01*
X216250Y100750D01*
X216189Y100639D01*
X216176Y100593D01*
X216155Y100549D01*
X216129Y100425D01*
X216094Y100304D01*
X216089Y100243D01*
X216082Y100208D01*
X216083Y100160D01*
X216075Y100060D01*
X216075Y91268D01*
X214783Y89977D01*
X214767Y89957D01*
X214747Y89940D01*
X214659Y89820D01*
X214567Y89704D01*
X214556Y89680D01*
X214540Y89659D01*
X214481Y89523D01*
X214418Y89389D01*
X214412Y89363D01*
X214402Y89339D01*
X214376Y89193D01*
X214344Y89048D01*
X214345Y89022D01*
X214340Y88996D01*
X214348Y88848D01*
X214350Y88700D01*
X214357Y88674D01*
X214358Y88648D01*
X214399Y88506D01*
X214435Y88362D01*
X214447Y88339D01*
X214455Y88313D01*
X214527Y88184D01*
X214595Y88052D01*
X214612Y88032D01*
X214625Y88009D01*
X214783Y87823D01*
X216075Y86532D01*
X216075Y74930D01*
X216078Y74904D01*
X216076Y74878D01*
X216098Y74731D01*
X216115Y74584D01*
X216123Y74559D01*
X216127Y74533D01*
X216182Y74395D01*
X216232Y74256D01*
X216246Y74234D01*
X216256Y74209D01*
X216341Y74088D01*
X216421Y73963D01*
X216440Y73945D01*
X216455Y73923D01*
X216565Y73824D01*
X216672Y73721D01*
X216694Y73707D01*
X216714Y73690D01*
X216844Y73618D01*
X216971Y73542D01*
X216996Y73534D01*
X217019Y73521D01*
X217162Y73481D01*
X217303Y73436D01*
X217329Y73434D01*
X217354Y73426D01*
X217598Y73407D01*
X220282Y73407D01*
X220407Y73421D01*
G37*
G36*
X123457Y202614D02*
X123457Y202614D01*
X123561Y202619D01*
X123629Y202639D01*
X123700Y202650D01*
X123796Y202688D01*
X123895Y202717D01*
X123957Y202752D01*
X123987Y202762D01*
X123991Y202765D01*
X124024Y202778D01*
X124109Y202837D01*
X124199Y202887D01*
X124255Y202935D01*
X124279Y202951D01*
X124291Y202963D01*
X124311Y202976D01*
X124336Y203004D01*
X124385Y203046D01*
X124389Y203051D01*
X124650Y203311D01*
X124779Y203325D01*
X124784Y203327D01*
X124788Y203327D01*
X124948Y203385D01*
X125108Y203441D01*
X125113Y203444D01*
X125117Y203445D01*
X125132Y203455D01*
X125318Y203565D01*
X133440Y209276D01*
X133447Y209282D01*
X133454Y209287D01*
X133641Y209445D01*
X134278Y210082D01*
X134407Y210096D01*
X134412Y210098D01*
X134416Y210099D01*
X134578Y210156D01*
X134736Y210212D01*
X134741Y210215D01*
X134745Y210216D01*
X134760Y210226D01*
X134947Y210336D01*
X135015Y210384D01*
X135132Y210488D01*
X135252Y210590D01*
X135262Y210604D01*
X135275Y210616D01*
X135366Y210744D01*
X135459Y210871D01*
X135466Y210886D01*
X135476Y210900D01*
X135534Y211046D01*
X135597Y211191D01*
X135600Y211208D01*
X135606Y211224D01*
X135631Y211378D01*
X135659Y211534D01*
X135658Y211551D01*
X135660Y211568D01*
X135649Y211725D01*
X135641Y211882D01*
X135636Y211898D01*
X135635Y211915D01*
X135587Y212066D01*
X135544Y212217D01*
X135536Y212232D01*
X135530Y212248D01*
X135451Y212383D01*
X135374Y212521D01*
X135361Y212536D01*
X135354Y212548D01*
X135325Y212578D01*
X135215Y212707D01*
X134838Y213084D01*
X134838Y216228D01*
X135646Y217036D01*
X135725Y217135D01*
X135809Y217229D01*
X135833Y217271D01*
X135863Y217309D01*
X135917Y217423D01*
X135978Y217534D01*
X135991Y217580D01*
X136012Y217624D01*
X136038Y217747D01*
X136073Y217869D01*
X136077Y217930D01*
X136085Y217964D01*
X136084Y218012D01*
X136092Y218113D01*
X136092Y225365D01*
X136078Y225491D01*
X136071Y225617D01*
X136058Y225663D01*
X136052Y225711D01*
X136010Y225830D01*
X135975Y225952D01*
X135951Y225994D01*
X135935Y226039D01*
X135866Y226146D01*
X135804Y226256D01*
X135765Y226302D01*
X135746Y226332D01*
X135711Y226366D01*
X135646Y226442D01*
X124697Y237392D01*
X124619Y237453D01*
X124548Y237522D01*
X124483Y237561D01*
X124424Y237608D01*
X124334Y237651D01*
X124249Y237702D01*
X124177Y237725D01*
X124109Y237757D01*
X124012Y237778D01*
X123917Y237808D01*
X123842Y237815D01*
X123768Y237830D01*
X123669Y237829D01*
X123570Y237837D01*
X123495Y237826D01*
X123420Y237824D01*
X123323Y237800D01*
X123225Y237786D01*
X123155Y237758D01*
X123082Y237739D01*
X122993Y237694D01*
X122901Y237657D01*
X122839Y237614D01*
X122772Y237580D01*
X122696Y237515D01*
X122615Y237459D01*
X122564Y237403D01*
X122506Y237354D01*
X122447Y237274D01*
X122381Y237201D01*
X122344Y237135D01*
X122299Y237074D01*
X122260Y236983D01*
X122212Y236896D01*
X122191Y236823D01*
X122161Y236754D01*
X122144Y236656D01*
X122116Y236561D01*
X122108Y236459D01*
X122099Y236411D01*
X122101Y236376D01*
X122096Y236317D01*
X122088Y231006D01*
X122106Y230846D01*
X122122Y230685D01*
X122126Y230672D01*
X122127Y230660D01*
X122151Y230594D01*
X122151Y230591D01*
X122156Y230580D01*
X122182Y230508D01*
X122233Y230354D01*
X122241Y230342D01*
X122111Y229648D01*
X122110Y229631D01*
X122106Y229615D01*
X122086Y229371D01*
X122084Y228647D01*
X122079Y228637D01*
X122049Y228599D01*
X121995Y228485D01*
X121933Y228374D01*
X121920Y228328D01*
X121900Y228284D01*
X121873Y228161D01*
X121838Y228039D01*
X121833Y227979D01*
X121826Y227944D01*
X121826Y227895D01*
X121818Y227795D01*
X121782Y204123D01*
X121794Y204021D01*
X121796Y203917D01*
X121813Y203848D01*
X121821Y203777D01*
X121856Y203680D01*
X121882Y203580D01*
X121915Y203516D01*
X121939Y203449D01*
X121994Y203362D01*
X122042Y203270D01*
X122088Y203216D01*
X122127Y203156D01*
X122201Y203084D01*
X122268Y203005D01*
X122326Y202963D01*
X122377Y202913D01*
X122466Y202860D01*
X122549Y202799D01*
X122615Y202771D01*
X122676Y202734D01*
X122775Y202702D01*
X122869Y202661D01*
X122940Y202649D01*
X123008Y202627D01*
X123111Y202619D01*
X123213Y202601D01*
X123284Y202604D01*
X123355Y202599D01*
X123457Y202614D01*
G37*
%LPC*%
G36*
X63947Y385975D02*
X63947Y385975D01*
X60078Y387578D01*
X57118Y390538D01*
X55515Y394407D01*
X55515Y398593D01*
X57118Y402462D01*
X60078Y405422D01*
X63947Y407025D01*
X68133Y407025D01*
X72002Y405422D01*
X74962Y402462D01*
X76565Y398593D01*
X76565Y394407D01*
X74962Y390538D01*
X72002Y387578D01*
X68133Y385975D01*
X63947Y385975D01*
G37*
%LPD*%
%LPC*%
G36*
X130508Y35575D02*
X130508Y35575D01*
X128285Y37798D01*
X128285Y40942D01*
X130508Y43165D01*
X130932Y43165D01*
X131058Y43179D01*
X131184Y43186D01*
X131230Y43199D01*
X131278Y43205D01*
X131397Y43247D01*
X131519Y43282D01*
X131561Y43306D01*
X131607Y43322D01*
X131713Y43391D01*
X131823Y43452D01*
X131869Y43492D01*
X131899Y43511D01*
X131933Y43546D01*
X132009Y43611D01*
X133674Y45276D01*
X133691Y45297D01*
X133711Y45314D01*
X133799Y45433D01*
X133891Y45549D01*
X133902Y45573D01*
X133918Y45594D01*
X133977Y45730D01*
X134040Y45864D01*
X134046Y45890D01*
X134056Y45914D01*
X134082Y46060D01*
X134113Y46205D01*
X134113Y46231D01*
X134118Y46257D01*
X134110Y46406D01*
X134107Y46553D01*
X134101Y46579D01*
X134100Y46605D01*
X134059Y46748D01*
X134022Y46891D01*
X134010Y46915D01*
X134003Y46940D01*
X133930Y47070D01*
X133863Y47201D01*
X133857Y47208D01*
X133857Y70609D01*
X134750Y71502D01*
X142110Y71502D01*
X143003Y70609D01*
X143003Y47247D01*
X141925Y46170D01*
X141853Y46079D01*
X141852Y46078D01*
X141851Y46077D01*
X141846Y46071D01*
X141762Y45977D01*
X141738Y45934D01*
X141708Y45897D01*
X141654Y45782D01*
X141593Y45672D01*
X141580Y45625D01*
X141559Y45581D01*
X141533Y45458D01*
X141498Y45336D01*
X141493Y45275D01*
X141486Y45241D01*
X141487Y45193D01*
X141479Y45092D01*
X141479Y44972D01*
X141490Y44873D01*
X141492Y44772D01*
X141510Y44700D01*
X141519Y44626D01*
X141552Y44532D01*
X141577Y44434D01*
X141611Y44368D01*
X141636Y44298D01*
X141686Y44221D01*
X141640Y44219D01*
X141569Y44198D01*
X141495Y44187D01*
X141402Y44150D01*
X141305Y44122D01*
X141240Y44086D01*
X141171Y44058D01*
X141089Y44001D01*
X141001Y43952D01*
X140925Y43887D01*
X140885Y43859D01*
X140861Y43833D01*
X140815Y43793D01*
X136321Y39299D01*
X136242Y39200D01*
X136158Y39106D01*
X136134Y39064D01*
X136104Y39026D01*
X136050Y38912D01*
X135989Y38801D01*
X135976Y38755D01*
X135955Y38711D01*
X135929Y38588D01*
X135894Y38466D01*
X135889Y38405D01*
X135882Y38370D01*
X135883Y38322D01*
X135875Y38222D01*
X135875Y37798D01*
X133652Y35575D01*
X130508Y35575D01*
G37*
%LPD*%
%LPC*%
G36*
X65466Y209165D02*
X65466Y209165D01*
X60109Y214521D01*
X60109Y222097D01*
X65466Y227454D01*
X73041Y227454D01*
X78398Y222097D01*
X78398Y214521D01*
X73041Y209165D01*
X65466Y209165D01*
G37*
%LPD*%
%LPC*%
G36*
X65466Y183765D02*
X65466Y183765D01*
X60109Y189121D01*
X60109Y196697D01*
X65466Y202054D01*
X73041Y202054D01*
X78398Y196697D01*
X78398Y189121D01*
X73041Y183765D01*
X65466Y183765D01*
G37*
%LPD*%
%LPC*%
G36*
X90866Y183765D02*
X90866Y183765D01*
X85509Y189121D01*
X85509Y196697D01*
X90866Y202054D01*
X98441Y202054D01*
X103798Y196697D01*
X103798Y189121D01*
X98441Y183765D01*
X90866Y183765D01*
G37*
%LPD*%
G36*
X134645Y142543D02*
X134645Y142543D01*
X134745Y142548D01*
X134816Y142569D01*
X134890Y142580D01*
X134983Y142617D01*
X135080Y142645D01*
X135145Y142681D01*
X135214Y142708D01*
X135296Y142766D01*
X135384Y142815D01*
X135460Y142880D01*
X135500Y142907D01*
X135524Y142934D01*
X135570Y142973D01*
X153064Y160467D01*
X153126Y160545D01*
X153196Y160618D01*
X153234Y160682D01*
X153280Y160740D01*
X153323Y160831D01*
X153375Y160917D01*
X153398Y160988D01*
X153429Y161055D01*
X153450Y161153D01*
X153481Y161249D01*
X153487Y161323D01*
X153503Y161396D01*
X153501Y161496D01*
X153509Y161596D01*
X153498Y161670D01*
X153497Y161744D01*
X153472Y161841D01*
X153457Y161941D01*
X153430Y162010D01*
X153412Y162082D01*
X153366Y162172D01*
X153329Y162265D01*
X153286Y162326D01*
X153252Y162392D01*
X153187Y162469D01*
X153130Y162551D01*
X153075Y162601D01*
X153026Y162657D01*
X152945Y162717D01*
X152871Y162784D01*
X152806Y162820D01*
X152746Y162865D01*
X152654Y162904D01*
X152566Y162953D01*
X152494Y162973D01*
X152426Y163003D01*
X152327Y163020D01*
X152230Y163048D01*
X152130Y163056D01*
X152083Y163064D01*
X152047Y163062D01*
X151987Y163067D01*
X145955Y163067D01*
X145830Y163053D01*
X145704Y163046D01*
X145657Y163033D01*
X145609Y163027D01*
X145490Y162985D01*
X145369Y162950D01*
X145327Y162926D01*
X145281Y162910D01*
X145175Y162841D01*
X145065Y162780D01*
X145018Y162740D01*
X144988Y162721D01*
X144955Y162686D01*
X144878Y162621D01*
X133053Y150796D01*
X133037Y150776D01*
X133017Y150759D01*
X132929Y150639D01*
X132837Y150523D01*
X132826Y150500D01*
X132810Y150478D01*
X132751Y150342D01*
X132688Y150208D01*
X132682Y150182D01*
X132672Y150158D01*
X132646Y150012D01*
X132614Y149867D01*
X132615Y149841D01*
X132610Y149815D01*
X132618Y149667D01*
X132620Y149519D01*
X132627Y149494D01*
X132628Y149467D01*
X132669Y149325D01*
X132705Y149181D01*
X132717Y149158D01*
X132725Y149132D01*
X132797Y149003D01*
X132865Y148871D01*
X132882Y148851D01*
X132895Y148828D01*
X132970Y148740D01*
X132970Y144050D01*
X132981Y143950D01*
X132983Y143850D01*
X133001Y143778D01*
X133010Y143704D01*
X133043Y143610D01*
X133068Y143512D01*
X133102Y143446D01*
X133127Y143376D01*
X133182Y143292D01*
X133228Y143202D01*
X133276Y143146D01*
X133316Y143083D01*
X133388Y143013D01*
X133453Y142937D01*
X133513Y142893D01*
X133567Y142841D01*
X133653Y142789D01*
X133734Y142730D01*
X133802Y142700D01*
X133866Y142662D01*
X133962Y142632D01*
X134054Y142592D01*
X134127Y142579D01*
X134198Y142556D01*
X134298Y142548D01*
X134397Y142530D01*
X134471Y142534D01*
X134545Y142528D01*
X134645Y142543D01*
G37*
%LPC*%
G36*
X43639Y25859D02*
X43639Y25859D01*
X43639Y43020D01*
X45070Y42555D01*
X46689Y41731D01*
X48158Y40663D01*
X49443Y39378D01*
X50511Y37909D01*
X51335Y36290D01*
X51897Y34562D01*
X52181Y32768D01*
X52181Y25859D01*
X43639Y25859D01*
G37*
%LPD*%
%LPC*%
G36*
X29099Y25859D02*
X29099Y25859D01*
X29099Y32768D01*
X29383Y34562D01*
X29945Y36290D01*
X30769Y37909D01*
X31837Y39378D01*
X33122Y40663D01*
X34591Y41731D01*
X36210Y42555D01*
X37641Y43020D01*
X37641Y25859D01*
X29099Y25859D01*
G37*
%LPD*%
%LPC*%
G36*
X16969Y323039D02*
X16969Y323039D01*
X16969Y331581D01*
X23305Y331581D01*
X23951Y331408D01*
X24530Y331073D01*
X25003Y330600D01*
X25338Y330021D01*
X25511Y329375D01*
X25511Y323039D01*
X16969Y323039D01*
G37*
%LPD*%
%LPC*%
G36*
X16969Y308499D02*
X16969Y308499D01*
X16969Y317041D01*
X25511Y317041D01*
X25511Y310705D01*
X25338Y310059D01*
X25003Y309480D01*
X24530Y309007D01*
X23951Y308672D01*
X23305Y308499D01*
X16969Y308499D01*
G37*
%LPD*%
%LPC*%
G36*
X67199Y18239D02*
X67199Y18239D01*
X67199Y24575D01*
X67372Y25221D01*
X67707Y25800D01*
X68180Y26273D01*
X68759Y26608D01*
X69405Y26781D01*
X75741Y26781D01*
X75741Y18239D01*
X67199Y18239D01*
G37*
%LPD*%
%LPC*%
G36*
X69039Y410359D02*
X69039Y410359D01*
X69039Y418901D01*
X77581Y418901D01*
X77581Y412565D01*
X77408Y411919D01*
X77073Y411340D01*
X76600Y410867D01*
X76021Y410532D01*
X75375Y410359D01*
X69039Y410359D01*
G37*
%LPD*%
%LPC*%
G36*
X56705Y410359D02*
X56705Y410359D01*
X56059Y410532D01*
X55480Y410867D01*
X55007Y411340D01*
X54672Y411919D01*
X54499Y412565D01*
X54499Y418901D01*
X63041Y418901D01*
X63041Y410359D01*
X56705Y410359D01*
G37*
%LPD*%
%LPC*%
G36*
X178053Y60451D02*
X178053Y60451D01*
X178053Y72518D01*
X179913Y72518D01*
X180559Y72345D01*
X181138Y72010D01*
X181611Y71537D01*
X181946Y70958D01*
X182119Y70312D01*
X182119Y60451D01*
X178053Y60451D01*
G37*
%LPD*%
%LPC*%
G36*
X178053Y45338D02*
X178053Y45338D01*
X178053Y57405D01*
X182119Y57405D01*
X182119Y47544D01*
X181946Y46898D01*
X181611Y46319D01*
X181138Y45846D01*
X180559Y45511D01*
X179913Y45338D01*
X178053Y45338D01*
G37*
%LPD*%
%LPC*%
G36*
X46257Y60197D02*
X46257Y60197D01*
X46257Y67691D01*
X50545Y67691D01*
X51191Y67518D01*
X51770Y67183D01*
X52243Y66710D01*
X52578Y66131D01*
X52751Y65485D01*
X52751Y60197D01*
X46257Y60197D01*
G37*
%LPD*%
%LPC*%
G36*
X46257Y46609D02*
X46257Y46609D01*
X46257Y54103D01*
X52751Y54103D01*
X52751Y48815D01*
X52578Y48169D01*
X52243Y47590D01*
X51770Y47117D01*
X51191Y46782D01*
X50545Y46609D01*
X46257Y46609D01*
G37*
%LPD*%
%LPC*%
G36*
X33669Y60197D02*
X33669Y60197D01*
X33669Y65485D01*
X33842Y66131D01*
X34177Y66710D01*
X34650Y67183D01*
X35229Y67518D01*
X35875Y67691D01*
X40163Y67691D01*
X40163Y60197D01*
X33669Y60197D01*
G37*
%LPD*%
%LPC*%
G36*
X35875Y46609D02*
X35875Y46609D01*
X35229Y46782D01*
X34650Y47117D01*
X34177Y47590D01*
X33842Y48169D01*
X33669Y48815D01*
X33669Y54103D01*
X40163Y54103D01*
X40163Y46609D01*
X35875Y46609D01*
G37*
%LPD*%
%LPC*%
G36*
X97789Y260984D02*
X97789Y260984D01*
X97789Y268305D01*
X97962Y268951D01*
X98297Y269530D01*
X98770Y270003D01*
X99349Y270338D01*
X99995Y270511D01*
X102236Y270511D01*
X102236Y260984D01*
X97789Y260984D01*
G37*
%LPD*%
%LPC*%
G36*
X84493Y170049D02*
X84493Y170049D01*
X84493Y171718D01*
X90445Y177670D01*
X92114Y177670D01*
X92114Y170049D01*
X84493Y170049D01*
G37*
%LPD*%
%LPC*%
G36*
X49651Y92273D02*
X49651Y92273D01*
X49651Y97565D01*
X53943Y97565D01*
X53943Y94479D01*
X53770Y93833D01*
X53435Y93254D01*
X52962Y92781D01*
X52383Y92446D01*
X51737Y92273D01*
X49651Y92273D01*
G37*
%LPD*%
%LPC*%
G36*
X43209Y57149D02*
X43209Y57149D01*
X43209Y57151D01*
X43211Y57151D01*
X43211Y57149D01*
X43209Y57149D01*
G37*
%LPD*%
D10*
X43210Y57150D03*
X15210Y57150D03*
D11*
X40640Y31860D02*
X40640Y13860D01*
X15240Y13860D02*
X15240Y31860D01*
D12*
X161440Y38100D03*
X148440Y38100D03*
D13*
X209550Y97400D03*
X209550Y80400D03*
X231140Y97400D03*
X231140Y80400D03*
D14*
X82550Y318770D03*
X82550Y331470D03*
X82550Y344170D03*
X82550Y356870D03*
D15*
X104140Y378460D03*
X116840Y378460D03*
X129540Y378460D03*
X142240Y378460D03*
X154940Y378460D03*
X167640Y378460D03*
X180340Y378460D03*
D14*
X201930Y356870D03*
X201930Y344170D03*
X201930Y331470D03*
X201930Y318770D03*
X201930Y306070D03*
X201930Y293370D03*
X201930Y280670D03*
D15*
X180340Y259080D03*
X167640Y259080D03*
X154940Y259080D03*
X142240Y259080D03*
X129540Y259080D03*
X116840Y259080D03*
X104140Y259080D03*
D14*
X82550Y280670D03*
X82550Y293370D03*
X82550Y306070D03*
D16*
X78740Y15240D03*
D17*
X98740Y15240D03*
X118740Y15240D03*
X138740Y15240D03*
X158740Y15240D03*
X178740Y15240D03*
X198740Y15240D03*
X218740Y15240D03*
D16*
X66040Y421900D03*
D17*
X66040Y396500D03*
X15240Y421900D03*
X40640Y421900D03*
X116840Y421900D03*
X91440Y421900D03*
D18*
X138430Y111252D03*
X151130Y111252D03*
X163830Y111252D03*
X176530Y111252D03*
X176530Y58928D03*
X163830Y58928D03*
X151130Y58928D03*
X138430Y58928D03*
D19*
X123444Y144780D03*
X118618Y126746D03*
D12*
X34902Y99314D03*
X47902Y99314D03*
D20*
X38100Y155806D03*
X38100Y168806D03*
X52070Y156060D03*
X52070Y169060D03*
D16*
X13970Y320040D03*
D17*
X13970Y345440D03*
X13970Y370840D03*
X13970Y396240D03*
D21*
X69254Y218309D03*
X94654Y218309D03*
X69254Y192909D03*
X94654Y192909D03*
X69254Y167509D03*
X94654Y167509D03*
X69254Y142109D03*
X94654Y142109D03*
D22*
X48768Y114173D03*
X43688Y114173D03*
X38608Y114173D03*
X33528Y114173D03*
X33528Y135255D03*
X38608Y135255D03*
X43688Y135255D03*
X48768Y135255D03*
D23*
X41148Y124714D03*
D24*
X47890Y254668D03*
X223520Y139700D03*
X220980Y218440D03*
X152400Y135890D03*
X150876Y357632D03*
X41910Y189230D03*
X87630Y43180D03*
X154940Y85090D03*
X181610Y78740D03*
X86360Y100330D03*
X92710Y259080D03*
X36830Y383540D03*
X185674Y316992D03*
X233198Y29865D03*
X81738Y210362D03*
X81428Y186025D03*
X55376Y195481D03*
X43434Y88900D03*
D25*
X113538Y334518D03*
X112268Y307848D03*
X195834Y250444D03*
X57912Y325120D03*
D24*
X137668Y149860D03*
X132080Y161036D03*
X139954Y186944D03*
X19050Y272542D03*
X161544Y237744D03*
X29718Y400050D03*
X125984Y230886D03*
X220218Y88900D03*
D26*
X38608Y127254D02*
X38608Y135255D01*
X38608Y127254D02*
X41148Y124714D01*
D24*
X58420Y115570D03*
X137809Y199681D03*
D26*
X129270Y194040D01*
X108072Y112898D02*
X108072Y25908D01*
X118740Y15240D01*
X129270Y166432D02*
X129270Y194040D01*
X129270Y166432D02*
X109728Y146890D01*
X109728Y134366D02*
X105156Y129794D01*
X105156Y115814D01*
X108072Y112898D01*
X109728Y134366D02*
X109728Y146890D01*
D24*
X220980Y208280D03*
X227330Y149860D03*
X139700Y193040D03*
X133350Y128270D03*
D27*
X208026Y208280D02*
X220980Y208280D01*
X194310Y175006D02*
X149860Y175006D01*
X149860Y187452D02*
X144272Y193040D01*
X139700Y193040D01*
X149860Y187452D02*
X149860Y175006D01*
X194310Y182880D02*
X227330Y149860D01*
D24*
X132080Y39370D03*
X47383Y246255D03*
D27*
X138430Y58928D02*
X138430Y45720D01*
X132080Y39370D01*
D26*
X69398Y246380D02*
X47383Y246255D01*
X69398Y246380D02*
X94654Y221124D01*
X94654Y218309D01*
D27*
X133350Y128270D02*
X134620Y128270D01*
X155956Y149606D01*
X178816Y149606D01*
X194310Y165100D01*
X194310Y175006D01*
X194310Y182880D02*
X194310Y194564D01*
X208026Y208280D01*
X194310Y182880D02*
X194310Y175006D01*
D26*
X52070Y169060D02*
X51816Y168806D01*
X38100Y168806D01*
D27*
X20798Y62738D02*
X15210Y57150D01*
X20798Y62738D02*
X20798Y71448D01*
X15210Y22890D02*
X15240Y22860D01*
X15210Y22890D02*
X15210Y57150D01*
X20798Y71448D02*
X34902Y85552D01*
D28*
X34902Y99314D01*
D26*
X38608Y114173D02*
X41148Y114173D01*
X43688Y114173D01*
D28*
X41148Y114173D02*
X41148Y105460D01*
D27*
X34902Y99314D02*
X34902Y99214D01*
X41148Y105460D01*
X34902Y99214D02*
X19304Y114812D01*
X19304Y155194D01*
D26*
X38099Y168805D02*
X38100Y168806D01*
D27*
X38099Y168805D02*
X32915Y168805D01*
X19304Y155194D01*
D24*
X189081Y134397D03*
D26*
X176530Y116840D02*
X176530Y111252D01*
X176530Y116840D02*
X189081Y134397D01*
X138430Y111252D02*
X138430Y104140D01*
X149860Y92710D01*
D24*
X194190Y92624D03*
D26*
X194364Y92710D02*
X149860Y92710D01*
X194190Y92624D02*
X194278Y92624D01*
X194364Y92710D01*
X52325Y156780D02*
X49784Y156780D01*
X52325Y156780D02*
X54785Y153537D01*
X97910Y153612D01*
D24*
X95829Y242108D03*
D26*
X102056Y242105D02*
X107110Y242105D01*
X108347Y242645D01*
X117465Y242626D01*
X118104Y242074D01*
X119562Y240622D01*
X119545Y229747D02*
X119278Y228314D01*
X119545Y229747D02*
X119562Y240622D01*
X119278Y228314D02*
X119210Y183388D01*
X101930Y153612D02*
X97910Y153612D01*
X99032Y242108D02*
X95829Y242108D01*
X99032Y242108D02*
X102056Y242105D01*
X119210Y183388D02*
X119210Y170892D01*
X113859Y165541D02*
X101930Y153612D01*
D24*
X113859Y165541D03*
D26*
X119210Y170892D01*
X48768Y152758D02*
X48768Y135255D01*
X48768Y152758D02*
X52070Y156060D01*
X50504Y156060D01*
X49784Y156780D01*
D24*
X49530Y406400D03*
D26*
X30740Y406400D02*
X15240Y421900D01*
X30740Y406400D02*
X49530Y406400D01*
X24130Y406400D02*
X13970Y396240D01*
X24130Y406400D02*
X30740Y406400D01*
D24*
X114700Y237583D03*
D26*
X114752Y183169D01*
X111760Y180177D01*
X111760Y172720D01*
D24*
X111760Y172720D03*
D26*
X65045Y157349D02*
X59374Y163020D01*
X98961Y157324D02*
X105290Y163552D01*
X98961Y157324D02*
X65045Y157349D01*
X105290Y163552D02*
X105290Y166250D01*
X111760Y172720D01*
X43688Y143510D02*
X43688Y135255D01*
X43688Y143510D02*
X38100Y149098D01*
X38100Y155806D02*
X45314Y163020D01*
X59374Y163020D01*
X38100Y155806D02*
X38100Y149098D01*
X151130Y111252D02*
X163830Y111252D01*
D24*
X199390Y132080D03*
D26*
X163830Y119380D02*
X163830Y111252D01*
X191770Y139700D02*
X199390Y132080D01*
X184150Y139700D02*
X163830Y119380D01*
X184150Y139700D02*
X191770Y139700D01*
D24*
X66040Y115570D03*
D27*
X83434Y115570D01*
X101976Y18476D02*
X98740Y15240D01*
X101976Y18476D02*
X101976Y97160D01*
X178526Y188641D02*
X178332Y234808D01*
X173627Y239513D01*
D24*
X173627Y239513D03*
D27*
X125889Y200239D02*
X125206Y199556D01*
X125889Y200239D02*
X135517Y207010D01*
X141926Y207010D01*
X158387Y183388D01*
X173273Y183388D01*
X178526Y188641D01*
X105537Y137673D02*
X83434Y115570D01*
X105537Y137673D02*
X105537Y149357D01*
X125206Y169026D02*
X125206Y199556D01*
X125206Y169026D02*
X105537Y149357D01*
X83566Y115570D02*
X83434Y115570D01*
X83566Y115570D02*
X101976Y97160D01*
D24*
X199390Y240030D03*
D29*
X238508Y240030D01*
X238508Y104768D01*
X231140Y97400D01*
D24*
X194310Y233680D03*
D29*
X234698Y233680D01*
X234698Y122548D01*
X209550Y97400D01*
D24*
X138633Y214656D03*
X85396Y248965D03*
D26*
X85486Y248876D01*
X98052Y248876D02*
X99278Y247650D01*
X98052Y248876D02*
X85486Y248876D01*
X99278Y247650D02*
X118031Y247650D01*
X138633Y227049D01*
X138633Y214656D01*
X116840Y254000D02*
X116840Y259080D01*
X149860Y220980D02*
X149860Y210058D01*
X161544Y198374D01*
X161544Y189964D01*
D25*
X161544Y189964D03*
D26*
X149860Y220980D02*
X116840Y254000D01*
X116840Y298958D02*
X136398Y318516D01*
X164338Y318516D01*
X165354Y317500D02*
X165354Y316484D01*
D25*
X165354Y316484D03*
D26*
X116840Y298958D02*
X116840Y259080D01*
X165354Y317500D02*
X164338Y318516D01*
D29*
X231140Y80400D02*
X221860Y71120D01*
X203200Y71120D02*
X193548Y61468D01*
X193548Y33020D01*
X199898Y26670D01*
X207310Y26670D02*
X218740Y15240D01*
X221860Y71120D02*
X203200Y71120D01*
X199898Y26670D02*
X207310Y26670D01*
X207400Y80400D02*
X209550Y80400D01*
X207400Y80400D02*
X190500Y63500D01*
X190500Y23480D01*
X198740Y15240D01*
D26*
X178740Y20800D02*
X161440Y38100D01*
X178740Y20800D02*
X178740Y15240D01*
X161440Y38100D02*
X163830Y40490D01*
X163830Y58928D01*
X151130Y40790D02*
X148440Y38100D01*
X151130Y40790D02*
X151130Y58928D01*
X148440Y38100D02*
X158740Y27800D01*
X158740Y15240D01*
D27*
X104140Y378460D02*
X104140Y393700D01*
X116840Y393700D01*
X129540Y393700D01*
X129540Y378460D01*
X104140Y393700D02*
X91440Y393700D01*
D24*
X35560Y322580D03*
D27*
X91440Y393700D02*
X91440Y421900D01*
X116840Y421900D02*
X116840Y393700D01*
X91440Y393700D02*
X88900Y393700D01*
X35560Y340360D01*
X35560Y322580D01*
D24*
X220980Y316230D03*
D26*
X218440Y318770D02*
X201930Y318770D01*
X218440Y318770D02*
X220980Y316230D01*
D24*
X220980Y335280D03*
D26*
X217170Y331470D02*
X201930Y331470D01*
X217170Y331470D02*
X220980Y335280D01*
X129540Y259080D02*
X129540Y250190D01*
X169672Y210058D02*
X169672Y195834D01*
X169672Y210058D02*
X129540Y250190D01*
D25*
X169672Y195834D03*
X129540Y289560D03*
D26*
X129540Y259080D01*
X144272Y165608D02*
X123444Y144780D01*
X144272Y165608D02*
X178562Y165608D01*
D25*
X178562Y165608D03*
X172212Y159258D03*
D26*
X122936Y126746D02*
X118618Y126746D01*
X155448Y159258D02*
X172212Y159258D01*
X155448Y159258D02*
X122936Y126746D01*
M02*
