G04 EAGLE Gerber RS-274X export*
G75*
%MOMM*%
%FSLAX34Y34*%
%LPD*%
%INSoldermask Top*%
%IPPOS*%
%AMOC8*
5,1,8,0,0,1.08239X$1,22.5*%
G01*
%ADD10C,2.203200*%
%ADD11C,1.703200*%
%ADD12R,1.203200X1.303200*%
%ADD13R,1.303200X1.203200*%
%ADD14R,0.903200X1.103200*%
%ADD15R,1.603200X1.803200*%
%ADD16R,1.103200X0.903200*%
%ADD17R,1.003200X1.003200*%
%ADD18C,2.003200*%
%ADD19R,1.603200X1.203200*%
%ADD20R,2.003200X2.003200*%
%ADD21C,2.003200*%
%ADD22R,1.403200X0.753200*%
%ADD23C,0.457909*%
%ADD24P,1.951982X8X22.500000*%
%ADD25R,1.473200X0.838200*%
%ADD26C,0.838200*%
%ADD27P,1.869504X8X292.500000*%
%ADD28R,0.453200X0.803200*%
%ADD29R,0.453200X0.953200*%
%ADD30R,0.838200X1.473200*%
%ADD31C,0.657200*%
%ADD32C,0.807200*%


D10*
X22860Y204470D03*
X218440Y46990D03*
D11*
X218440Y420370D03*
D10*
X27940Y256540D03*
D12*
X231140Y249800D03*
X231140Y232800D03*
D13*
X112640Y91186D03*
X95640Y91186D03*
D14*
X119530Y44450D03*
X106530Y44450D03*
D15*
X95220Y63500D03*
X123220Y63500D03*
D13*
X95640Y111760D03*
X112640Y111760D03*
D12*
X184150Y266310D03*
X184150Y249310D03*
X163830Y266310D03*
X163830Y249310D03*
D16*
X62230Y104290D03*
X62230Y91290D03*
D14*
X15090Y88900D03*
X28090Y88900D03*
D17*
X197369Y117701D03*
X197369Y102701D03*
X12820Y139700D03*
X27820Y139700D03*
X162560Y106800D03*
X162560Y121800D03*
D18*
X40640Y31860D02*
X40640Y13860D01*
X15240Y13860D02*
X15240Y31860D01*
D19*
X11860Y288290D03*
X33860Y297790D03*
X33860Y278790D03*
D16*
X40386Y133708D03*
X40386Y146708D03*
D13*
X222250Y306950D03*
X222250Y289950D03*
X222250Y345830D03*
X222250Y362830D03*
D12*
X127000Y209160D03*
X127000Y192160D03*
D14*
X26312Y151130D03*
X13312Y151130D03*
D12*
X181610Y118990D03*
X181610Y101990D03*
X146050Y118990D03*
X146050Y101990D03*
D20*
X78740Y15240D03*
D21*
X98740Y15240D03*
X118740Y15240D03*
X138740Y15240D03*
X158740Y15240D03*
X178740Y15240D03*
X198740Y15240D03*
X218740Y15240D03*
D20*
X66040Y421900D03*
D21*
X66040Y396500D03*
X15240Y421900D03*
X40640Y421900D03*
X116840Y421900D03*
X91440Y421900D03*
D22*
X14939Y123800D03*
X14939Y114300D03*
X14939Y104800D03*
X40941Y104800D03*
X40941Y123800D03*
X14939Y73000D03*
X14939Y63500D03*
X14939Y54000D03*
X40941Y54000D03*
X40941Y73000D03*
D23*
X209027Y208438D02*
X209027Y213892D01*
X209027Y208438D02*
X208573Y208438D01*
X208573Y213892D01*
X209027Y213892D01*
X209027Y212788D02*
X208573Y212788D01*
X204097Y213892D02*
X204097Y208438D01*
X203643Y208438D01*
X203643Y213892D01*
X204097Y213892D01*
X204097Y212788D02*
X203643Y212788D01*
X199167Y213892D02*
X199167Y208438D01*
X198713Y208438D01*
X198713Y213892D01*
X199167Y213892D01*
X199167Y212788D02*
X198713Y212788D01*
X194237Y213892D02*
X194237Y208438D01*
X193783Y208438D01*
X193783Y213892D01*
X194237Y213892D01*
X194237Y212788D02*
X193783Y212788D01*
X189307Y213892D02*
X189307Y208438D01*
X188853Y208438D01*
X188853Y213892D01*
X189307Y213892D01*
X189307Y212788D02*
X188853Y212788D01*
X184377Y213892D02*
X184377Y208438D01*
X183923Y208438D01*
X183923Y213892D01*
X184377Y213892D01*
X184377Y212788D02*
X183923Y212788D01*
X178993Y213892D02*
X178993Y208438D01*
X178993Y213892D02*
X179447Y213892D01*
X179447Y208438D01*
X178993Y208438D01*
X178993Y212788D02*
X179447Y212788D01*
X174063Y213892D02*
X174063Y208438D01*
X174063Y213892D02*
X174517Y213892D01*
X174517Y208438D01*
X174063Y208438D01*
X174063Y212788D02*
X174517Y212788D01*
X169133Y213892D02*
X169133Y208438D01*
X169133Y213892D02*
X169587Y213892D01*
X169587Y208438D01*
X169133Y208438D01*
X169133Y212788D02*
X169587Y212788D01*
X164203Y213892D02*
X164203Y208438D01*
X164203Y213892D02*
X164657Y213892D01*
X164657Y208438D01*
X164203Y208438D01*
X164203Y212788D02*
X164657Y212788D01*
X159273Y213892D02*
X159273Y208438D01*
X159273Y213892D02*
X159727Y213892D01*
X159727Y208438D01*
X159273Y208438D01*
X159273Y212788D02*
X159727Y212788D01*
X153512Y202677D02*
X148058Y202677D01*
X153512Y202677D02*
X153512Y202223D01*
X148058Y202223D01*
X148058Y202677D01*
X148058Y197747D02*
X153512Y197747D01*
X153512Y197293D01*
X148058Y197293D01*
X148058Y197747D01*
X148058Y192817D02*
X153512Y192817D01*
X153512Y192363D01*
X148058Y192363D01*
X148058Y192817D01*
X148058Y187887D02*
X153512Y187887D01*
X153512Y187433D01*
X148058Y187433D01*
X148058Y187887D01*
X148058Y182957D02*
X153512Y182957D01*
X153512Y182503D01*
X148058Y182503D01*
X148058Y182957D01*
X148058Y178027D02*
X153512Y178027D01*
X153512Y177573D01*
X148058Y177573D01*
X148058Y178027D01*
X148058Y172643D02*
X153512Y172643D01*
X148058Y172643D02*
X148058Y173097D01*
X153512Y173097D01*
X153512Y172643D01*
X153512Y167713D02*
X148058Y167713D01*
X148058Y168167D01*
X153512Y168167D01*
X153512Y167713D01*
X153512Y162783D02*
X148058Y162783D01*
X148058Y163237D01*
X153512Y163237D01*
X153512Y162783D01*
X153512Y157853D02*
X148058Y157853D01*
X148058Y158307D01*
X153512Y158307D01*
X153512Y157853D01*
X153512Y152923D02*
X148058Y152923D01*
X148058Y153377D01*
X153512Y153377D01*
X153512Y152923D01*
X159273Y147162D02*
X159273Y141708D01*
X159273Y147162D02*
X159727Y147162D01*
X159727Y141708D01*
X159273Y141708D01*
X159273Y146058D02*
X159727Y146058D01*
X164203Y147162D02*
X164203Y141708D01*
X164203Y147162D02*
X164657Y147162D01*
X164657Y141708D01*
X164203Y141708D01*
X164203Y146058D02*
X164657Y146058D01*
X169133Y147162D02*
X169133Y141708D01*
X169133Y147162D02*
X169587Y147162D01*
X169587Y141708D01*
X169133Y141708D01*
X169133Y146058D02*
X169587Y146058D01*
X174063Y147162D02*
X174063Y141708D01*
X174063Y147162D02*
X174517Y147162D01*
X174517Y141708D01*
X174063Y141708D01*
X174063Y146058D02*
X174517Y146058D01*
X178993Y147162D02*
X178993Y141708D01*
X178993Y147162D02*
X179447Y147162D01*
X179447Y141708D01*
X178993Y141708D01*
X178993Y146058D02*
X179447Y146058D01*
X183923Y147162D02*
X183923Y141708D01*
X183923Y147162D02*
X184377Y147162D01*
X184377Y141708D01*
X183923Y141708D01*
X183923Y146058D02*
X184377Y146058D01*
X189307Y147162D02*
X189307Y141708D01*
X188853Y141708D01*
X188853Y147162D01*
X189307Y147162D01*
X189307Y146058D02*
X188853Y146058D01*
X194237Y147162D02*
X194237Y141708D01*
X193783Y141708D01*
X193783Y147162D01*
X194237Y147162D01*
X194237Y146058D02*
X193783Y146058D01*
X199167Y147162D02*
X199167Y141708D01*
X198713Y141708D01*
X198713Y147162D01*
X199167Y147162D01*
X199167Y146058D02*
X198713Y146058D01*
X204097Y147162D02*
X204097Y141708D01*
X203643Y141708D01*
X203643Y147162D01*
X204097Y147162D01*
X204097Y146058D02*
X203643Y146058D01*
X209027Y147162D02*
X209027Y141708D01*
X208573Y141708D01*
X208573Y147162D01*
X209027Y147162D01*
X209027Y146058D02*
X208573Y146058D01*
X214788Y152923D02*
X220242Y152923D01*
X214788Y152923D02*
X214788Y153377D01*
X220242Y153377D01*
X220242Y152923D01*
X220242Y157853D02*
X214788Y157853D01*
X214788Y158307D01*
X220242Y158307D01*
X220242Y157853D01*
X220242Y162783D02*
X214788Y162783D01*
X214788Y163237D01*
X220242Y163237D01*
X220242Y162783D01*
X220242Y167713D02*
X214788Y167713D01*
X214788Y168167D01*
X220242Y168167D01*
X220242Y167713D01*
X220242Y172643D02*
X214788Y172643D01*
X214788Y173097D01*
X220242Y173097D01*
X220242Y172643D01*
X220242Y177573D02*
X214788Y177573D01*
X214788Y178027D01*
X220242Y178027D01*
X220242Y177573D01*
X220242Y182957D02*
X214788Y182957D01*
X220242Y182957D02*
X220242Y182503D01*
X214788Y182503D01*
X214788Y182957D01*
X214788Y187887D02*
X220242Y187887D01*
X220242Y187433D01*
X214788Y187433D01*
X214788Y187887D01*
X214788Y192817D02*
X220242Y192817D01*
X220242Y192363D01*
X214788Y192363D01*
X214788Y192817D01*
X214788Y197747D02*
X220242Y197747D01*
X220242Y197293D01*
X214788Y197293D01*
X214788Y197747D01*
X214788Y202677D02*
X220242Y202677D01*
X220242Y202223D01*
X214788Y202223D01*
X214788Y202677D01*
D24*
X123444Y144780D03*
X118618Y126746D03*
D25*
X38100Y363800D03*
X38100Y372800D03*
X38100Y338400D03*
X38100Y347400D03*
D20*
X13970Y320040D03*
D21*
X13970Y345440D03*
X13970Y370840D03*
X13970Y396240D03*
D26*
X170180Y129540D03*
X177800Y133350D03*
X212090Y132080D03*
X236220Y147320D03*
X236220Y158750D03*
X234950Y168910D03*
X236220Y177800D03*
X233680Y185420D03*
X236220Y194310D03*
D27*
X69254Y218309D03*
X94654Y218309D03*
X69254Y192909D03*
X94654Y192909D03*
X69254Y167509D03*
X94654Y167509D03*
X69254Y142109D03*
X94654Y142109D03*
D28*
X63834Y305220D03*
X73834Y305220D03*
X68834Y305220D03*
X63834Y319620D03*
X68834Y319620D03*
D29*
X73834Y318870D03*
D13*
X79620Y334772D03*
X62620Y334772D03*
D12*
X97536Y351146D03*
X97536Y334146D03*
D13*
X79620Y355346D03*
X62620Y355346D03*
D12*
X54864Y292980D03*
X54864Y275980D03*
X98552Y296790D03*
X98552Y279790D03*
X76962Y293234D03*
X76962Y276234D03*
D30*
X174172Y303784D03*
X165172Y303784D03*
X150804Y303784D03*
X141804Y303784D03*
D31*
X47890Y254668D03*
X223520Y139700D03*
X220980Y218440D03*
X152400Y135890D03*
X150876Y357632D03*
X41910Y189230D03*
X87630Y43180D03*
X154940Y85090D03*
X181610Y78740D03*
X86360Y100330D03*
X92710Y259080D03*
X36830Y383540D03*
X185674Y316992D03*
X233198Y29865D03*
X81738Y210362D03*
X81428Y186025D03*
X55376Y195481D03*
X43434Y88900D03*
D32*
X113538Y334518D03*
X112268Y307848D03*
X195834Y250444D03*
X57912Y325120D03*
D31*
X137668Y149860D03*
X132080Y161036D03*
X139954Y186944D03*
X19050Y272542D03*
X161544Y237744D03*
X29718Y400050D03*
X125984Y230886D03*
X220218Y88900D03*
X58420Y115570D03*
X137809Y199681D03*
X220980Y208280D03*
X227330Y149860D03*
X139700Y193040D03*
X133350Y128270D03*
X132080Y39370D03*
X47383Y246255D03*
X189081Y134397D03*
X194190Y92624D03*
X95829Y242108D03*
X113859Y165541D03*
X49530Y406400D03*
X114700Y237583D03*
X111760Y172720D03*
X199390Y132080D03*
X66040Y115570D03*
X173627Y239513D03*
X199390Y240030D03*
X194310Y233680D03*
X138633Y214656D03*
X85396Y248965D03*
D32*
X161544Y189964D03*
X165354Y316484D03*
D31*
X35560Y322580D03*
X220980Y316230D03*
X220980Y335280D03*
D32*
X169672Y195834D03*
X129540Y289560D03*
X178562Y165608D03*
X172212Y159258D03*
M02*
