G04 EAGLE Gerber RS-274X export*
G75*
%MOMM*%
%FSLAX34Y34*%
%LPD*%
%IN*%
%IPPOS*%
%AMOC8*
5,1,8,0,0,1.08239X$1,22.5*%
G01*
%ADD10C,0.254000*%


D10*
X0Y0D02*
X243080Y0D01*
X243080Y434240D01*
X0Y434240D01*
X0Y0D01*
X32860Y204033D02*
X32784Y203164D01*
X32632Y202304D01*
X32406Y201460D01*
X32108Y200640D01*
X31739Y199848D01*
X31302Y199092D01*
X30801Y198377D01*
X30240Y197708D01*
X29622Y197090D01*
X28953Y196529D01*
X28238Y196028D01*
X27482Y195591D01*
X26690Y195222D01*
X25870Y194924D01*
X25026Y194698D01*
X24167Y194546D01*
X23297Y194470D01*
X22423Y194470D01*
X21554Y194546D01*
X20694Y194698D01*
X19850Y194924D01*
X19030Y195222D01*
X18238Y195591D01*
X17482Y196028D01*
X16767Y196529D01*
X16098Y197090D01*
X15480Y197708D01*
X14919Y198377D01*
X14418Y199092D01*
X13981Y199848D01*
X13612Y200640D01*
X13314Y201460D01*
X13088Y202304D01*
X12936Y203164D01*
X12860Y204033D01*
X12860Y204907D01*
X12936Y205777D01*
X13088Y206636D01*
X13314Y207480D01*
X13612Y208300D01*
X13981Y209092D01*
X14418Y209848D01*
X14919Y210563D01*
X15480Y211232D01*
X16098Y211850D01*
X16767Y212411D01*
X17482Y212912D01*
X18238Y213349D01*
X19030Y213718D01*
X19850Y214016D01*
X20694Y214242D01*
X21554Y214394D01*
X22423Y214470D01*
X23297Y214470D01*
X24167Y214394D01*
X25026Y214242D01*
X25870Y214016D01*
X26690Y213718D01*
X27482Y213349D01*
X28238Y212912D01*
X28953Y212411D01*
X29622Y211850D01*
X30240Y211232D01*
X30801Y210563D01*
X31302Y209848D01*
X31739Y209092D01*
X32108Y208300D01*
X32406Y207480D01*
X32632Y206636D01*
X32784Y205777D01*
X32860Y204907D01*
X32860Y204033D01*
X228440Y46553D02*
X228364Y45684D01*
X228212Y44824D01*
X227986Y43980D01*
X227688Y43160D01*
X227319Y42368D01*
X226882Y41612D01*
X226381Y40897D01*
X225820Y40228D01*
X225202Y39610D01*
X224533Y39049D01*
X223818Y38548D01*
X223062Y38111D01*
X222270Y37742D01*
X221450Y37444D01*
X220606Y37218D01*
X219747Y37066D01*
X218877Y36990D01*
X218003Y36990D01*
X217134Y37066D01*
X216274Y37218D01*
X215430Y37444D01*
X214610Y37742D01*
X213818Y38111D01*
X213062Y38548D01*
X212347Y39049D01*
X211678Y39610D01*
X211060Y40228D01*
X210499Y40897D01*
X209998Y41612D01*
X209561Y42368D01*
X209192Y43160D01*
X208894Y43980D01*
X208668Y44824D01*
X208516Y45684D01*
X208440Y46553D01*
X208440Y47427D01*
X208516Y48297D01*
X208668Y49156D01*
X208894Y50000D01*
X209192Y50820D01*
X209561Y51612D01*
X209998Y52368D01*
X210499Y53083D01*
X211060Y53752D01*
X211678Y54370D01*
X212347Y54931D01*
X213062Y55432D01*
X213818Y55869D01*
X214610Y56238D01*
X215430Y56536D01*
X216274Y56762D01*
X217134Y56914D01*
X218003Y56990D01*
X218877Y56990D01*
X219747Y56914D01*
X220606Y56762D01*
X221450Y56536D01*
X222270Y56238D01*
X223062Y55869D01*
X223818Y55432D01*
X224533Y54931D01*
X225202Y54370D01*
X225820Y53752D01*
X226381Y53083D01*
X226882Y52368D01*
X227319Y51612D01*
X227688Y50820D01*
X227986Y50000D01*
X228212Y49156D01*
X228364Y48297D01*
X228440Y47427D01*
X228440Y46553D01*
X225940Y420002D02*
X225868Y419268D01*
X225724Y418545D01*
X225510Y417840D01*
X225228Y417159D01*
X224881Y416510D01*
X224471Y415897D01*
X224004Y415327D01*
X223483Y414806D01*
X222913Y414339D01*
X222300Y413929D01*
X221651Y413582D01*
X220970Y413300D01*
X220265Y413086D01*
X219542Y412942D01*
X218808Y412870D01*
X218072Y412870D01*
X217338Y412942D01*
X216615Y413086D01*
X215910Y413300D01*
X215229Y413582D01*
X214580Y413929D01*
X213967Y414339D01*
X213397Y414806D01*
X212876Y415327D01*
X212409Y415897D01*
X211999Y416510D01*
X211652Y417159D01*
X211370Y417840D01*
X211156Y418545D01*
X211012Y419268D01*
X210940Y420002D01*
X210940Y420738D01*
X211012Y421472D01*
X211156Y422195D01*
X211370Y422900D01*
X211652Y423581D01*
X211999Y424230D01*
X212409Y424843D01*
X212876Y425413D01*
X213397Y425934D01*
X213967Y426401D01*
X214580Y426811D01*
X215229Y427158D01*
X215910Y427440D01*
X216615Y427654D01*
X217338Y427798D01*
X218072Y427870D01*
X218808Y427870D01*
X219542Y427798D01*
X220265Y427654D01*
X220970Y427440D01*
X221651Y427158D01*
X222300Y426811D01*
X222913Y426401D01*
X223483Y425934D01*
X224004Y425413D01*
X224471Y424843D01*
X224881Y424230D01*
X225228Y423581D01*
X225510Y422900D01*
X225724Y422195D01*
X225868Y421472D01*
X225940Y420738D01*
X225940Y420002D01*
X37940Y256103D02*
X37864Y255234D01*
X37712Y254374D01*
X37486Y253530D01*
X37188Y252710D01*
X36819Y251918D01*
X36382Y251162D01*
X35881Y250447D01*
X35320Y249778D01*
X34702Y249160D01*
X34033Y248599D01*
X33318Y248098D01*
X32562Y247661D01*
X31770Y247292D01*
X30950Y246994D01*
X30106Y246768D01*
X29247Y246616D01*
X28377Y246540D01*
X27503Y246540D01*
X26634Y246616D01*
X25774Y246768D01*
X24930Y246994D01*
X24110Y247292D01*
X23318Y247661D01*
X22562Y248098D01*
X21847Y248599D01*
X21178Y249160D01*
X20560Y249778D01*
X19999Y250447D01*
X19498Y251162D01*
X19061Y251918D01*
X18692Y252710D01*
X18394Y253530D01*
X18168Y254374D01*
X18016Y255234D01*
X17940Y256103D01*
X17940Y256977D01*
X18016Y257847D01*
X18168Y258706D01*
X18394Y259550D01*
X18692Y260370D01*
X19061Y261162D01*
X19498Y261918D01*
X19999Y262633D01*
X20560Y263302D01*
X21178Y263920D01*
X21847Y264481D01*
X22562Y264982D01*
X23318Y265419D01*
X24110Y265788D01*
X24930Y266086D01*
X25774Y266312D01*
X26634Y266464D01*
X27503Y266540D01*
X28377Y266540D01*
X29247Y266464D01*
X30106Y266312D01*
X30950Y266086D01*
X31770Y265788D01*
X32562Y265419D01*
X33318Y264982D01*
X34033Y264481D01*
X34702Y263920D01*
X35320Y263302D01*
X35881Y262633D01*
X36382Y261918D01*
X36819Y261162D01*
X37188Y260370D01*
X37486Y259550D01*
X37712Y258706D01*
X37864Y257847D01*
X37940Y256977D01*
X37940Y256103D01*
M02*
