G04 EAGLE Gerber RS-274X export*
G75*
%MOMM*%
%FSLAX34Y34*%
%LPD*%
%INSilkscreen Bottom*%
%IPPOS*%
%AMOC8*
5,1,8,0,0,1.08239X$1,22.5*%
G01*
%ADD10C,0.101600*%
%ADD11C,0.203200*%
%ADD12C,0.127000*%
%ADD13C,0.152400*%
%ADD14R,0.406400X0.711200*%
%ADD15R,0.762000X0.457200*%
%ADD16C,0.406400*%
%ADD17R,0.711200X0.406400*%


D10*
X124160Y111760D02*
X124162Y111866D01*
X124168Y111972D01*
X124178Y112078D01*
X124192Y112183D01*
X124210Y112288D01*
X124231Y112392D01*
X124257Y112495D01*
X124286Y112597D01*
X124319Y112698D01*
X124356Y112798D01*
X124397Y112896D01*
X124441Y112992D01*
X124489Y113087D01*
X124540Y113180D01*
X124595Y113271D01*
X124653Y113360D01*
X124715Y113446D01*
X124780Y113531D01*
X124847Y113612D01*
X124918Y113692D01*
X124992Y113768D01*
X125068Y113842D01*
X125148Y113913D01*
X125229Y113980D01*
X125314Y114045D01*
X125400Y114107D01*
X125489Y114165D01*
X125580Y114220D01*
X125673Y114271D01*
X125768Y114319D01*
X125864Y114363D01*
X125962Y114404D01*
X126062Y114441D01*
X126163Y114474D01*
X126265Y114503D01*
X126368Y114529D01*
X126472Y114550D01*
X126577Y114568D01*
X126682Y114582D01*
X126788Y114592D01*
X126894Y114598D01*
X127000Y114600D01*
X127106Y114598D01*
X127212Y114592D01*
X127318Y114582D01*
X127423Y114568D01*
X127528Y114550D01*
X127632Y114529D01*
X127735Y114503D01*
X127837Y114474D01*
X127938Y114441D01*
X128038Y114404D01*
X128136Y114363D01*
X128232Y114319D01*
X128327Y114271D01*
X128420Y114220D01*
X128511Y114165D01*
X128600Y114107D01*
X128686Y114045D01*
X128771Y113980D01*
X128852Y113913D01*
X128932Y113842D01*
X129008Y113768D01*
X129082Y113692D01*
X129153Y113612D01*
X129220Y113531D01*
X129285Y113446D01*
X129347Y113360D01*
X129405Y113271D01*
X129460Y113180D01*
X129511Y113087D01*
X129559Y112992D01*
X129603Y112896D01*
X129644Y112798D01*
X129681Y112698D01*
X129714Y112597D01*
X129743Y112495D01*
X129769Y112392D01*
X129790Y112288D01*
X129808Y112183D01*
X129822Y112078D01*
X129832Y111972D01*
X129838Y111866D01*
X129840Y111760D01*
X129838Y111654D01*
X129832Y111548D01*
X129822Y111442D01*
X129808Y111337D01*
X129790Y111232D01*
X129769Y111128D01*
X129743Y111025D01*
X129714Y110923D01*
X129681Y110822D01*
X129644Y110722D01*
X129603Y110624D01*
X129559Y110528D01*
X129511Y110433D01*
X129460Y110340D01*
X129405Y110249D01*
X129347Y110160D01*
X129285Y110074D01*
X129220Y109989D01*
X129153Y109908D01*
X129082Y109828D01*
X129008Y109752D01*
X128932Y109678D01*
X128852Y109607D01*
X128771Y109540D01*
X128686Y109475D01*
X128600Y109413D01*
X128511Y109355D01*
X128420Y109300D01*
X128327Y109249D01*
X128232Y109201D01*
X128136Y109157D01*
X128038Y109116D01*
X127938Y109079D01*
X127837Y109046D01*
X127735Y109017D01*
X127632Y108991D01*
X127528Y108970D01*
X127423Y108952D01*
X127318Y108938D01*
X127212Y108928D01*
X127106Y108922D01*
X127000Y108920D01*
X126894Y108922D01*
X126788Y108928D01*
X126682Y108938D01*
X126577Y108952D01*
X126472Y108970D01*
X126368Y108991D01*
X126265Y109017D01*
X126163Y109046D01*
X126062Y109079D01*
X125962Y109116D01*
X125864Y109157D01*
X125768Y109201D01*
X125673Y109249D01*
X125580Y109300D01*
X125489Y109355D01*
X125400Y109413D01*
X125314Y109475D01*
X125229Y109540D01*
X125148Y109607D01*
X125068Y109678D01*
X124992Y109752D01*
X124918Y109828D01*
X124847Y109908D01*
X124780Y109989D01*
X124715Y110074D01*
X124653Y110160D01*
X124595Y110249D01*
X124540Y110340D01*
X124489Y110433D01*
X124441Y110528D01*
X124397Y110624D01*
X124356Y110722D01*
X124319Y110822D01*
X124286Y110923D01*
X124257Y111025D01*
X124231Y111128D01*
X124210Y111232D01*
X124192Y111337D01*
X124178Y111442D01*
X124168Y111548D01*
X124162Y111654D01*
X124160Y111760D01*
X41910Y318770D02*
X41912Y318893D01*
X41918Y319017D01*
X41928Y319140D01*
X41942Y319262D01*
X41960Y319384D01*
X41982Y319506D01*
X42007Y319626D01*
X42037Y319746D01*
X42071Y319865D01*
X42108Y319983D01*
X42149Y320099D01*
X42194Y320214D01*
X42243Y320327D01*
X42295Y320439D01*
X42351Y320549D01*
X42410Y320657D01*
X42473Y320763D01*
X42539Y320867D01*
X42609Y320969D01*
X42682Y321069D01*
X42758Y321166D01*
X42837Y321261D01*
X42919Y321353D01*
X43004Y321442D01*
X43092Y321529D01*
X43183Y321612D01*
X43276Y321693D01*
X43372Y321771D01*
X43471Y321845D01*
X43571Y321916D01*
X43674Y321984D01*
X43779Y322049D01*
X43887Y322110D01*
X43996Y322168D01*
X44107Y322222D01*
X44219Y322272D01*
X44334Y322319D01*
X44449Y322362D01*
X44566Y322401D01*
X44684Y322437D01*
X44804Y322468D01*
X44924Y322496D01*
X45045Y322520D01*
X45167Y322540D01*
X45289Y322556D01*
X45412Y322568D01*
X45535Y322576D01*
X45658Y322580D01*
X45782Y322580D01*
X45905Y322576D01*
X46028Y322568D01*
X46151Y322556D01*
X46273Y322540D01*
X46395Y322520D01*
X46516Y322496D01*
X46636Y322468D01*
X46756Y322437D01*
X46874Y322401D01*
X46991Y322362D01*
X47106Y322319D01*
X47221Y322272D01*
X47333Y322222D01*
X47444Y322168D01*
X47553Y322110D01*
X47661Y322049D01*
X47766Y321984D01*
X47869Y321916D01*
X47969Y321845D01*
X48068Y321771D01*
X48164Y321693D01*
X48257Y321612D01*
X48348Y321529D01*
X48436Y321442D01*
X48521Y321353D01*
X48603Y321261D01*
X48682Y321166D01*
X48758Y321069D01*
X48831Y320969D01*
X48901Y320867D01*
X48967Y320763D01*
X49030Y320657D01*
X49089Y320549D01*
X49145Y320439D01*
X49197Y320327D01*
X49246Y320214D01*
X49291Y320099D01*
X49332Y319983D01*
X49369Y319865D01*
X49403Y319746D01*
X49433Y319626D01*
X49458Y319506D01*
X49480Y319384D01*
X49498Y319262D01*
X49512Y319140D01*
X49522Y319017D01*
X49528Y318893D01*
X49530Y318770D01*
X49528Y318647D01*
X49522Y318523D01*
X49512Y318400D01*
X49498Y318278D01*
X49480Y318156D01*
X49458Y318034D01*
X49433Y317914D01*
X49403Y317794D01*
X49369Y317675D01*
X49332Y317557D01*
X49291Y317441D01*
X49246Y317326D01*
X49197Y317213D01*
X49145Y317101D01*
X49089Y316991D01*
X49030Y316883D01*
X48967Y316777D01*
X48901Y316673D01*
X48831Y316571D01*
X48758Y316471D01*
X48682Y316374D01*
X48603Y316279D01*
X48521Y316187D01*
X48436Y316098D01*
X48348Y316011D01*
X48257Y315928D01*
X48164Y315847D01*
X48068Y315769D01*
X47969Y315695D01*
X47869Y315624D01*
X47766Y315556D01*
X47661Y315491D01*
X47553Y315430D01*
X47444Y315372D01*
X47333Y315318D01*
X47221Y315268D01*
X47106Y315221D01*
X46991Y315178D01*
X46874Y315139D01*
X46756Y315103D01*
X46636Y315072D01*
X46516Y315044D01*
X46395Y315020D01*
X46273Y315000D01*
X46151Y314984D01*
X46028Y314972D01*
X45905Y314964D01*
X45782Y314960D01*
X45658Y314960D01*
X45535Y314964D01*
X45412Y314972D01*
X45289Y314984D01*
X45167Y315000D01*
X45045Y315020D01*
X44924Y315044D01*
X44804Y315072D01*
X44684Y315103D01*
X44566Y315139D01*
X44449Y315178D01*
X44334Y315221D01*
X44219Y315268D01*
X44107Y315318D01*
X43996Y315372D01*
X43887Y315430D01*
X43779Y315491D01*
X43674Y315556D01*
X43571Y315624D01*
X43471Y315695D01*
X43372Y315769D01*
X43276Y315847D01*
X43183Y315928D01*
X43092Y316011D01*
X43004Y316098D01*
X42919Y316187D01*
X42837Y316279D01*
X42758Y316374D01*
X42682Y316471D01*
X42609Y316571D01*
X42539Y316673D01*
X42473Y316777D01*
X42410Y316883D01*
X42351Y316991D01*
X42295Y317101D01*
X42243Y317213D01*
X42194Y317326D01*
X42149Y317441D01*
X42108Y317557D01*
X42071Y317675D01*
X42037Y317794D01*
X42007Y317914D01*
X41982Y318034D01*
X41960Y318156D01*
X41942Y318278D01*
X41928Y318400D01*
X41918Y318523D01*
X41912Y318647D01*
X41910Y318770D01*
D11*
X39210Y45150D02*
X54210Y45150D01*
X54210Y69150D01*
X39210Y69150D01*
X19210Y45150D02*
X8210Y45150D01*
X4210Y49150D01*
X4210Y65150D01*
X8210Y69150D01*
X19210Y69150D01*
D12*
X25400Y67310D02*
X25400Y46990D01*
D13*
X76026Y56065D02*
X77466Y57505D01*
X80347Y57505D01*
X81788Y56065D01*
X81788Y50303D01*
X80347Y48862D01*
X77466Y48862D01*
X76026Y50303D01*
X72433Y54624D02*
X69552Y57505D01*
X69552Y48862D01*
X72433Y48862D02*
X66671Y48862D01*
X63078Y50303D02*
X61637Y48862D01*
X58756Y48862D01*
X57315Y50303D01*
X57315Y56065D01*
X58756Y57505D01*
X61637Y57505D01*
X63078Y56065D01*
X63078Y54624D01*
X61637Y53184D01*
X57315Y53184D01*
D14*
X154940Y38100D03*
D13*
X198628Y41790D02*
X198628Y33147D01*
X198628Y41790D02*
X194306Y41790D01*
X192866Y40350D01*
X192866Y37469D01*
X194306Y36028D01*
X198628Y36028D01*
X195747Y36028D02*
X192866Y33147D01*
X189273Y38909D02*
X186392Y41790D01*
X186392Y33147D01*
X189273Y33147D02*
X183511Y33147D01*
X179918Y38909D02*
X177037Y41790D01*
X177037Y33147D01*
X179918Y33147D02*
X174155Y33147D01*
D15*
X209550Y88900D03*
D13*
X212605Y109052D02*
X203962Y109052D01*
X212605Y109052D02*
X212605Y113373D01*
X211165Y114814D01*
X208284Y114814D01*
X206843Y113373D01*
X206843Y109052D01*
X206843Y111933D02*
X203962Y114814D01*
X212605Y118407D02*
X212605Y124169D01*
X212605Y118407D02*
X208284Y118407D01*
X209724Y121288D01*
X209724Y122729D01*
X208284Y124169D01*
X205403Y124169D01*
X203962Y122729D01*
X203962Y119847D01*
X205403Y118407D01*
D15*
X231140Y88900D03*
D13*
X226822Y109052D02*
X235465Y109052D01*
X235465Y113373D01*
X234025Y114814D01*
X231144Y114814D01*
X229703Y113373D01*
X229703Y109052D01*
X229703Y111933D02*
X226822Y114814D01*
X235465Y118407D02*
X235465Y124169D01*
X234025Y124169D01*
X228263Y118407D01*
X226822Y118407D01*
D12*
X231140Y229870D02*
X53340Y229870D01*
X231140Y229870D02*
X231140Y407670D01*
X66040Y407670D01*
X53340Y394970D01*
X53340Y229870D01*
X78740Y242570D02*
X66040Y255270D01*
X78740Y267970D01*
X78740Y369570D01*
X91440Y382270D01*
X193040Y382270D01*
X205740Y394970D01*
X218440Y382270D01*
X205740Y369570D01*
X205740Y267970D01*
X218440Y255270D01*
X205740Y242570D01*
X193040Y255270D01*
X91440Y255270D01*
X78740Y242570D01*
X64258Y388620D02*
X64260Y388820D01*
X64268Y389019D01*
X64280Y389218D01*
X64297Y389417D01*
X64319Y389615D01*
X64346Y389813D01*
X64378Y390010D01*
X64414Y390206D01*
X64456Y390402D01*
X64502Y390596D01*
X64553Y390789D01*
X64608Y390981D01*
X64668Y391171D01*
X64733Y391360D01*
X64803Y391547D01*
X64877Y391732D01*
X64956Y391915D01*
X65039Y392097D01*
X65126Y392276D01*
X65218Y392453D01*
X65314Y392628D01*
X65415Y392801D01*
X65520Y392971D01*
X65628Y393138D01*
X65741Y393302D01*
X65858Y393464D01*
X65979Y393623D01*
X66104Y393779D01*
X66232Y393932D01*
X66365Y394081D01*
X66500Y394227D01*
X66640Y394370D01*
X66783Y394510D01*
X66929Y394645D01*
X67078Y394778D01*
X67231Y394906D01*
X67387Y395031D01*
X67546Y395152D01*
X67708Y395269D01*
X67872Y395382D01*
X68039Y395490D01*
X68209Y395595D01*
X68382Y395696D01*
X68557Y395792D01*
X68734Y395884D01*
X68913Y395971D01*
X69095Y396054D01*
X69278Y396133D01*
X69463Y396207D01*
X69650Y396277D01*
X69839Y396342D01*
X70029Y396402D01*
X70221Y396457D01*
X70414Y396508D01*
X70608Y396554D01*
X70804Y396596D01*
X71000Y396632D01*
X71197Y396664D01*
X71395Y396691D01*
X71593Y396713D01*
X71792Y396730D01*
X71991Y396742D01*
X72190Y396750D01*
X72390Y396752D01*
X72590Y396750D01*
X72789Y396742D01*
X72988Y396730D01*
X73187Y396713D01*
X73385Y396691D01*
X73583Y396664D01*
X73780Y396632D01*
X73976Y396596D01*
X74172Y396554D01*
X74366Y396508D01*
X74559Y396457D01*
X74751Y396402D01*
X74941Y396342D01*
X75130Y396277D01*
X75317Y396207D01*
X75502Y396133D01*
X75685Y396054D01*
X75867Y395971D01*
X76046Y395884D01*
X76223Y395792D01*
X76398Y395696D01*
X76571Y395595D01*
X76741Y395490D01*
X76908Y395382D01*
X77072Y395269D01*
X77234Y395152D01*
X77393Y395031D01*
X77549Y394906D01*
X77702Y394778D01*
X77851Y394645D01*
X77997Y394510D01*
X78140Y394370D01*
X78280Y394227D01*
X78415Y394081D01*
X78548Y393932D01*
X78676Y393779D01*
X78801Y393623D01*
X78922Y393464D01*
X79039Y393302D01*
X79152Y393138D01*
X79260Y392971D01*
X79365Y392801D01*
X79466Y392628D01*
X79562Y392453D01*
X79654Y392276D01*
X79741Y392097D01*
X79824Y391915D01*
X79903Y391732D01*
X79977Y391547D01*
X80047Y391360D01*
X80112Y391171D01*
X80172Y390981D01*
X80227Y390789D01*
X80278Y390596D01*
X80324Y390402D01*
X80366Y390206D01*
X80402Y390010D01*
X80434Y389813D01*
X80461Y389615D01*
X80483Y389417D01*
X80500Y389218D01*
X80512Y389019D01*
X80520Y388820D01*
X80522Y388620D01*
X80520Y388420D01*
X80512Y388221D01*
X80500Y388022D01*
X80483Y387823D01*
X80461Y387625D01*
X80434Y387427D01*
X80402Y387230D01*
X80366Y387034D01*
X80324Y386838D01*
X80278Y386644D01*
X80227Y386451D01*
X80172Y386259D01*
X80112Y386069D01*
X80047Y385880D01*
X79977Y385693D01*
X79903Y385508D01*
X79824Y385325D01*
X79741Y385143D01*
X79654Y384964D01*
X79562Y384787D01*
X79466Y384612D01*
X79365Y384439D01*
X79260Y384269D01*
X79152Y384102D01*
X79039Y383938D01*
X78922Y383776D01*
X78801Y383617D01*
X78676Y383461D01*
X78548Y383308D01*
X78415Y383159D01*
X78280Y383013D01*
X78140Y382870D01*
X77997Y382730D01*
X77851Y382595D01*
X77702Y382462D01*
X77549Y382334D01*
X77393Y382209D01*
X77234Y382088D01*
X77072Y381971D01*
X76908Y381858D01*
X76741Y381750D01*
X76571Y381645D01*
X76398Y381544D01*
X76223Y381448D01*
X76046Y381356D01*
X75867Y381269D01*
X75685Y381186D01*
X75502Y381107D01*
X75317Y381033D01*
X75130Y380963D01*
X74941Y380898D01*
X74751Y380838D01*
X74559Y380783D01*
X74366Y380732D01*
X74172Y380686D01*
X73976Y380644D01*
X73780Y380608D01*
X73583Y380576D01*
X73385Y380549D01*
X73187Y380527D01*
X72988Y380510D01*
X72789Y380498D01*
X72590Y380490D01*
X72390Y380488D01*
X72190Y380490D01*
X71991Y380498D01*
X71792Y380510D01*
X71593Y380527D01*
X71395Y380549D01*
X71197Y380576D01*
X71000Y380608D01*
X70804Y380644D01*
X70608Y380686D01*
X70414Y380732D01*
X70221Y380783D01*
X70029Y380838D01*
X69839Y380898D01*
X69650Y380963D01*
X69463Y381033D01*
X69278Y381107D01*
X69095Y381186D01*
X68913Y381269D01*
X68734Y381356D01*
X68557Y381448D01*
X68382Y381544D01*
X68209Y381645D01*
X68039Y381750D01*
X67872Y381858D01*
X67708Y381971D01*
X67546Y382088D01*
X67387Y382209D01*
X67231Y382334D01*
X67078Y382462D01*
X66929Y382595D01*
X66783Y382730D01*
X66640Y382870D01*
X66500Y383013D01*
X66365Y383159D01*
X66232Y383308D01*
X66104Y383461D01*
X65979Y383617D01*
X65858Y383776D01*
X65741Y383938D01*
X65628Y384102D01*
X65520Y384269D01*
X65415Y384439D01*
X65314Y384612D01*
X65218Y384787D01*
X65126Y384964D01*
X65039Y385143D01*
X64956Y385325D01*
X64877Y385508D01*
X64803Y385693D01*
X64733Y385880D01*
X64668Y386069D01*
X64608Y386259D01*
X64553Y386451D01*
X64502Y386644D01*
X64456Y386838D01*
X64414Y387034D01*
X64378Y387230D01*
X64346Y387427D01*
X64319Y387625D01*
X64297Y387823D01*
X64280Y388022D01*
X64268Y388221D01*
X64260Y388420D01*
X64258Y388620D01*
X103934Y318770D02*
X103936Y318896D01*
X103942Y319022D01*
X103952Y319148D01*
X103966Y319273D01*
X103983Y319398D01*
X104005Y319523D01*
X104031Y319646D01*
X104060Y319769D01*
X104093Y319890D01*
X104131Y320011D01*
X104171Y320130D01*
X104216Y320248D01*
X104264Y320365D01*
X104316Y320480D01*
X104372Y320593D01*
X104431Y320705D01*
X104493Y320814D01*
X104559Y320922D01*
X104628Y321027D01*
X104701Y321131D01*
X104777Y321231D01*
X104856Y321330D01*
X104938Y321426D01*
X105022Y321519D01*
X105110Y321610D01*
X105201Y321698D01*
X105294Y321782D01*
X105390Y321864D01*
X105489Y321943D01*
X105589Y322019D01*
X105693Y322092D01*
X105798Y322161D01*
X105906Y322227D01*
X106015Y322289D01*
X106127Y322348D01*
X106240Y322404D01*
X106355Y322456D01*
X106472Y322504D01*
X106590Y322549D01*
X106709Y322589D01*
X106830Y322627D01*
X106951Y322660D01*
X107074Y322689D01*
X107197Y322715D01*
X107322Y322737D01*
X107447Y322754D01*
X107572Y322768D01*
X107698Y322778D01*
X107824Y322784D01*
X107950Y322786D01*
X108076Y322784D01*
X108202Y322778D01*
X108328Y322768D01*
X108453Y322754D01*
X108578Y322737D01*
X108703Y322715D01*
X108826Y322689D01*
X108949Y322660D01*
X109070Y322627D01*
X109191Y322589D01*
X109310Y322549D01*
X109428Y322504D01*
X109545Y322456D01*
X109660Y322404D01*
X109773Y322348D01*
X109885Y322289D01*
X109994Y322227D01*
X110102Y322161D01*
X110207Y322092D01*
X110311Y322019D01*
X110411Y321943D01*
X110510Y321864D01*
X110606Y321782D01*
X110699Y321698D01*
X110790Y321610D01*
X110878Y321519D01*
X110962Y321426D01*
X111044Y321330D01*
X111123Y321231D01*
X111199Y321131D01*
X111272Y321027D01*
X111341Y320922D01*
X111407Y320814D01*
X111469Y320705D01*
X111528Y320593D01*
X111584Y320480D01*
X111636Y320365D01*
X111684Y320248D01*
X111729Y320130D01*
X111769Y320011D01*
X111807Y319890D01*
X111840Y319769D01*
X111869Y319646D01*
X111895Y319523D01*
X111917Y319398D01*
X111934Y319273D01*
X111948Y319148D01*
X111958Y319022D01*
X111964Y318896D01*
X111966Y318770D01*
X111964Y318644D01*
X111958Y318518D01*
X111948Y318392D01*
X111934Y318267D01*
X111917Y318142D01*
X111895Y318017D01*
X111869Y317894D01*
X111840Y317771D01*
X111807Y317650D01*
X111769Y317529D01*
X111729Y317410D01*
X111684Y317292D01*
X111636Y317175D01*
X111584Y317060D01*
X111528Y316947D01*
X111469Y316835D01*
X111407Y316726D01*
X111341Y316618D01*
X111272Y316513D01*
X111199Y316409D01*
X111123Y316309D01*
X111044Y316210D01*
X110962Y316114D01*
X110878Y316021D01*
X110790Y315930D01*
X110699Y315842D01*
X110606Y315758D01*
X110510Y315676D01*
X110411Y315597D01*
X110311Y315521D01*
X110207Y315448D01*
X110102Y315379D01*
X109994Y315313D01*
X109885Y315251D01*
X109773Y315192D01*
X109660Y315136D01*
X109545Y315084D01*
X109428Y315036D01*
X109310Y314991D01*
X109191Y314951D01*
X109070Y314913D01*
X108949Y314880D01*
X108826Y314851D01*
X108703Y314825D01*
X108578Y314803D01*
X108453Y314786D01*
X108328Y314772D01*
X108202Y314762D01*
X108076Y314756D01*
X107950Y314754D01*
X107824Y314756D01*
X107698Y314762D01*
X107572Y314772D01*
X107447Y314786D01*
X107322Y314803D01*
X107197Y314825D01*
X107074Y314851D01*
X106951Y314880D01*
X106830Y314913D01*
X106709Y314951D01*
X106590Y314991D01*
X106472Y315036D01*
X106355Y315084D01*
X106240Y315136D01*
X106127Y315192D01*
X106015Y315251D01*
X105906Y315313D01*
X105798Y315379D01*
X105693Y315448D01*
X105589Y315521D01*
X105489Y315597D01*
X105390Y315676D01*
X105294Y315758D01*
X105201Y315842D01*
X105110Y315930D01*
X105022Y316021D01*
X104938Y316114D01*
X104856Y316210D01*
X104777Y316309D01*
X104701Y316409D01*
X104628Y316513D01*
X104559Y316618D01*
X104493Y316726D01*
X104431Y316835D01*
X104372Y316947D01*
X104316Y317060D01*
X104264Y317175D01*
X104216Y317292D01*
X104171Y317410D01*
X104131Y317529D01*
X104093Y317650D01*
X104060Y317771D01*
X104031Y317894D01*
X104005Y318017D01*
X103983Y318142D01*
X103966Y318267D01*
X103952Y318392D01*
X103942Y318518D01*
X103936Y318644D01*
X103934Y318770D01*
D13*
X49444Y306331D02*
X49444Y299129D01*
X48004Y297688D01*
X45123Y297688D01*
X43682Y299129D01*
X43682Y306331D01*
X40089Y306331D02*
X34327Y306331D01*
X34327Y304891D01*
X40089Y299129D01*
X40089Y297688D01*
D12*
X17018Y256800D02*
X17021Y257068D01*
X17031Y257336D01*
X17048Y257603D01*
X17071Y257871D01*
X17100Y258137D01*
X17136Y258403D01*
X17179Y258667D01*
X17228Y258931D01*
X17283Y259193D01*
X17345Y259454D01*
X17414Y259713D01*
X17488Y259970D01*
X17569Y260226D01*
X17656Y260480D01*
X17750Y260731D01*
X17849Y260980D01*
X17955Y261226D01*
X18067Y261470D01*
X18184Y261711D01*
X18308Y261949D01*
X18437Y262183D01*
X18572Y262415D01*
X18713Y262643D01*
X18859Y262868D01*
X19010Y263089D01*
X19167Y263306D01*
X19330Y263520D01*
X19497Y263729D01*
X19670Y263934D01*
X19847Y264135D01*
X20030Y264331D01*
X20217Y264523D01*
X20409Y264710D01*
X20605Y264893D01*
X20806Y265070D01*
X21011Y265243D01*
X21220Y265410D01*
X21434Y265573D01*
X21651Y265730D01*
X21872Y265881D01*
X22097Y266027D01*
X22325Y266168D01*
X22557Y266303D01*
X22791Y266432D01*
X23029Y266556D01*
X23270Y266673D01*
X23514Y266785D01*
X23760Y266891D01*
X24009Y266990D01*
X24260Y267084D01*
X24514Y267171D01*
X24770Y267252D01*
X25027Y267326D01*
X25286Y267395D01*
X25547Y267457D01*
X25809Y267512D01*
X26073Y267561D01*
X26337Y267604D01*
X26603Y267640D01*
X26869Y267669D01*
X27137Y267692D01*
X27404Y267709D01*
X27672Y267719D01*
X27940Y267722D01*
X28208Y267719D01*
X28476Y267709D01*
X28743Y267692D01*
X29011Y267669D01*
X29277Y267640D01*
X29543Y267604D01*
X29807Y267561D01*
X30071Y267512D01*
X30333Y267457D01*
X30594Y267395D01*
X30853Y267326D01*
X31110Y267252D01*
X31366Y267171D01*
X31620Y267084D01*
X31871Y266990D01*
X32120Y266891D01*
X32366Y266785D01*
X32610Y266673D01*
X32851Y266556D01*
X33089Y266432D01*
X33323Y266303D01*
X33555Y266168D01*
X33783Y266027D01*
X34008Y265881D01*
X34229Y265730D01*
X34446Y265573D01*
X34660Y265410D01*
X34869Y265243D01*
X35074Y265070D01*
X35275Y264893D01*
X35471Y264710D01*
X35663Y264523D01*
X35850Y264331D01*
X36033Y264135D01*
X36210Y263934D01*
X36383Y263729D01*
X36550Y263520D01*
X36713Y263306D01*
X36870Y263089D01*
X37021Y262868D01*
X37167Y262643D01*
X37308Y262415D01*
X37443Y262183D01*
X37572Y261949D01*
X37696Y261711D01*
X37813Y261470D01*
X37925Y261226D01*
X38031Y260980D01*
X38130Y260731D01*
X38224Y260480D01*
X38311Y260226D01*
X38392Y259970D01*
X38466Y259713D01*
X38535Y259454D01*
X38597Y259193D01*
X38652Y258931D01*
X38701Y258667D01*
X38744Y258403D01*
X38780Y258137D01*
X38809Y257871D01*
X38832Y257603D01*
X38849Y257336D01*
X38859Y257068D01*
X38862Y256800D01*
X38859Y256532D01*
X38849Y256264D01*
X38832Y255997D01*
X38809Y255729D01*
X38780Y255463D01*
X38744Y255197D01*
X38701Y254933D01*
X38652Y254669D01*
X38597Y254407D01*
X38535Y254146D01*
X38466Y253887D01*
X38392Y253630D01*
X38311Y253374D01*
X38224Y253120D01*
X38130Y252869D01*
X38031Y252620D01*
X37925Y252374D01*
X37813Y252130D01*
X37696Y251889D01*
X37572Y251651D01*
X37443Y251417D01*
X37308Y251185D01*
X37167Y250957D01*
X37021Y250732D01*
X36870Y250511D01*
X36713Y250294D01*
X36550Y250080D01*
X36383Y249871D01*
X36210Y249666D01*
X36033Y249465D01*
X35850Y249269D01*
X35663Y249077D01*
X35471Y248890D01*
X35275Y248707D01*
X35074Y248530D01*
X34869Y248357D01*
X34660Y248190D01*
X34446Y248027D01*
X34229Y247870D01*
X34008Y247719D01*
X33783Y247573D01*
X33555Y247432D01*
X33323Y247297D01*
X33089Y247168D01*
X32851Y247044D01*
X32610Y246927D01*
X32366Y246815D01*
X32120Y246709D01*
X31871Y246610D01*
X31620Y246516D01*
X31366Y246429D01*
X31110Y246348D01*
X30853Y246274D01*
X30594Y246205D01*
X30333Y246143D01*
X30071Y246088D01*
X29807Y246039D01*
X29543Y245996D01*
X29277Y245960D01*
X29011Y245931D01*
X28743Y245908D01*
X28476Y245891D01*
X28208Y245881D01*
X27940Y245878D01*
X27672Y245881D01*
X27404Y245891D01*
X27137Y245908D01*
X26869Y245931D01*
X26603Y245960D01*
X26337Y245996D01*
X26073Y246039D01*
X25809Y246088D01*
X25547Y246143D01*
X25286Y246205D01*
X25027Y246274D01*
X24770Y246348D01*
X24514Y246429D01*
X24260Y246516D01*
X24009Y246610D01*
X23760Y246709D01*
X23514Y246815D01*
X23270Y246927D01*
X23029Y247044D01*
X22791Y247168D01*
X22557Y247297D01*
X22325Y247432D01*
X22097Y247573D01*
X21872Y247719D01*
X21651Y247870D01*
X21434Y248027D01*
X21220Y248190D01*
X21011Y248357D01*
X20806Y248530D01*
X20605Y248707D01*
X20409Y248890D01*
X20217Y249077D01*
X20030Y249269D01*
X19847Y249465D01*
X19670Y249666D01*
X19497Y249871D01*
X19330Y250080D01*
X19167Y250294D01*
X19010Y250511D01*
X18859Y250732D01*
X18713Y250957D01*
X18572Y251185D01*
X18437Y251417D01*
X18308Y251651D01*
X18184Y251889D01*
X18067Y252130D01*
X17955Y252374D01*
X17849Y252620D01*
X17750Y252869D01*
X17656Y253120D01*
X17569Y253374D01*
X17488Y253630D01*
X17414Y253887D01*
X17345Y254146D01*
X17283Y254407D01*
X17228Y254669D01*
X17179Y254933D01*
X17136Y255197D01*
X17100Y255463D01*
X17071Y255729D01*
X17048Y255997D01*
X17031Y256264D01*
X17021Y256532D01*
X17018Y256800D01*
X2540Y231400D02*
X2540Y434600D01*
X129540Y434600D01*
X129540Y231400D01*
X2540Y231400D01*
D13*
X152568Y418852D02*
X152568Y427495D01*
X148247Y427495D01*
X146806Y426055D01*
X146806Y423174D01*
X148247Y421733D01*
X152568Y421733D01*
X143213Y418852D02*
X137451Y418852D01*
X143213Y418852D02*
X137451Y424614D01*
X137451Y426055D01*
X138892Y427495D01*
X141773Y427495D01*
X143213Y426055D01*
X181100Y103120D02*
X181100Y67060D01*
X133860Y67060D02*
X133860Y103120D01*
D11*
X138010Y94996D02*
X138012Y95071D01*
X138018Y95146D01*
X138028Y95221D01*
X138041Y95295D01*
X138059Y95368D01*
X138080Y95440D01*
X138105Y95511D01*
X138134Y95580D01*
X138167Y95648D01*
X138202Y95714D01*
X138242Y95778D01*
X138284Y95840D01*
X138330Y95900D01*
X138379Y95957D01*
X138431Y96011D01*
X138485Y96063D01*
X138542Y96112D01*
X138602Y96158D01*
X138664Y96200D01*
X138728Y96240D01*
X138794Y96275D01*
X138862Y96308D01*
X138931Y96337D01*
X139002Y96362D01*
X139074Y96383D01*
X139147Y96401D01*
X139221Y96414D01*
X139296Y96424D01*
X139371Y96430D01*
X139446Y96432D01*
X139521Y96430D01*
X139596Y96424D01*
X139671Y96414D01*
X139745Y96401D01*
X139818Y96383D01*
X139890Y96362D01*
X139961Y96337D01*
X140030Y96308D01*
X140098Y96275D01*
X140164Y96240D01*
X140228Y96200D01*
X140290Y96158D01*
X140350Y96112D01*
X140407Y96063D01*
X140461Y96011D01*
X140513Y95957D01*
X140562Y95900D01*
X140608Y95840D01*
X140650Y95778D01*
X140690Y95714D01*
X140725Y95648D01*
X140758Y95580D01*
X140787Y95511D01*
X140812Y95440D01*
X140833Y95368D01*
X140851Y95295D01*
X140864Y95221D01*
X140874Y95146D01*
X140880Y95071D01*
X140882Y94996D01*
X140880Y94921D01*
X140874Y94846D01*
X140864Y94771D01*
X140851Y94697D01*
X140833Y94624D01*
X140812Y94552D01*
X140787Y94481D01*
X140758Y94412D01*
X140725Y94344D01*
X140690Y94278D01*
X140650Y94214D01*
X140608Y94152D01*
X140562Y94092D01*
X140513Y94035D01*
X140461Y93981D01*
X140407Y93929D01*
X140350Y93880D01*
X140290Y93834D01*
X140228Y93792D01*
X140164Y93752D01*
X140098Y93717D01*
X140030Y93684D01*
X139961Y93655D01*
X139890Y93630D01*
X139818Y93609D01*
X139745Y93591D01*
X139671Y93578D01*
X139596Y93568D01*
X139521Y93562D01*
X139446Y93560D01*
X139371Y93562D01*
X139296Y93568D01*
X139221Y93578D01*
X139147Y93591D01*
X139074Y93609D01*
X139002Y93630D01*
X138931Y93655D01*
X138862Y93684D01*
X138794Y93717D01*
X138728Y93752D01*
X138664Y93792D01*
X138602Y93834D01*
X138542Y93880D01*
X138485Y93929D01*
X138431Y93981D01*
X138379Y94035D01*
X138330Y94092D01*
X138284Y94152D01*
X138242Y94214D01*
X138202Y94278D01*
X138167Y94344D01*
X138134Y94412D01*
X138105Y94481D01*
X138080Y94552D01*
X138059Y94624D01*
X138041Y94697D01*
X138028Y94771D01*
X138018Y94846D01*
X138012Y94921D01*
X138010Y94996D01*
D13*
X130055Y87122D02*
X122853Y87122D01*
X121412Y88563D01*
X121412Y91444D01*
X122853Y92884D01*
X130055Y92884D01*
X130055Y96477D02*
X130055Y102239D01*
X130055Y96477D02*
X125734Y96477D01*
X127174Y99358D01*
X127174Y100799D01*
X125734Y102239D01*
X122853Y102239D01*
X121412Y100799D01*
X121412Y97918D01*
X122853Y96477D01*
D12*
X42250Y113270D02*
X42250Y113770D01*
D11*
X42250Y143270D01*
X21250Y143270D02*
X21250Y113270D01*
X42250Y113270D02*
X42263Y113182D01*
X42279Y113095D01*
X42300Y113009D01*
X42324Y112923D01*
X42353Y112839D01*
X42384Y112756D01*
X42420Y112675D01*
X42459Y112595D01*
X42501Y112517D01*
X42547Y112441D01*
X42596Y112367D01*
X42649Y112295D01*
X42704Y112226D01*
X42763Y112159D01*
X42824Y112095D01*
X42888Y112034D01*
X42955Y111975D01*
X43024Y111919D01*
X43096Y111867D01*
X43170Y111818D01*
X43246Y111772D01*
X43324Y111729D01*
X43403Y111690D01*
X43485Y111655D01*
X43568Y111623D01*
X43652Y111595D01*
X43737Y111570D01*
X43824Y111550D01*
X43911Y111533D01*
X43999Y111520D01*
X44087Y111511D01*
X44176Y111505D01*
X44264Y111504D01*
X44353Y111507D01*
X44442Y111513D01*
X44530Y111524D01*
X44617Y111538D01*
X44704Y111556D01*
X44790Y111578D01*
X44875Y111603D01*
X44959Y111633D01*
X45042Y111666D01*
X45123Y111703D01*
X45202Y111743D01*
X45279Y111786D01*
X45354Y111833D01*
X45428Y111884D01*
X45498Y111937D01*
X45567Y111994D01*
X45633Y112053D01*
X45696Y112115D01*
X45757Y112180D01*
X45814Y112248D01*
X45869Y112318D01*
X45920Y112391D01*
X45968Y112465D01*
X46013Y112542D01*
X46054Y112620D01*
X46092Y112701D01*
X46126Y112783D01*
X46157Y112866D01*
X46184Y112951D01*
X46207Y113036D01*
X46227Y113123D01*
X46242Y113210D01*
X46254Y113298D01*
X46262Y113387D01*
X46266Y113476D01*
X46266Y113564D01*
X46262Y113653D01*
X46254Y113742D01*
X46242Y113830D01*
X46227Y113917D01*
X46207Y114004D01*
X46184Y114089D01*
X46157Y114174D01*
X46126Y114257D01*
X46092Y114339D01*
X46054Y114420D01*
X46013Y114498D01*
X45968Y114575D01*
X45920Y114649D01*
X45869Y114722D01*
X45814Y114792D01*
X45757Y114860D01*
X45696Y114925D01*
X45633Y114987D01*
X45567Y115046D01*
X45498Y115103D01*
X45428Y115156D01*
X45354Y115207D01*
X45279Y115254D01*
X45202Y115297D01*
X45123Y115337D01*
X45042Y115374D01*
X44959Y115407D01*
X44875Y115437D01*
X44790Y115462D01*
X44704Y115484D01*
X44617Y115502D01*
X44530Y115516D01*
X44442Y115527D01*
X44353Y115533D01*
X44264Y115536D01*
X44176Y115535D01*
X44087Y115529D01*
X43999Y115520D01*
X43911Y115507D01*
X43824Y115490D01*
X43737Y115470D01*
X43652Y115445D01*
X43568Y115417D01*
X43485Y115385D01*
X43403Y115350D01*
X43324Y115311D01*
X43246Y115268D01*
X43170Y115222D01*
X43096Y115173D01*
X43024Y115121D01*
X42955Y115065D01*
X42888Y115006D01*
X42824Y114945D01*
X42763Y114881D01*
X42704Y114814D01*
X42649Y114745D01*
X42596Y114673D01*
X42547Y114599D01*
X42501Y114523D01*
X42459Y114445D01*
X42420Y114365D01*
X42384Y114284D01*
X42353Y114201D01*
X42324Y114117D01*
X42300Y114031D01*
X42279Y113945D01*
X42263Y113858D01*
X42250Y113770D01*
D13*
X61148Y126503D02*
X61148Y133705D01*
X61148Y126503D02*
X59707Y125062D01*
X56826Y125062D01*
X55386Y126503D01*
X55386Y133705D01*
X47471Y133705D02*
X47471Y125062D01*
X51793Y129384D02*
X47471Y133705D01*
X46031Y129384D02*
X51793Y129384D01*
D16*
X70815Y95250D02*
X71425Y95250D01*
D13*
X86070Y76249D02*
X87510Y74808D01*
X87510Y71927D01*
X86070Y70486D01*
X80308Y70486D01*
X78867Y71927D01*
X78867Y74808D01*
X80308Y76249D01*
X84629Y79842D02*
X87510Y82723D01*
X78867Y82723D01*
X78867Y79842D02*
X78867Y85604D01*
X78867Y89197D02*
X78867Y94959D01*
X78867Y89197D02*
X84629Y94959D01*
X86070Y94959D01*
X87510Y93519D01*
X87510Y90637D01*
X86070Y89197D01*
D17*
X50800Y95250D03*
D13*
X64643Y81795D02*
X64643Y73152D01*
X64643Y81795D02*
X60321Y81795D01*
X58881Y80355D01*
X58881Y77474D01*
X60321Y76033D01*
X64643Y76033D01*
X61762Y76033D02*
X58881Y73152D01*
X55288Y78914D02*
X52407Y81795D01*
X52407Y73152D01*
X55288Y73152D02*
X49526Y73152D01*
X41611Y73152D02*
X41611Y81795D01*
X45933Y77474D01*
X40170Y77474D01*
D17*
X25400Y95250D03*
D13*
X30479Y81795D02*
X30479Y73152D01*
X30479Y81795D02*
X26157Y81795D01*
X24716Y80355D01*
X24716Y77474D01*
X26157Y76033D01*
X30479Y76033D01*
X27597Y76033D02*
X24716Y73152D01*
X21123Y78914D02*
X18242Y81795D01*
X18242Y73152D01*
X21123Y73152D02*
X15361Y73152D01*
X11768Y81795D02*
X6006Y81795D01*
X6006Y80355D01*
X11768Y74593D01*
X11768Y73152D01*
D16*
X13665Y95250D02*
X14275Y95250D01*
D13*
X15120Y118114D02*
X13680Y119554D01*
X15120Y118114D02*
X15120Y115233D01*
X13680Y113792D01*
X7918Y113792D01*
X6477Y115233D01*
X6477Y118114D01*
X7918Y119554D01*
X12239Y123147D02*
X15120Y126028D01*
X6477Y126028D01*
X6477Y123147D02*
X6477Y128909D01*
X6477Y136824D02*
X15120Y136824D01*
X10799Y132502D01*
X10799Y138265D01*
D17*
X38100Y162560D03*
D13*
X29090Y153162D02*
X20447Y153162D01*
X29090Y153162D02*
X29090Y157484D01*
X27650Y158924D01*
X24769Y158924D01*
X23328Y157484D01*
X23328Y153162D01*
X23328Y156043D02*
X20447Y158924D01*
X20447Y162517D02*
X20447Y168279D01*
X20447Y162517D02*
X26209Y168279D01*
X27650Y168279D01*
X29090Y166839D01*
X29090Y163958D01*
X27650Y162517D01*
X27650Y171872D02*
X21888Y171872D01*
X27650Y171872D02*
X29090Y173313D01*
X29090Y176194D01*
X27650Y177635D01*
X21888Y177635D01*
X20447Y176194D01*
X20447Y173313D01*
X21888Y171872D01*
X27650Y177635D01*
D17*
X52070Y162560D03*
D13*
X53855Y178436D02*
X45212Y178436D01*
X53855Y178436D02*
X53855Y182758D01*
X52415Y184199D01*
X49534Y184199D01*
X48093Y182758D01*
X48093Y178436D01*
X48093Y181318D02*
X45212Y184199D01*
X45212Y187792D02*
X45212Y193554D01*
X45212Y187792D02*
X50974Y193554D01*
X52415Y193554D01*
X53855Y192113D01*
X53855Y189232D01*
X52415Y187792D01*
X50974Y197147D02*
X53855Y200028D01*
X45212Y200028D01*
X45212Y197147D02*
X45212Y202909D01*
D12*
X1270Y320040D02*
X1270Y396240D01*
M02*
