G04 EAGLE Gerber RS-274X export*
G75*
%MOMM*%
%FSLAX34Y34*%
%LPD*%
%INSoldermask Bottom*%
%IPPOS*%
%AMOC8*
5,1,8,0,0,1.08239X$1,22.5*%
G01*
%ADD10C,2.203200*%
%ADD11C,1.703200*%
%ADD12R,1.603200X1.803200*%
%ADD13C,2.003200*%
%ADD14R,0.903200X1.103200*%
%ADD15R,1.203200X1.303200*%
%ADD16R,1.981200X0.965200*%
%ADD17R,0.965200X1.981200*%
%ADD18R,2.003200X2.003200*%
%ADD19C,2.003200*%
%ADD20R,0.812800X2.413000*%
%ADD21P,1.951982X8X22.500000*%
%ADD22R,0.300000X0.800000*%
%ADD23R,1.880000X1.530000*%
%ADD24R,1.103200X0.903200*%
%ADD25P,1.869504X8X292.500000*%
%ADD26C,0.657200*%
%ADD27C,0.807200*%


D10*
X22860Y204470D03*
X218440Y46990D03*
D11*
X218440Y420370D03*
D10*
X27940Y256540D03*
D12*
X43210Y57150D03*
X15210Y57150D03*
D13*
X40640Y31860D02*
X40640Y13860D01*
X15240Y13860D02*
X15240Y31860D01*
D14*
X161440Y38100D03*
X148440Y38100D03*
D15*
X209550Y97400D03*
X209550Y80400D03*
X231140Y97400D03*
X231140Y80400D03*
D16*
X82550Y318770D03*
X82550Y331470D03*
X82550Y344170D03*
X82550Y356870D03*
D17*
X104140Y378460D03*
X116840Y378460D03*
X129540Y378460D03*
X142240Y378460D03*
X154940Y378460D03*
X167640Y378460D03*
X180340Y378460D03*
D16*
X201930Y356870D03*
X201930Y344170D03*
X201930Y331470D03*
X201930Y318770D03*
X201930Y306070D03*
X201930Y293370D03*
X201930Y280670D03*
D17*
X180340Y259080D03*
X167640Y259080D03*
X154940Y259080D03*
X142240Y259080D03*
X129540Y259080D03*
X116840Y259080D03*
X104140Y259080D03*
D16*
X82550Y280670D03*
X82550Y293370D03*
X82550Y306070D03*
D18*
X78740Y15240D03*
D19*
X98740Y15240D03*
X118740Y15240D03*
X138740Y15240D03*
X158740Y15240D03*
X178740Y15240D03*
X198740Y15240D03*
X218740Y15240D03*
D18*
X66040Y421900D03*
D19*
X66040Y396500D03*
X15240Y421900D03*
X40640Y421900D03*
X116840Y421900D03*
X91440Y421900D03*
D20*
X138430Y111252D03*
X151130Y111252D03*
X163830Y111252D03*
X176530Y111252D03*
X176530Y58928D03*
X163830Y58928D03*
X151130Y58928D03*
X138430Y58928D03*
D21*
X123444Y144780D03*
X118618Y126746D03*
D22*
X39250Y114270D03*
X39250Y114270D03*
X29250Y114270D03*
X34250Y114270D03*
X24250Y114270D03*
X39250Y142270D03*
X34250Y142270D03*
X29250Y142270D03*
X24250Y142270D03*
D23*
X31750Y128270D03*
D24*
X71120Y88750D03*
X71120Y101750D03*
X50800Y88750D03*
X50800Y101750D03*
X25400Y101750D03*
X25400Y88750D03*
X13970Y88750D03*
X13970Y101750D03*
X38100Y156060D03*
X38100Y169060D03*
X52070Y156060D03*
X52070Y169060D03*
D18*
X13970Y320040D03*
D19*
X13970Y345440D03*
X13970Y370840D03*
X13970Y396240D03*
D25*
X69254Y218309D03*
X94654Y218309D03*
X69254Y192909D03*
X94654Y192909D03*
X69254Y167509D03*
X94654Y167509D03*
X69254Y142109D03*
X94654Y142109D03*
D26*
X47890Y254668D03*
X223520Y139700D03*
X220980Y218440D03*
X152400Y135890D03*
X150876Y357632D03*
X41910Y189230D03*
X87630Y43180D03*
X154940Y85090D03*
X181610Y78740D03*
X86360Y100330D03*
X92710Y259080D03*
X36830Y383540D03*
X185674Y316992D03*
X233198Y29865D03*
X81738Y210362D03*
X81428Y186025D03*
X55376Y195481D03*
X40640Y97790D03*
D27*
X113538Y334518D03*
X112268Y307848D03*
X195834Y250444D03*
X57912Y325120D03*
D26*
X137668Y149860D03*
X132080Y161036D03*
X139954Y186944D03*
X19050Y272542D03*
X161544Y237744D03*
X29718Y400050D03*
X125984Y230886D03*
X220218Y88900D03*
X137809Y199681D03*
X220980Y208280D03*
X227330Y149860D03*
X139700Y193040D03*
X133350Y128270D03*
X132080Y39370D03*
X47383Y246255D03*
X189081Y134397D03*
X194190Y92624D03*
X95829Y242108D03*
X113859Y165541D03*
X49530Y406400D03*
X114700Y237583D03*
X111760Y172720D03*
X199390Y132080D03*
X66040Y115570D03*
X173627Y239513D03*
X199390Y240030D03*
X194310Y233680D03*
X138633Y214656D03*
X85396Y248965D03*
D27*
X161544Y189964D03*
X165354Y316484D03*
D26*
X35560Y322580D03*
X220980Y316230D03*
X220980Y335280D03*
D27*
X169672Y195834D03*
X129540Y289560D03*
X178562Y165608D03*
X172212Y159258D03*
M02*
