G04 EAGLE Gerber RS-274X export*
G75*
%MOMM*%
%FSLAX34Y34*%
%LPD*%
%INSolderpaste Bottom*%
%IPPOS*%
%AMOC8*
5,1,8,0,0,1.08239X$1,22.5*%
G01*
%ADD10R,1.400000X1.600000*%
%ADD11R,0.700000X0.900000*%
%ADD12R,1.000000X1.100000*%
%ADD13R,1.778000X0.762000*%
%ADD14R,0.762000X1.778000*%
%ADD15R,0.609600X2.209800*%
%ADD16R,0.300000X0.800000*%
%ADD17R,0.660400X0.660400*%
%ADD18R,0.900000X0.700000*%


D10*
X43210Y57150D03*
X15210Y57150D03*
D11*
X161440Y38100D03*
X148440Y38100D03*
D12*
X209550Y97400D03*
X209550Y80400D03*
X231140Y97400D03*
X231140Y80400D03*
D13*
X82550Y318770D03*
X82550Y331470D03*
X82550Y344170D03*
X82550Y356870D03*
D14*
X104140Y378460D03*
X116840Y378460D03*
X129540Y378460D03*
X142240Y378460D03*
X154940Y378460D03*
X167640Y378460D03*
X180340Y378460D03*
D13*
X201930Y356870D03*
X201930Y344170D03*
X201930Y331470D03*
X201930Y318770D03*
X201930Y306070D03*
X201930Y293370D03*
X201930Y280670D03*
D14*
X180340Y259080D03*
X167640Y259080D03*
X154940Y259080D03*
X142240Y259080D03*
X129540Y259080D03*
X116840Y259080D03*
X104140Y259080D03*
D13*
X82550Y280670D03*
X82550Y293370D03*
X82550Y306070D03*
D15*
X138430Y111252D03*
X151130Y111252D03*
X163830Y111252D03*
X176530Y111252D03*
X176530Y58928D03*
X163830Y58928D03*
X151130Y58928D03*
X138430Y58928D03*
D16*
X39250Y114270D03*
X34250Y114270D03*
X24250Y114270D03*
X29250Y114270D03*
X39250Y142270D03*
X34250Y142270D03*
X24250Y142270D03*
X29250Y142270D03*
D17*
X31750Y128270D03*
D18*
X71120Y88750D03*
X71120Y101750D03*
X50800Y88750D03*
X50800Y101750D03*
X25400Y101750D03*
X25400Y88750D03*
X13970Y88750D03*
X13970Y101750D03*
X38100Y156060D03*
X38100Y169060D03*
X52070Y156060D03*
X52070Y169060D03*
M02*
