M48
;GenerationSoftware,Autodesk,EAGLE,9.5.2*%
;CreationDate,2020-01-23T11:58:52Z*%
FMAT,2
ICI,OFF
METRIC,TZ,000.000
T7C0.200
T6C0.350
T5C0.914
T4C1.016
T3C1.200
T2C1.500
T1C2.000
%
G90
M71
T1
X2286Y20447
X21844Y4699
X2794Y25654
T2
X21844Y42037
T3
X1397Y32004
X1397Y34544
X9144Y42190
X11684Y42190
X4064Y42190
X17874Y1524
X1524Y42190
X6604Y39650
X6604Y42190
X21874Y1524
X19874Y1524
X4064Y2286
X1524Y2286
X7874Y1524
X9874Y1524
X11874Y1524
X13874Y1524
X15874Y1524
X1397Y37084
X1397Y39624
T4
X6925Y19291
X6925Y21831
X9465Y21831
X9465Y19291
X6925Y16751
X9465Y16751
X6925Y14211
X9465Y14211
T5
X11862Y12675
X12344Y14478
T6
X11354Y33452
X17221Y15926
X17856Y16561
X16967Y19583
X16535Y31648
X12954Y28956
X16154Y18996
X5791Y32512
X19583Y25044
X11227Y30785
T7
X11176Y17272
X19939Y13208
X6604Y11557
X3683Y38354
X19939Y24003
X19431Y23368
X13863Y21466
X8540Y24897
X4789Y25467
X22352Y13970
X3556Y32258
X22098Y31623
X22098Y33528
X22098Y21844
X17363Y23951
X15240Y13589
X15088Y35763
X4191Y18923
X8763Y4318
X15494Y8509
X18161Y7874
X8636Y10033
X9271Y25908
X18567Y31699
X23320Y2986
X8174Y21036
X8143Y18602
X5538Y19548
X4343Y8890
X13767Y14986
X13208Y16104
X13995Y18694
X1905Y27254
X16154Y23774
X2972Y40005
X12598Y23089
X22022Y8890
X5842Y11557
X13781Y19968
X13208Y3937
X22098Y20828
X22733Y14986
X13970Y19304
X13335Y12827
X4738Y24626
X18908Y13440
X19419Y9262
X9583Y24211
X11386Y16554
X4953Y40640
X11470Y23758
M30